
<svg xmlns="http://www.w3.org/2000/svg" width="24" height="24" viewBox="0 0 24 24">
  <g id="Group_33304" data-name="Group 33304" transform="translate(-56 69) rotate(-90)">
    <rect id="Rectangle_17" data-name="Rectangle 17" width="24" height="24" transform="translate(45 56)" fill="none"/>
    <path id="Path_40302" data-name="Path 40302" d="M35.058,23.745l-3.067.875a1.221,1.221,0,0,1-1.413-.59L27.9,19.13a1.739,1.739,0,0,0-3.03,0l-2.682,4.9a1.222,1.222,0,0,1-1.413.591l-3.066-.875a1.74,1.74,0,0,0-2.131,2.148l2.594,8.844a2.32,2.32,0,0,0,2.214,1.658h12a2.318,2.318,0,0,0,2.214-1.66l2.588-8.843a1.739,1.739,0,0,0-2.131-2.147ZM32.7,34.179a.331.331,0,0,1-.316.237h-12a.331.331,0,0,1-.316-.237L17.6,25.772l2.628.75a3.188,3.188,0,0,0,3.69-1.543l2.463-4.5,2.463,4.5a3.184,3.184,0,0,0,3.69,1.543l2.63-.75Z" transform="translate(84.32 41.619) rotate(90)" fill="currentColor" stroke="#1e2439" stroke-width="0.3"/>
  </g>
</svg>
