
<svg xmlns="http://www.w3.org/2000/svg" width="24" height="24" viewBox="0 0 24 24">
  <g id="Group_18" data-name="Group 18" transform="translate(-45 -56)">
    <rect id="Rectangle_17" data-name="Rectangle 17" width="24" height="24" transform="translate(45 56)" fill="none"/>
    <path id="Path_17174" data-name="Path 17174" d="M285.517,340.841l-.648-1.125a1.99,1.99,0,0,0-2.714-.733h0a1.982,1.982,0,0,1-2.715-.705,1.9,1.9,0,0,1-.266-.952h0a1.992,1.992,0,0,0-1.99-2.048h-1.306a1.98,1.98,0,0,0-1.98,1.991h0a1.991,1.991,0,0,1-1.991,1.962,1.908,1.908,0,0,1-.953-.267h0a1.99,1.99,0,0,0-2.714.734l-.7,1.144a1.989,1.989,0,0,0,.724,2.714h0a1.991,1.991,0,0,1,0,3.448h0a1.981,1.981,0,0,0-.724,2.7h0l.658,1.134a1.992,1.992,0,0,0,2.715.771h0a1.97,1.97,0,0,1,2.7.724,1.9,1.9,0,0,1,.266.952h0a1.991,1.991,0,0,0,1.99,1.991h1.306a1.991,1.991,0,0,0,1.99-1.981h0a1.981,1.981,0,0,1,1.99-1.991,2.04,2.04,0,0,1,.952.266h0a1.991,1.991,0,0,0,2.715-.723h0l.686-1.144a1.981,1.981,0,0,0-.724-2.714h0a1.983,1.983,0,0,1-.724-2.715,1.951,1.951,0,0,1,.724-.724h0a1.991,1.991,0,0,0,.724-2.7h0Z" transform="translate(-219.532 -277.279)" fill="none" stroke="currentColor" stroke-linecap="round" stroke-linejoin="round" stroke-width="1.6"/>
    <circle id="Ellipse_1319" data-name="Ellipse 1319" cx="2.564" cy="2.564" r="2.564" transform="translate(54.44 65.436)" fill="none" stroke="currentColor" stroke-linecap="round" stroke-linejoin="round" stroke-width="1.6"/>
  </g>
</svg>
