
<svg xmlns="http://www.w3.org/2000/svg" width="24" height="24" viewBox="0 0 24 24">
  <g id="Group_33303" data-name="Group 33303" transform="translate(-45 -56)">
    <rect id="Rectangle_17" data-name="Rectangle 17" width="24" height="24" transform="translate(45 56)" fill="none"/>
    <path id="Path_91" data-name="Path 91" d="M336.3,290.868" transform="translate(-272.632 -221)" fill="none" stroke="currentColor" stroke-linecap="round" stroke-linejoin="round" stroke-width="1.5"/>
    <g id="Group_28" data-name="Group 28" transform="translate(-891.75 -277.445)">
      <path id="Path_156" data-name="Path 156" d="M953.888,344.427a3.14,3.14,0,0,0,.072-6.207" transform="translate(1.506 0.091)" fill="none" stroke="currentColor" stroke-linecap="round" stroke-linejoin="round" stroke-width="1.5"/>
      <path id="Path_157" data-name="Path 157" d="M955.729,347.25c1.477.221,2.508.738,2.508,1.8,0,.734-.486,1.21-1.271,1.51" transform="translate(1.678 0.933)" fill="none" stroke="currentColor" stroke-linecap="round" stroke-linejoin="round" stroke-width="1.5"/>
      <path id="Path_158" data-name="Path 158" d="M948.443,347.664c-3.514,0-6.515.532-6.515,2.659S944.911,353,948.443,353c3.514,0,6.514-.527,6.514-2.655S951.976,347.664,948.443,347.664Z" transform="translate(0.39 0.972)" fill="none" stroke="currentColor" stroke-linecap="round" stroke-linejoin="round" stroke-width="1.5"/>
      <path id="Path_159" data-name="Path 159" d="M948.243,345.6a4.16,4.16,0,1,0-.031,0Z" transform="translate(0.59)" fill="none" stroke="currentColor" stroke-linecap="round" stroke-linejoin="round" stroke-width="1.5"/>
      <path id="Path_160" data-name="Path 160" d="M942.116,344.427a3.139,3.139,0,0,1-.072-6.207" transform="translate(0.155 0.091)" fill="none" stroke="currentColor" stroke-linecap="round" stroke-linejoin="round" stroke-width="1.5"/>
      <path id="Path_161" data-name="Path 161" d="M940.258,347.25c-1.477.221-2.508.738-2.508,1.8,0,.734.486,1.21,1.27,1.51" transform="translate(0 0.933)" fill="none" stroke="currentColor" stroke-linecap="round" stroke-linejoin="round" stroke-width="1.5"/>
    </g>
  </g>
</svg>
