<svg xmlns="http://www.w3.org/2000/svg" width="216" height="216" viewBox="0 0 216 216">
  <g id="Group_67097" data-name="Group 67097" transform="translate(-1421 1032.659)">
    <circle id="Ellipse_7167" data-name="Ellipse 7167" cx="108" cy="108" r="108" transform="translate(1421 -1032.659)" fill="#f8f7f7"/>
    <g id="technical-support" transform="translate(1482 -971.659)">
      <g id="Group_67097-2" data-name="Group 67097" transform="translate(0 0)">
        <path id="Path_93726" data-name="Path 93726" d="M31.293,20.326a16.164,16.164,0,0,0,.488-6.377,15.767,15.767,0,0,0-4.539-9.286,16.055,16.055,0,0,0-2.157-1.806A15.833,15.833,0,0,0,15.979,0,16.14,16.14,0,0,0,13.17.247a2.7,2.7,0,0,0-2.091,1.765,2.712,2.712,0,0,0,.49,2.7l5.1,6-5.956,5.956-6-5.1a2.712,2.712,0,0,0-2.7-.49A2.7,2.7,0,0,0,.247,13.17,16.127,16.127,0,0,0,0,15.979a15.835,15.835,0,0,0,2.857,9.107,16.062,16.062,0,0,0,1.806,2.157,15.767,15.767,0,0,0,9.286,4.539,16.167,16.167,0,0,0,6.377-.488L32.519,43.486,43.486,32.519Z" transform="translate(0 0)" fill="#acacae"/>
        <path id="Path_93727" data-name="Path 93727" d="M285.871,296.838a16.165,16.165,0,0,0-.488,6.377,15.768,15.768,0,0,0,4.539,9.286,16.047,16.047,0,0,0,2.157,1.806,15.834,15.834,0,0,0,9.107,2.857,16.128,16.128,0,0,0,2.809-.247,2.737,2.737,0,0,0,1.6-4.468l-5.1-6,5.956-5.956,6,5.1a2.737,2.737,0,0,0,4.468-1.6,16.124,16.124,0,0,0,.247-2.809,15.834,15.834,0,0,0-2.857-9.107,16.064,16.064,0,0,0-1.806-2.157,15.767,15.767,0,0,0-9.286-4.539,16.167,16.167,0,0,0-6.377.488l-12.193-12.193-10.967,10.967Z" transform="translate(-223.74 -223.74)" fill="#acacae"/>
      </g>
      <g id="Group_67099" data-name="Group 67099" transform="translate(0 0)">
        <g id="Group_67098" data-name="Group 67098" transform="translate(34.491)">
          <path id="Path_93728" data-name="Path 93728" d="M247.151,7,240.962.806a2.721,2.721,0,0,0-3.4-.374L224.783,8.561a2.75,2.75,0,0,0-1.214,1.772l-1.094,5.472-33.45,33.45,9.677,9.677,33.45-33.45,5.472-1.094a2.75,2.75,0,0,0,1.772-1.215L247.524,10.4A2.72,2.72,0,0,0,247.151,7Z" transform="translate(-189.024 0)" fill="#acacae"/>
        </g>
        <path id="Path_93729" data-name="Path 93729" d="M45.782,278.155,25.138,257.511a2.737,2.737,0,0,0-3.871,3.871l.645.645L4,279.936A13.685,13.685,0,0,0,23.356,299.29l17.909-17.909.645.645a2.737,2.737,0,1,0,3.871-3.871Zm-18.246,1.473L13.608,293.556a2.737,2.737,0,0,1-3.871-3.871l13.928-13.928a2.737,2.737,0,1,1,3.871,3.871Z" transform="translate(-0.001 -209.868)" fill="#acacae"/>
      </g>
    </g>
  </g>
</svg>
