<svg xmlns="http://www.w3.org/2000/svg" width="23.003" height="23.003" viewBox="0 0 23.003 23.003">
  <g id="social-media" transform="translate(0.026 0.033)">
    <g id="Group_66910" data-name="Group 66910" transform="translate(1.048 8.967)">
      <path id="Path_93690" data-name="Path 93690" d="M379.276,200.3a2.5,2.5,0,1,1-2.5,2.5A2.5,2.5,0,0,1,379.276,200.3Z" transform="translate(-360.92 -200.305)" fill="none" fill-rule="evenodd"/>
      <path id="Path_93692" data-name="Path 93692" d="M26.369,205.307a2.5,2.5,0,1,1,2.5-2.5A2.5,2.5,0,0,1,26.369,205.307Z" transform="translate(-23.869 -200.304)" fill="none" fill-rule="evenodd"/>
    </g>
    <path id="Path_93693" data-name="Path 93693" d="M19.4,13.964A2.495,2.495,0,1,1,21.9,11.469,2.5,2.5,0,0,1,19.4,13.964Zm-4.61,4.108a7.444,7.444,0,0,0,3.285-3.285,3.572,3.572,0,0,1,0-6.636,7.444,7.444,0,0,0-3.285-3.285,3.571,3.571,0,0,1-6.634,0A7.46,7.46,0,0,0,4.872,8.151a3.572,3.572,0,0,1,0,6.636,7.46,7.46,0,0,0,3.287,3.285,3.571,3.571,0,0,1,6.634,0Zm-3.317,3.82A2.495,2.495,0,1,1,13.971,19.4a2.5,2.5,0,0,1-2.495,2.495ZM1.052,11.469a2.5,2.5,0,1,1,2.5,2.5,2.5,2.5,0,0,1-2.5-2.5ZM11.476,1.046A2.495,2.495,0,1,1,8.982,3.54a2.5,2.5,0,0,1,2.495-2.495ZM19.4,7.9c-.083,0-.163,0-.244.009a8.536,8.536,0,0,0-4.12-4.118c.006-.081.011-.163.011-.246a3.573,3.573,0,1,0-7.147,0c0,.083,0,.164.011.246A8.536,8.536,0,0,0,3.793,7.9C3.713,7.9,3.63,7.9,3.547,7.9a3.573,3.573,0,1,0,0,7.146c.083,0,.165,0,.246-.009a8.535,8.535,0,0,0,4.12,4.118c-.006.081-.011.163-.011.246a3.573,3.573,0,1,0,7.147,0c0-.083,0-.164-.011-.246a8.535,8.535,0,0,0,4.12-4.118c.081.005.161.009.244.009a3.573,3.573,0,1,0,0-7.146Z" fill="#ff0935" fill-rule="evenodd"/>
  </g>
</svg>
