<svg id="crown_1_" data-name="crown (1)" xmlns="http://www.w3.org/2000/svg" width="14" height="14" viewBox="0 0 14 14">
  <path id="Path_93710" data-name="Path 93710" d="M7,0a7,7,0,1,0,7,7A7.006,7.006,0,0,0,7,0Z" transform="translate(0 0)" fill="#1eac8f" fill-rule="evenodd"/>
  <path id="Path_93711" data-name="Path 93711" d="M106.462,147.347v-2.524a.617.617,0,1,1,.889-.552.622.622,0,0,1-.057.262l1.444,1.561.891-1.783a.61.61,0,0,1-.145-.4.618.618,0,0,1,1.236,0,.625.625,0,0,1-.145.4l.891,1.783,1.447-1.561a.619.619,0,1,1,.837.29v2.527h-7.287Zm7.484.511h-7.689a.257.257,0,0,0-.257.257v1.1a.257.257,0,0,0,.257.257h7.692a.257.257,0,0,0,.257-.257v-1.1A.261.261,0,0,0,113.946,147.858Z" transform="translate(-103.102 -139.382)" fill="#fff"/>
</svg>
