<svg xmlns="http://www.w3.org/2000/svg" width="55" height="37" viewBox="0 0 55 37">
  <g id="Group_66119" data-name="Group 66119" transform="translate(-11117 -1480)">
    <rect id="Rectangle_23849" data-name="Rectangle 23849" width="55" height="37" rx="3" transform="translate(11117 1480)" fill="#1367f2"/>
    <rect id="Rectangle_23850" data-name="Rectangle 23850" width="25" height="21" rx="1" transform="translate(11119 1488)" fill="#fff"/>
    <rect id="Rectangle_23851" data-name="Rectangle 23851" width="24" height="21" rx="1" transform="translate(11146 1488)" fill="#fff"/>
    <g id="user_3_" data-name="user (3)" transform="translate(11153 1492)">
      <path id="Path_61818" data-name="Path 61818" d="M90.075,6.086a2.944,2.944,0,0,0,2.152-.892,2.944,2.944,0,0,0,.891-2.152A2.945,2.945,0,0,0,92.227.892a3.042,3.042,0,0,0-4.3,0,2.945,2.945,0,0,0-.892,2.152,2.944,2.944,0,0,0,.892,2.152A2.945,2.945,0,0,0,90.075,6.086Zm0,0" transform="translate(-84.884)" fill="#1367f2"/>
      <path id="Path_61819" data-name="Path 61819" d="M10.515,250.929a7.516,7.516,0,0,0-.1-.8,6.29,6.29,0,0,0-.2-.8,3.964,3.964,0,0,0-.33-.749,2.824,2.824,0,0,0-.5-.648,2.194,2.194,0,0,0-.715-.449,2.471,2.471,0,0,0-.912-.165.926.926,0,0,0-.495.21c-.148.1-.322.208-.515.332a2.953,2.953,0,0,1-.667.294,2.589,2.589,0,0,1-1.631,0,2.946,2.946,0,0,1-.666-.294c-.192-.123-.365-.234-.516-.332a.925.925,0,0,0-.494-.21,2.467,2.467,0,0,0-.912.165,2.192,2.192,0,0,0-.715.449,2.825,2.825,0,0,0-.5.648,3.971,3.971,0,0,0-.33.749,6.306,6.306,0,0,0-.2.8,7.492,7.492,0,0,0-.1.8c-.017.242-.025.493-.025.746a2.1,2.1,0,0,0,.623,1.587,2.243,2.243,0,0,0,1.606.586H8.312a2.242,2.242,0,0,0,1.606-.586,2.1,2.1,0,0,0,.623-1.587c0-.255-.009-.506-.026-.746Zm0,0" transform="translate(0 -241.213)" fill="#1367f2"/>
    </g>
    <g id="user_3_2" data-name="user (3)" transform="translate(11126.229 1492)">
      <path id="Path_61818-2" data-name="Path 61818" d="M90.075,6.086a2.944,2.944,0,0,0,2.152-.892,2.944,2.944,0,0,0,.891-2.152A2.945,2.945,0,0,0,92.227.892a3.042,3.042,0,0,0-4.3,0,2.945,2.945,0,0,0-.892,2.152,2.944,2.944,0,0,0,.892,2.152A2.945,2.945,0,0,0,90.075,6.086Zm0,0" transform="translate(-84.884)" fill="#1367f2"/>
      <path id="Path_61819-2" data-name="Path 61819" d="M10.515,250.929a7.516,7.516,0,0,0-.1-.8,6.29,6.29,0,0,0-.2-.8,3.964,3.964,0,0,0-.33-.749,2.824,2.824,0,0,0-.5-.648,2.194,2.194,0,0,0-.715-.449,2.471,2.471,0,0,0-.912-.165.926.926,0,0,0-.495.21c-.148.1-.322.208-.515.332a2.953,2.953,0,0,1-.667.294,2.589,2.589,0,0,1-1.631,0,2.946,2.946,0,0,1-.666-.294c-.192-.123-.365-.234-.516-.332a.925.925,0,0,0-.494-.21,2.467,2.467,0,0,0-.912.165,2.192,2.192,0,0,0-.715.449,2.825,2.825,0,0,0-.5.648,3.971,3.971,0,0,0-.33.749,6.306,6.306,0,0,0-.2.8,7.492,7.492,0,0,0-.1.8c-.017.242-.025.493-.025.746a2.1,2.1,0,0,0,.623,1.587,2.243,2.243,0,0,0,1.606.586H8.312a2.242,2.242,0,0,0,1.606-.586,2.1,2.1,0,0,0,.623-1.587c0-.255-.009-.506-.026-.746Zm0,0" transform="translate(0 -241.213)" fill="#1367f2"/>
    </g>
  </g>
</svg>
