
<svg xmlns="http://www.w3.org/2000/svg" width="519.759" height="267.85" viewBox="0 0 519.759 267.85">
  <g id="undraw_group_video_re_btu7" transform="translate(-5.318 -89.911)">
    <path id="Path_58726" data-name="Path 58726" d="M563.346,520.955H243.854a13.285,13.285,0,0,1-13.27-13.27V278.468a13.285,13.285,0,0,1,13.27-13.27H563.346a13.285,13.285,0,0,1,13.27,13.27V507.685A13.285,13.285,0,0,1,563.346,520.955ZM243.854,272.182a6.293,6.293,0,0,0-6.286,6.286V507.685a6.293,6.293,0,0,0,6.286,6.286H563.346a6.293,6.293,0,0,0,6.286-6.286V278.468a6.293,6.293,0,0,0-6.286-6.286Z" transform="translate(-225.266 -174.552)" fill="#e6e6e6"/>
    <path id="Path_58733" data-name="Path 58733" d="M564.534,519H245.042a10.139,10.139,0,0,1-10.127-10.127V279.656a10.139,10.139,0,0,1,10.127-10.127H564.534a10.139,10.139,0,0,1,10.127,10.127V508.873A10.139,10.139,0,0,1,564.534,519Z" transform="translate(-226.454 -175.74)" fill="#fff"/>
    <circle id="ab6171fa-7d69-4734-b81c-8dff60f9761b" cx="33.818" cy="33.818" r="33.818" transform="translate(142.952 168.207)" fill="#ffb8b8"/>
    <path id="bf427902-b9bf-4946-b5d7-5c1c7e04535e" d="M413.152,365.845c.256-3.883,2.824-7.857,10.983-9.934,0,0,14-17.906,33.032-8.516,0,0,9.225-1.587,16.066,7.984,0,0,6.782-4,9.643,3.09,0,0,7.954,14.462,5.026,29.213s-4.427,16.592-4.427,16.592,3.733-30.512-17.767-28.4-38.808-5.445-43.677,11.109c-4.043,13.745-3.534,20.884-3.534,20.884s-13.519-13.712-8.923-24.51C411.926,377.838,412.757,371.835,413.152,365.845Z" transform="translate(-274.106 -196.354)" fill="#2f2e41"/>
    <path id="Path_58734" data-name="Path 58734" d="M340.121,577.438H527.175c-1.25-14.268-2.067-24.884-2.067-28.474,0-15.833-12.956-33.111-12.956-33.111l-4.637-2.563-38.726-12.082-10.022-13.019a11.144,11.144,0,0,0-8.926-4.358l-31.659.237a11.178,11.178,0,0,0-7.508,2.975l-19.6,18.187-28.753,13.731-.049-.049-.3.223-4.267,3.073-2.745,1.983s-7.2,8.639-12.955,34.55C341.134,562.639,340.527,569.162,340.121,577.438Z" transform="translate(-255.315 -234.528)" fill="#ff0935"/>
    <path id="Path_58739" data-name="Path 58739" d="M883.218,595.652H776.6a13.285,13.285,0,0,1-13.27-13.27V509.36a13.285,13.285,0,0,1,13.27-13.27H883.218a13.285,13.285,0,0,1,13.27,13.27v73.023A13.285,13.285,0,0,1,883.218,595.652ZM776.6,503.074a6.293,6.293,0,0,0-6.286,6.286v73.023a6.293,6.293,0,0,0,6.286,6.286H883.218a6.293,6.293,0,0,0,6.286-6.286V509.36a6.293,6.293,0,0,0-6.286-6.286Z" transform="translate(-371.411 -237.891)" fill="#e6e6e6"/>
    <path id="Path_58740" data-name="Path 58740" d="M884.406,593.7H777.79a10.139,10.139,0,0,1-10.127-10.127V510.547A10.139,10.139,0,0,1,777.79,500.42H884.406a10.138,10.138,0,0,1,10.127,10.127V583.57A10.139,10.139,0,0,1,884.406,593.7Z" transform="translate(-372.599 -239.079)" fill="#fff"/>
    <path id="Path_58741" data-name="Path 58741" d="M857.7,528.849c.617-3.845-1.128-6.676-5.751-8.274-4.6-3.991-11.4-4.948-15.478,1.444a6.4,6.4,0,0,0-6.749,5.735c-3.748,4.356.414,20.345,1.647,26.437l6.579-.065L851.08,554l6.62-.065,2.523-14.285C861.756,535.493,861.131,531.851,857.7,528.849Z" transform="translate(-389.203 -243.737)" fill="#e6e6e6"/>
    <path id="Path_58742" data-name="Path 58742" d="M872.012,605.347a31.7,31.7,0,0,1,5.435-2.774L858.74,580.362,846.378,577.2q-.152-.085-.3-.175l-20.855.8-.089-.089-13.15,6.433-18.707,21.627a31.479,31.479,0,0,1,5.3,2.677l-1.931,7.341h13.385l3.561-5.176h.178c0-.089.008-.179.008-.268l2.5-3.634c.057,2.937-.024,5.962-.227,9.077h41.631c-.065-2.588-.081-5.159-.081-7.715l4.656,6.757c.349-.511.722-.99,1.1-1.476l.917,2.434h10.659l-2.555-9.718a2.275,2.275,0,0,0-.357-.747Z" transform="translate(-379.625 -260.093)" fill="#e6e6e6"/>
    <path id="Path_58743" data-name="Path 58743" d="M883.218,363.747H776.6a13.285,13.285,0,0,1-13.27-13.27V277.455a13.285,13.285,0,0,1,13.27-13.27H883.218a13.285,13.285,0,0,1,13.27,13.27v73.023A13.285,13.285,0,0,1,883.218,363.747ZM776.6,271.17a6.293,6.293,0,0,0-6.286,6.286v73.022a6.293,6.293,0,0,0,6.286,6.286H883.218a6.293,6.293,0,0,0,6.286-6.286V277.455a6.293,6.293,0,0,0-6.286-6.286Z" transform="translate(-371.411 -174.274)" fill="#e6e6e6"/>
    <path id="Path_58744" data-name="Path 58744" d="M884.406,361.792H777.79a10.139,10.139,0,0,1-10.127-10.127V278.643a10.139,10.139,0,0,1,10.127-10.127H884.406a10.139,10.139,0,0,1,10.127,10.127v73.023A10.139,10.139,0,0,1,884.406,361.792Z" transform="translate(-372.599 -175.462)" fill="#fff"/>
    <path id="Path_58745" data-name="Path 58745" d="M835.89,309.183a14.03,14.03,0,0,0,27.44,2.523c.455-.473,5.49-5.854,3.667-10.135a22.151,22.151,0,0,1-1.484-7.27c-.106-1.612-1.172-3.261-4.559-4.123,0,0-5.812-7.432-13.71-3.534a7.153,7.153,0,0,0-6.668,3.314s-2.815-1.66-4,1.282c0,0-3.3,6-2.086,12.124A52.745,52.745,0,0,0,835.89,309.183Z" transform="translate(-390.857 -180.125)" fill="#e6e6e6"/>
    <path id="Path_58746" data-name="Path 58746" d="M878.235,376.361c-2.388-10.754-5.377-14.34-5.377-14.34l-1.139-.823-1.771-1.275-.125-.093-.02.02-11.934-5.7-8.136-7.548a4.64,4.64,0,0,0-3.116-1.235l-13.139-.1a4.625,4.625,0,0,0-3.7,1.809l-4.16,5.4L809.541,357.5l-1.925,1.064s-5.377,7.171-5.377,13.743c0,1.49-.339,5.9-.858,11.818h77.634A52.953,52.953,0,0,0,878.235,376.361Z" transform="translate(-381.849 -196.518)" fill="#e6e6e6"/>
    <path id="Path_58747" data-name="Path 58747" d="M777.579,488.071H638.189a17.369,17.369,0,0,1-17.349-17.349v-95.47A17.369,17.369,0,0,1,638.189,357.9h139.39a17.369,17.369,0,0,1,17.349,17.349v95.47a17.369,17.369,0,0,1-17.349,17.349ZM638.189,367.034a8.227,8.227,0,0,0-8.218,8.218v95.47a8.227,8.227,0,0,0,8.218,8.218h139.39a8.227,8.227,0,0,0,8.218-8.218v-95.47a8.227,8.227,0,0,0-8.218-8.218Z" transform="translate(-332.322 -199.983)" fill="#e6e6e6"/>
    <path id="Path_58748" data-name="Path 58748" d="M779.13,363.564H639.742A13.262,13.262,0,0,0,626.5,376.808v95.47a13.255,13.255,0,0,0,13.244,13.236H779.13a13.255,13.255,0,0,0,13.244-13.236v-95.47a13.262,13.262,0,0,0-13.244-13.244Z" transform="translate(-333.874 -201.536)" fill="#fff"/>
    <circle id="Ellipse_1333" data-name="Ellipse 1333" cx="10.885" cy="10.885" r="10.885" transform="translate(389.198 180.168)" fill="#2f2e41"/>
    <circle id="Ellipse_1334" data-name="Ellipse 1334" cx="27.576" cy="27.576" r="27.576" transform="translate(350.145 183.777)" fill="#2f2e41"/>
    <circle id="Ellipse_1335" data-name="Ellipse 1335" cx="22.408" cy="22.408" r="22.408" transform="translate(350.522 195.788)" fill="#9e616a"/>
    <path id="Path_58749" data-name="Path 58749" d="M719.094,401.992a25.668,25.668,0,0,1,33.224,30.347c-11.768.317-23.954-.148-34.889-7.065l-1.277-7.495-3.185,6.506c-3.949.674-7.857,1.117-10.874-2.436A26.209,26.209,0,0,1,719.094,401.992Z" transform="translate(-354.611 -211.702)" fill="#2f2e41"/>
    <path id="Path_58750" data-name="Path 58750" d="M787.805,366.688c8.1-1.733,16.964,1.9,21.906,8.544a25.183,25.183,0,0,1,2.975,23.622c-3.021,7.889-9.544,13.809-15.642,19.654S784.8,430.88,782.974,439.126a22.98,22.98,0,0,0,17.4,27.4c-7.638,1.449-15.594,2.889-23.1.845s-14.362-8.685-13.931-16.448c.31-5.593,4.128-10.265,7.449-14.776a113.472,113.472,0,0,0,13.414-23.758c1.67-4.023,3.13-8.319,2.661-12.65a15.178,15.178,0,0,0-12.553-13l-2-2.811C772.978,375.677,779.708,368.421,787.805,366.688Z" transform="translate(-371.409 -202.275)" fill="#2f2e41"/>
    <path id="Path_58751" data-name="Path 58751" d="M770.135,517.49c-1.451-14.789-9.652-14.209-9.652-14.209l-21.654-4.231L729.345,483.3l-23.81-.929-8.476,14.862-17.416,2.177-.015.247c-1.727.131-7.953,1.495-9.2,14.2-.116,1.168-.276,2.6-.479,4.245H770.2C770.179,517.889,770.157,517.685,770.135,517.49Z" transform="translate(-345.794 -234.129)" fill="#2f2e41"/>
  </g>
</svg>
