<svg xmlns="http://www.w3.org/2000/svg" width="55" height="37" viewBox="0 0 55 37">
  <g id="Group_66308" data-name="Group 66308" transform="translate(-11117 -1480)">
    <rect id="Rectangle_23849" data-name="Rectangle 23849" width="55" height="37" rx="3" transform="translate(11117 1480)" fill="#acacae"/>
    <g id="Group_66254" data-name="Group 66254" transform="translate(11137.125 1483)">
      <g id="Group_66257" data-name="Group 66257">
        <rect id="Rectangle_23851" data-name="Rectangle 23851" width="16" height="15" rx="1" transform="translate(-0.125)" fill="#cdcdce"/>
        <g id="user_3_" data-name="user (3)" transform="translate(3.875 3)">
          <path id="Path_61818" data-name="Path 61818" d="M89.14,4.216A2.039,2.039,0,0,0,90.63,3.6a2.039,2.039,0,0,0,.617-1.49A2.04,2.04,0,0,0,90.63.618a2.107,2.107,0,0,0-2.981,0,2.04,2.04,0,0,0-.618,1.49,2.039,2.039,0,0,0,.618,1.49A2.04,2.04,0,0,0,89.14,4.216Zm0,0" transform="translate(-85.544 0)" fill="#fff"/>
          <path id="Path_61819" data-name="Path 61819" d="M7.283,249.818a5.207,5.207,0,0,0-.071-.553,4.356,4.356,0,0,0-.136-.556,2.743,2.743,0,0,0-.229-.518,1.956,1.956,0,0,0-.345-.449,1.519,1.519,0,0,0-.5-.311,1.711,1.711,0,0,0-.632-.114.642.642,0,0,0-.343.145l-.357.23a2.044,2.044,0,0,1-.462.2,1.793,1.793,0,0,1-1.13,0,2.039,2.039,0,0,1-.461-.2l-.357-.23a.641.641,0,0,0-.342-.145,1.709,1.709,0,0,0-.632.115,1.518,1.518,0,0,0-.5.311,1.956,1.956,0,0,0-.345.449,2.748,2.748,0,0,0-.229.519,4.368,4.368,0,0,0-.136.556,5.187,5.187,0,0,0-.071.553c-.012.167-.017.341-.017.517a1.453,1.453,0,0,0,.432,1.1,1.554,1.554,0,0,0,1.112.406H5.757a1.553,1.553,0,0,0,1.112-.406,1.452,1.452,0,0,0,.432-1.1c0-.176-.006-.35-.018-.517Zm0,0" transform="translate(0 -243.089)" fill="#fff"/>
        </g>
      </g>
    </g>
    <g id="Group_66260" data-name="Group 66260" transform="translate(11137.125 1499)">
      <g id="Group_66257-2" data-name="Group 66257">
        <rect id="Rectangle_23851-2" data-name="Rectangle 23851" width="16" height="15" rx="1" transform="translate(-0.125)" fill="#cdcdce"/>
        <g id="user_3_2" data-name="user (3)" transform="translate(3.875 3)">
          <path id="Path_61818-2" data-name="Path 61818" d="M89.14,4.216A2.039,2.039,0,0,0,90.63,3.6a2.039,2.039,0,0,0,.617-1.49A2.04,2.04,0,0,0,90.63.618a2.107,2.107,0,0,0-2.981,0,2.04,2.04,0,0,0-.618,1.49,2.039,2.039,0,0,0,.618,1.49A2.04,2.04,0,0,0,89.14,4.216Zm0,0" transform="translate(-85.544 0)" fill="#fff"/>
          <path id="Path_61819-2" data-name="Path 61819" d="M7.283,249.818a5.207,5.207,0,0,0-.071-.553,4.356,4.356,0,0,0-.136-.556,2.743,2.743,0,0,0-.229-.518,1.956,1.956,0,0,0-.345-.449,1.519,1.519,0,0,0-.5-.311,1.711,1.711,0,0,0-.632-.114.642.642,0,0,0-.343.145l-.357.23a2.044,2.044,0,0,1-.462.2,1.793,1.793,0,0,1-1.13,0,2.039,2.039,0,0,1-.461-.2l-.357-.23a.641.641,0,0,0-.342-.145,1.709,1.709,0,0,0-.632.115,1.518,1.518,0,0,0-.5.311,1.956,1.956,0,0,0-.345.449,2.748,2.748,0,0,0-.229.519,4.368,4.368,0,0,0-.136.556,5.187,5.187,0,0,0-.071.553c-.012.167-.017.341-.017.517a1.453,1.453,0,0,0,.432,1.1,1.554,1.554,0,0,0,1.112.406H5.757a1.553,1.553,0,0,0,1.112-.406,1.452,1.452,0,0,0,.432-1.1c0-.176-.006-.35-.018-.517Zm0,0" transform="translate(0 -243.089)" fill="#fff"/>
        </g>
      </g>
    </g>
    <g id="Group_66255" data-name="Group 66255" transform="translate(11154.042 1483)">
      <g id="Group_66258" data-name="Group 66258">
        <rect id="Rectangle_23851-3" data-name="Rectangle 23851" width="16" height="15" rx="1" transform="translate(-0.042)" fill="#cdcdce"/>
        <g id="user_3_3" data-name="user (3)" transform="translate(3.958 3)">
          <path id="Path_61818-3" data-name="Path 61818" d="M89.14,4.216A2.039,2.039,0,0,0,90.63,3.6a2.039,2.039,0,0,0,.617-1.49A2.04,2.04,0,0,0,90.63.618a2.107,2.107,0,0,0-2.981,0,2.04,2.04,0,0,0-.618,1.49,2.039,2.039,0,0,0,.618,1.49A2.04,2.04,0,0,0,89.14,4.216Zm0,0" transform="translate(-85.544 0)" fill="#fff"/>
          <path id="Path_61819-3" data-name="Path 61819" d="M7.283,249.818a5.207,5.207,0,0,0-.071-.553,4.356,4.356,0,0,0-.136-.556,2.743,2.743,0,0,0-.229-.518,1.956,1.956,0,0,0-.345-.449,1.519,1.519,0,0,0-.5-.311,1.711,1.711,0,0,0-.632-.114.642.642,0,0,0-.343.145l-.357.23a2.044,2.044,0,0,1-.462.2,1.793,1.793,0,0,1-1.13,0,2.039,2.039,0,0,1-.461-.2l-.357-.23a.641.641,0,0,0-.342-.145,1.709,1.709,0,0,0-.632.115,1.518,1.518,0,0,0-.5.311,1.956,1.956,0,0,0-.345.449,2.748,2.748,0,0,0-.229.519,4.368,4.368,0,0,0-.136.556,5.187,5.187,0,0,0-.071.553c-.012.167-.017.341-.017.517a1.453,1.453,0,0,0,.432,1.1,1.554,1.554,0,0,0,1.112.406H5.757a1.553,1.553,0,0,0,1.112-.406,1.452,1.452,0,0,0,.432-1.1c0-.176-.006-.35-.018-.517Zm0,0" transform="translate(0 -243.089)" fill="#fff"/>
        </g>
      </g>
    </g>
    <g id="Group_66261" data-name="Group 66261" transform="translate(11154.042 1499)">
      <g id="Group_66258-2" data-name="Group 66258">
        <rect id="Rectangle_23851-4" data-name="Rectangle 23851" width="16" height="15" rx="1" transform="translate(-0.042)" fill="#cdcdce"/>
        <g id="user_3_4" data-name="user (3)" transform="translate(3.958 3)">
          <path id="Path_61818-4" data-name="Path 61818" d="M89.14,4.216A2.039,2.039,0,0,0,90.63,3.6a2.039,2.039,0,0,0,.617-1.49A2.04,2.04,0,0,0,90.63.618a2.107,2.107,0,0,0-2.981,0,2.04,2.04,0,0,0-.618,1.49,2.039,2.039,0,0,0,.618,1.49A2.04,2.04,0,0,0,89.14,4.216Zm0,0" transform="translate(-85.544 0)" fill="#fff"/>
          <path id="Path_61819-4" data-name="Path 61819" d="M7.283,249.818a5.207,5.207,0,0,0-.071-.553,4.356,4.356,0,0,0-.136-.556,2.743,2.743,0,0,0-.229-.518,1.956,1.956,0,0,0-.345-.449,1.519,1.519,0,0,0-.5-.311,1.711,1.711,0,0,0-.632-.114.642.642,0,0,0-.343.145l-.357.23a2.044,2.044,0,0,1-.462.2,1.793,1.793,0,0,1-1.13,0,2.039,2.039,0,0,1-.461-.2l-.357-.23a.641.641,0,0,0-.342-.145,1.709,1.709,0,0,0-.632.115,1.518,1.518,0,0,0-.5.311,1.956,1.956,0,0,0-.345.449,2.748,2.748,0,0,0-.229.519,4.368,4.368,0,0,0-.136.556,5.187,5.187,0,0,0-.071.553c-.012.167-.017.341-.017.517a1.453,1.453,0,0,0,.432,1.1,1.554,1.554,0,0,0,1.112.406H5.757a1.553,1.553,0,0,0,1.112-.406,1.452,1.452,0,0,0,.432-1.1c0-.176-.006-.35-.018-.517Zm0,0" transform="translate(0 -243.089)" fill="#fff"/>
        </g>
      </g>
    </g>
    <g id="Group_66256" data-name="Group 66256" transform="translate(0 -1)">
      <rect id="Rectangle_23850" data-name="Rectangle 23850" width="17" height="15" rx="1" transform="translate(11119 1484)" fill="#cdcdce"/>
      <g id="user_3_5" data-name="user (3)" transform="translate(11124 1486.998)">
        <path id="Path_61818-5" data-name="Path 61818" d="M89.072,4.081a1.974,1.974,0,0,0,1.443-.6,1.974,1.974,0,0,0,.6-1.443A1.974,1.974,0,0,0,90.515.6a2.04,2.04,0,0,0-2.885,0,1.974,1.974,0,0,0-.6,1.443,1.974,1.974,0,0,0,.6,1.443A1.975,1.975,0,0,0,89.072,4.081Zm0,0" transform="translate(-85.592 0.001)" fill="#fff"/>
        <path id="Path_61819-5" data-name="Path 61819" d="M7.05,249.738a5.038,5.038,0,0,0-.069-.535,4.217,4.217,0,0,0-.132-.538,2.659,2.659,0,0,0-.221-.5,1.894,1.894,0,0,0-.334-.435,1.471,1.471,0,0,0-.479-.3,1.657,1.657,0,0,0-.612-.111.621.621,0,0,0-.332.141l-.345.223a1.979,1.979,0,0,1-.447.2,1.736,1.736,0,0,1-1.093,0,1.976,1.976,0,0,1-.447-.2l-.346-.223a.62.62,0,0,0-.331-.141,1.655,1.655,0,0,0-.612.111,1.47,1.47,0,0,0-.479.3,1.9,1.9,0,0,0-.333.435,2.663,2.663,0,0,0-.221.5,4.226,4.226,0,0,0-.132.538,5.022,5.022,0,0,0-.069.535c-.011.162-.017.33-.017.5A1.407,1.407,0,0,0,.418,251.3a1.5,1.5,0,0,0,1.077.393H5.573A1.5,1.5,0,0,0,6.65,251.3a1.406,1.406,0,0,0,.418-1.064c0-.171-.006-.339-.017-.5Zm0,0" transform="translate(0 -243.223)" fill="#fff"/>
      </g>
    </g>
    <g id="Group_66259" data-name="Group 66259" transform="translate(0 15)">
      <rect id="Rectangle_23850-2" data-name="Rectangle 23850" width="17" height="15" rx="1" transform="translate(11119 1484)" fill="#cdcdce"/>
      <g id="user_3_6" data-name="user (3)" transform="translate(11124 1486.998)">
        <path id="Path_61818-6" data-name="Path 61818" d="M89.072,4.081a1.974,1.974,0,0,0,1.443-.6,1.974,1.974,0,0,0,.6-1.443A1.974,1.974,0,0,0,90.515.6a2.04,2.04,0,0,0-2.885,0,1.974,1.974,0,0,0-.6,1.443,1.974,1.974,0,0,0,.6,1.443A1.975,1.975,0,0,0,89.072,4.081Zm0,0" transform="translate(-85.592 0.001)" fill="#fff"/>
        <path id="Path_61819-6" data-name="Path 61819" d="M7.05,249.738a5.038,5.038,0,0,0-.069-.535,4.217,4.217,0,0,0-.132-.538,2.659,2.659,0,0,0-.221-.5,1.894,1.894,0,0,0-.334-.435,1.471,1.471,0,0,0-.479-.3,1.657,1.657,0,0,0-.612-.111.621.621,0,0,0-.332.141l-.345.223a1.979,1.979,0,0,1-.447.2,1.736,1.736,0,0,1-1.093,0,1.976,1.976,0,0,1-.447-.2l-.346-.223a.62.62,0,0,0-.331-.141,1.655,1.655,0,0,0-.612.111,1.47,1.47,0,0,0-.479.3,1.9,1.9,0,0,0-.333.435,2.663,2.663,0,0,0-.221.5,4.226,4.226,0,0,0-.132.538,5.022,5.022,0,0,0-.069.535c-.011.162-.017.33-.017.5A1.407,1.407,0,0,0,.418,251.3a1.5,1.5,0,0,0,1.077.393H5.573A1.5,1.5,0,0,0,6.65,251.3a1.406,1.406,0,0,0,.418-1.064c0-.171-.006-.339-.017-.5Zm0,0" transform="translate(0 -243.223)" fill="#fff"/>
      </g>
    </g>
  </g>
</svg>
