<svg xmlns="http://www.w3.org/2000/svg" width="19" height="19" viewBox="0 0 19 19">
  <g id="Group_67111" data-name="Group 67111" transform="translate(5.5 -10.5)">
    <g id="youtube" transform="translate(-5 11)">
      <g id="Color">
        <g id="_02.YouTube" data-name="02.YouTube">
          <circle id="Background" cx="9" cy="9" r="9" fill="#fc0d72" stroke="#fff" stroke-width="1"/>
          <g id="instagram-svgrepo-com" transform="translate(3.123 3.123)">
            <path id="Path_93730" data-name="Path 93730" d="M8.66,11.321A2.66,2.66,0,1,0,6,8.66,2.66,2.66,0,0,0,8.66,11.321Zm0-.887A1.774,1.774,0,1,0,6.887,8.66,1.774,1.774,0,0,0,8.66,10.434Z" transform="translate(-2.783 -2.783)" fill="#f6f6f6" fill-rule="evenodd"/>
            <path id="Path_93731" data-name="Path 93731" d="M17.443,5a.443.443,0,1,0,.443.443A.443.443,0,0,0,17.443,5Z" transform="translate(-8.906 -2.226)" fill="#f6f6f6"/>
            <path id="Path_93732" data-name="Path 93732" d="M1.29,2.453A6.609,6.609,0,0,0,1,5.256V6.5a6.609,6.609,0,0,0,.29,2.8,2.66,2.66,0,0,0,1.163,1.163,6.609,6.609,0,0,0,2.8.29H6.5a6.609,6.609,0,0,0,2.8-.29A2.66,2.66,0,0,0,10.464,9.3a6.609,6.609,0,0,0,.29-2.8V5.256a6.609,6.609,0,0,0-.29-2.8A2.66,2.66,0,0,0,9.3,1.29,6.609,6.609,0,0,0,6.5,1H5.256a6.609,6.609,0,0,0-2.8.29A2.66,2.66,0,0,0,1.29,2.453ZM6.5,1.887H5.256c-.76,0-1.276,0-1.675.033a1.914,1.914,0,0,0-.726.16,1.774,1.774,0,0,0-.775.775,1.914,1.914,0,0,0-.16.726c-.033.4-.033.915-.033,1.675V6.5c0,.76,0,1.276.033,1.675a1.914,1.914,0,0,0,.16.726,1.774,1.774,0,0,0,.775.775,1.913,1.913,0,0,0,.726.16c.4.033.915.033,1.675.033H6.5c.76,0,1.276,0,1.675-.033a1.913,1.913,0,0,0,.726-.16A1.774,1.774,0,0,0,9.674,8.9a1.913,1.913,0,0,0,.16-.726c.033-.4.033-.915.033-1.675V5.256c0-.76,0-1.276-.033-1.675a1.913,1.913,0,0,0-.16-.726A1.774,1.774,0,0,0,8.9,2.08a1.914,1.914,0,0,0-.726-.16C7.774,1.887,7.258,1.887,6.5,1.887Z" fill="#f6f6f6" fill-rule="evenodd"/>
          </g>
        </g>
      </g>
    </g>
  </g>
</svg>
