<svg xmlns="http://www.w3.org/2000/svg" width="81" height="81" viewBox="0 0 81 81">
  <g id="Group_57287" data-name="Group 57287" transform="translate(-1015 -815)">
    <circle id="Ellipse_1341" data-name="Ellipse 1341" cx="40.5" cy="40.5" r="40.5" transform="translate(1015 815)" fill="#e5eefe"/>
    <g id="user_2_" data-name="user (2)" transform="translate(1039 836)">
      <path id="Path_58755" data-name="Path 58755" d="M96.576,19.088a9.235,9.235,0,0,0,6.748-2.8,9.234,9.234,0,0,0,2.8-6.748,9.236,9.236,0,0,0-2.8-6.748,9.542,9.542,0,0,0-13.5,0,9.235,9.235,0,0,0-2.8,6.748,9.235,9.235,0,0,0,2.8,6.748A9.237,9.237,0,0,0,96.576,19.088Zm0,0" transform="translate(-80.296 0)" fill="#a8c7ff"/>
      <path id="Path_58756" data-name="Path 58756" d="M32.98,258.646a23.574,23.574,0,0,0-.321-2.5,19.725,19.725,0,0,0-.616-2.517,12.433,12.433,0,0,0-1.035-2.348,8.859,8.859,0,0,0-1.561-2.034,6.882,6.882,0,0,0-2.242-1.409,7.747,7.747,0,0,0-2.862-.518,2.9,2.9,0,0,0-1.551.658c-.465.3-1.009.654-1.616,1.042a9.26,9.26,0,0,1-2.091.921,8.119,8.119,0,0,1-5.115,0,9.238,9.238,0,0,1-2.089-.921c-.6-.384-1.145-.735-1.617-1.042a2.9,2.9,0,0,0-1.551-.658,7.737,7.737,0,0,0-2.861.518,6.875,6.875,0,0,0-2.242,1.409,8.861,8.861,0,0,0-1.56,2.033,12.457,12.457,0,0,0-1.035,2.348A19.774,19.774,0,0,0,.4,256.142a23.493,23.493,0,0,0-.321,2.5C.026,259.4,0,260.192,0,260.987a6.58,6.58,0,0,0,1.954,4.978A7.035,7.035,0,0,0,6.99,267.8H26.07a7.033,7.033,0,0,0,5.035-1.837,6.577,6.577,0,0,0,1.955-4.978c0-.8-.027-1.586-.08-2.341Zm0,0" transform="translate(0 -228.175)" fill="#a8c7ff"/>
    </g>
  </g>
</svg>
