<svg version="1.0" xmlns="http://www.w3.org/2000/svg"
 width="1280pt" height="1280pt" viewBox="0 0 1280 1280"
 preserveAspectRatio="xMidYMid meet">
<g transform="translate(0,1280) scale(0.100000,-0.100000)"
fill="#fff" stroke="none">
<path d="M5980 11760 c-679 -41 -1110 -186 -1361 -458 -145 -158 -209 -323
-209 -547 0 -176 31 -316 114 -512 157 -371 559 -889 1015 -1309 83 -76 149
-144 147 -150 -2 -6 -43 -65 -91 -130 -48 -65 -91 -126 -95 -134 -5 -11 76
-131 287 -420 l295 -405 -5 -50 c-2 -27 -194 -1288 -427 -2801 l-422 -2751
551 -731 c304 -403 554 -732 556 -732 2 0 252 329 556 732 l552 732 -427 2776
c-234 1526 -426 2787 -426 2802 0 20 80 137 286 420 158 216 291 398 295 404
6 8 -13 43 -55 100 -36 49 -81 113 -102 142 l-37 53 99 91 c354 323 711 737
905 1050 366 590 374 1087 23 1418 -230 217 -581 340 -1124 395 -181 18 -702
27 -900 15z m875 -475 c442 -47 723 -144 859 -296 114 -127 115 -318 3 -576
-72 -167 -240 -422 -416 -633 -191 -228 -566 -604 -598 -598 -8 2 -92 108
-187 237 -94 129 -175 236 -181 237 -5 2 -88 -105 -183 -237 -96 -131 -180
-239 -188 -239 -36 0 -412 380 -599 605 -227 272 -387 533 -461 750 -24 70
-28 96 -28 205 -1 121 0 127 29 179 117 212 493 344 1085 381 190 12 698 3
865 -15z"/>
</g>
</svg>
