<svg xmlns="http://www.w3.org/2000/svg" width="128" height="128" viewBox="0 0 128 128">
  <g id="Group_626" data-name="Group 626" transform="translate(-112 -98)">
    <g id="Rectangle_7374" data-name="Rectangle 7374" transform="translate(112 98)" fill="#fff" stroke="#52b0d9" stroke-width="1">
      <rect width="128" height="128" rx="4" stroke="none"/>
      <rect x="0.5" y="0.5" width="127" height="127" rx="3.5" fill="none"/>
    </g>
    <path id="Forma_1" data-name="Forma 1" d="M64.008,19.144A21.169,21.169,0,1,1,42.842,40.314,21.17,21.17,0,0,1,64.008,19.144Zm-.014,92.13A46.968,46.968,0,0,1,33.408,100a9.018,9.018,0,0,1-3.165-6.86A21.348,21.348,0,0,1,51.694,71.795H76.329A21.319,21.319,0,0,1,97.748,93.136a9,9,0,0,1-3.165,6.857A46.952,46.952,0,0,1,63.994,111.274Z" transform="translate(111.998 97.998)" fill="#1c97cf"/>
  </g>
</svg>
