<svg xmlns="http://www.w3.org/2000/svg" width="11.505" height="15.341" viewBox="0 0 11.505 15.341"><g transform="translate(-71.059)"><g transform="translate(71.059)"><path d="M163.238,7.67a3.62,3.62,0,0,0,3.356-3.835,3.386,3.386,0,1,0-6.712,0A3.62,3.62,0,0,0,163.238,7.67Z" transform="translate(-157.485 0)"/><path d="M82.564,322.645a2.876,2.876,0,0,0-2.876-2.876h-2.2l.215.2a.255.255,0,0,1,0,.38l-.459.427a.414.414,0,0,0-.107.426l.886,2.142a.538.538,0,0,1-.051.455l-1.011,1.489a.167.167,0,0,1-.3,0L75.652,323.8a.538.538,0,0,1-.051-.455l.886-2.142a.414.414,0,0,0-.107-.426l-.459-.427a.255.255,0,0,1,0-.38l.215-.2h-2.2a2.876,2.876,0,0,0-2.876,2.876v2.876a.958.958,0,0,0,.959.959h9.588a.958.958,0,0,0,.959-.959v-2.876Z" transform="translate(-71.059 -311.14)"/></g></g></svg>