<svg xmlns="http://www.w3.org/2000/svg" width="80" height="80" viewBox="0 0 80 80">
  <g id="MirrorFly_Docs" data-name="MirrorFly Docs" transform="translate(-1716 -287)">
    <g id="Group_32909" data-name="Group 32909" transform="translate(1716 287)">
      <g id="Ellipse_32" data-name="Ellipse 32" fill="#e0effa" stroke="#3b9dda" stroke-width="1">
        <circle cx="40" cy="40" r="40" stroke="none"/>
        <circle cx="40" cy="40" r="39.5" fill="none"/>
      </g>
      <g id="Group_24" data-name="Group 24" transform="translate(24 24)">
        <rect id="Rectangle_17" data-name="Rectangle 17" width="32" height="32" fill="none"/>
        <g id="Group_23" data-name="Group 23" transform="translate(4.483 2.443)">
          <path id="Path_66" data-name="Path 66" d="M675.47,223.762h-9.655a5.544,5.544,0,0,0-5.564,5.412V244.72a5.556,5.556,0,0,0,5.43,5.676c.045,0,.089,0,.133,0h11.594a5.64,5.64,0,0,0,5.412-5.676v-13.3Z" transform="translate(-660.25 -223.745)" fill="none" stroke="#171717" stroke-linecap="round" stroke-linejoin="round" stroke-width="1.7"/>
          <path id="Path_67" data-name="Path 67" d="M670.475,223.75v4.222a3.736,3.736,0,0,0,3.727,3.737h4" transform="translate(-655.637 -223.75)" fill="none" stroke="#171717" stroke-linecap="round" stroke-linejoin="round" stroke-width="1.7"/>
          <path id="Path_68" data-name="Path 68" d="M672.725,236.359h-7.837" transform="translate(-658.157 -218.061)" fill="none" stroke="#171717" stroke-linecap="round" stroke-linejoin="round" stroke-width="1.7"/>
          <path id="Path_69" data-name="Path 69" d="M669.757,232.606h-4.87" transform="translate(-658.158 -219.754)" fill="none" stroke="#171717" stroke-linecap="round" stroke-linejoin="round" stroke-width="1.7"/>
        </g>
      </g>
    </g>
  </g>
</svg>
