<svg id="Download_SDK_ic" data-name="Download SDK_ic" xmlns="http://www.w3.org/2000/svg" width="16.394" height="14.372" viewBox="0 0 16.394 14.372">
  <path id="Path_74" data-name="Path 74" d="M78.007,122.752v-7.726l-6.089-2.111-6.089,2.111v7.726l6.089,1.931Z" transform="translate(-63.721 -110.311)" fill="#fd982c"/>
  <path id="Path_75" data-name="Path 75" d="M262.078,122.752v-7.726l-6.089-2.111v11.768Z" transform="translate(-247.792 -110.311)" fill="#fa502e"/>
  <path id="Path_76" data-name="Path 76" d="M78.007,115.026l-6.089-2.111-6.089,2.111,6.089,2.142Z" transform="translate(-63.721 -110.311)" fill="#fff2b4"/>
  <path id="Path_77" data-name="Path 77" d="M262.078,115.026l-6.089-2.111v4.253Z" transform="translate(-247.792 -110.311)" fill="#ffdf8e"/>
  <g id="Group_214" data-name="Group 214" transform="translate(0 4.715)">
    <path id="Path_78" data-name="Path 78" d="M2.108,178.826,0,181.32l6.2,2.254L8.2,180.968Z" transform="translate(0 -178.826)" fill="#fabe3d"/>
    <path id="Path_79" data-name="Path 79" d="M262.078,178.826l2.109,2.494-6.2,2.254-1.994-2.606Z" transform="translate(-247.792 -178.826)" fill="#fabe3d"/>
  </g>
  <path id="Path_80" data-name="Path 80" d="M262.078,178.826l2.109,2.494-6.2,2.254-1.994-2.606Z" transform="translate(-247.792 -174.111)" fill="#fd982c"/>
  <path id="Path_81" data-name="Path 81" d="M2.108,36.294,0,33.833l6.2-2.254,1.993,2.6Z" transform="translate(0 -31.579)" fill="#fdda50"/>
  <path id="Path_82" data-name="Path 82" d="M262.078,36.294l2.109-2.46-6.2-2.254-1.994,2.6Z" transform="translate(-247.792 -31.579)" fill="#fabe3d"/>
</svg>
