<svg xmlns="http://www.w3.org/2000/svg" width="22" height="22" viewBox="0 0 22 22">
  <path id="Forma_1_copy_4" data-name="Forma 1 copy 4" d="M768.782,2275.958a11,11,0,1,0,0,15.563A11.017,11.017,0,0,0,768.782,2275.958Zm-3.442,12.121a.846.846,0,0,1-1.2,0L761,2284.937l-3.292,3.292a.846.846,0,0,1-1.2-1.2l3.292-3.292-3.143-3.143a.847.847,0,0,1,1.2-1.2l3.143,3.143,2.993-2.992a.846.846,0,0,1,1.2,1.2l-2.993,2.993,3.143,3.142A.847.847,0,0,1,765.34,2288.08Z" transform="translate(-750 -2272.74)" fill="#bfbfbf"/>
</svg>
