<svg xmlns="http://www.w3.org/2000/svg" width="20" height="20" viewBox="0 0 20 20">
                                                                              <path fill="#353761" fill-rule="evenodd" d="M10 19.167A9.167 9.167 0 1 1 10 .833a9.167 9.167 0 0 1 0 18.334zm0-1.667a7.5 7.5 0 1 0 0-15 7.5 7.5 0 0 0 0 15zm.833-7.5v3.333c0 1.111-1.666 1.111-1.666 0V10c0-1.111 1.666-1.111 1.666 0zm0-3.333v.416c0 1.111-1.666 1.111-1.666 0v-.416c0-1.111 1.666-1.111 1.666 0z"></path>
                                                                           </svg>