<svg xmlns="http://www.w3.org/2000/svg" width="18" height="18" viewBox="0 0 18 18">
  <g id="Icon_no_image" data-name="Icon_no image" transform="translate(7060 -21143)">
    <rect id="Rectangle_23855" data-name="Rectangle 23855" width="18" height="18" transform="translate(-7060 21143)" fill="#e8e8e8"/>
    <g id="image-" transform="translate(-7058.594 21144.379)">
      <path id="Path_61413" data-name="Path 61413" d="M13.116,12.691,11.35,8.562c-.322-.756-.8-1.185-1.348-1.213A1.7,1.7,0,0,0,8.535,8.421L7.464,10.345a1.182,1.182,0,0,1-.9.677,1.158,1.158,0,0,1-1-.519l-.124-.158a1.6,1.6,0,0,0-1.4-.694,1.6,1.6,0,0,0-1.23.97l-.976,1.946a2.246,2.246,0,0,0,2.008,3.255h7.2a2.25,2.25,0,0,0,1.879-1.01,2.208,2.208,0,0,0,.2-2.121Z" transform="translate(0 -2.496)" fill="#818181"/>
      <path id="Path_61414" data-name="Path 61414" d="M5.5,5.435A1.907,1.907,0,1,0,3.59,3.528,1.907,1.907,0,0,0,5.5,5.435Z" transform="translate(-0.87)" fill="#818181"/>
    </g>
  </g>
</svg>