<svg xmlns="http://www.w3.org/2000/svg" width="9.96" height="13.2" viewBox="0 0 9.96 13.2"><path d="M2.09,12.16l.007-.006A2.588,2.588,0,0,1,0,9.518a.8.8,0,0,1,.007-.08V.275A.263.263,0,0,1,.256,0H9.711A.263.263,0,0,1,9.96.275V12.65a.526.526,0,0,1-.5.55Zm1.69-3.754,4.936,3.2V1.375H1.251V9.48c0,.024,0,.06,0,.085A1.183,1.183,0,0,0,2.408,10.8,1.229,1.229,0,0,0,3.569,9.518c0-.016,0-.03,0-.046V8.534c0-.1.045-.164.111-.164A.177.177,0,0,1,3.779,8.407Zm-1.368-2.3V5.285H7.541v.822Zm0-1.976V3.309H7.541v.822Z"/></svg>