<svg id="phone" xmlns="http://www.w3.org/2000/svg" width="20" height="20" viewBox="0 0 20 20">
  <rect id="Rectangle_10788" data-name="Rectangle 10788" width="20" height="20" fill="none"/>
  <g id="Group_26" data-name="Group 26" transform="translate(1.571 1.741)">
    <path id="Path_162" data-name="Path 162" d="M950.353,391.5a7.043,7.043,0,0,1,6.222,6.215" transform="translate(-939.436 -391.5)" fill="none" stroke="currentColor" stroke-linecap="round" stroke-linejoin="round" stroke-width="1.2"/>
    <path id="Path_163" data-name="Path 163" d="M950.353,395.043a3.912,3.912,0,0,1,3.093,3.093" transform="translate(-939.436 -391.912)" fill="none" stroke="currentColor" stroke-linecap="round" stroke-linejoin="round" stroke-width="1.2"/>
    <path id="Path_164" data-name="Path 164" d="M945.982,400.313c3.525,3.524,4.324-.552,6.569,1.691,2.164,2.163,3.409,2.6.667,5.338-.344.276-2.526,3.6-10.194-4.07s-4.35-9.852-4.074-10.2c2.749-2.748,3.175-1.5,5.339.665C946.532,395.986,942.457,396.788,945.982,400.313Z" transform="translate(-938 -391.5)" fill="none" stroke="currentColor" stroke-linecap="round" stroke-linejoin="round" stroke-width="1.2"/>
  </g>
</svg>
