<svg version="1.2" xmlns="http://www.w3.org/2000/svg" viewBox="0 0 81 81" width="81" height="81">
	<title>placeholder-svg</title>
	<style>
		.s0 { fill: #e5eefe } 
		.s1 { fill: #a8c7ff } 
	</style>
	<g id="Group_57287">
		<path id="Ellipse_1341" class="s0" d="m40.5 58c-9.7 0-17.5-7.8-17.5-17.5 0-9.7 7.8-17.5 17.5-17.5 9.7 0 17.5 7.8 17.5 17.5 0 9.7-7.8 17.5-17.5 17.5z"/>
		<g id="user_2_">
			<path id="Path_58755" class="s1" d="m40.4 40.3q0.4 0 0.8 0 0.4-0.1 0.8-0.3 0.4-0.1 0.7-0.4 0.3-0.2 0.6-0.5 0.3-0.3 0.5-0.6 0.3-0.3 0.4-0.7 0.2-0.4 0.3-0.8 0-0.4 0-0.8 0-0.4 0-0.8-0.1-0.4-0.3-0.8-0.1-0.4-0.4-0.7-0.2-0.3-0.5-0.6-0.6-0.6-1.3-0.9-0.8-0.3-1.6-0.3-0.8 0-1.6 0.3-0.7 0.3-1.3 0.9-0.3 0.3-0.5 0.6-0.3 0.3-0.4 0.7-0.2 0.4-0.2 0.8-0.1 0.4-0.1 0.8 0 0.4 0.1 0.8 0 0.4 0.2 0.8 0.1 0.4 0.4 0.7 0.2 0.3 0.5 0.6 0.3 0.3 0.6 0.5 0.3 0.3 0.7 0.4 0.4 0.2 0.8 0.3 0.4 0 0.8 0z"/>
			<path id="Path_58756" class="s1" d="m47.6 45.2q0-0.1 0-0.2 0-0.2 0-0.3-0.1-0.1-0.1-0.3 0-0.1 0-0.2 0-0.2-0.1-0.3 0-0.2 0-0.3-0.1-0.1-0.1-0.3 0-0.1-0.1-0.2 0-0.2-0.1-0.3 0-0.1-0.1-0.2 0-0.2-0.1-0.3-0.1-0.1-0.1-0.2-0.1-0.2-0.2-0.3-0.1-0.1-0.1-0.2-0.1-0.1-0.2-0.2-0.1-0.1-0.2-0.2-0.1-0.1-0.2-0.2-0.1-0.1-0.3-0.2-0.1 0-0.2-0.1-0.1-0.1-0.3-0.1-0.1-0.1-0.3-0.1-0.1-0.1-0.3-0.1-0.1 0-0.3 0-0.2-0.1-0.3-0.1-0.1 0.1-0.2 0.1-0.1 0-0.2 0-0.1 0.1-0.1 0.1-0.1 0.1-0.2 0.1-0.3 0.2-0.7 0.5-0.1 0-0.2 0.1-0.1 0.1-0.2 0.1-0.1 0.1-0.2 0.1-0.2 0-0.3 0.1-0.3 0.1-0.5 0.1-0.3 0.1-0.6 0.1-0.3 0-0.5-0.1-0.3 0-0.6-0.1-0.1-0.1-0.2-0.1-0.1 0-0.3-0.1-0.1 0-0.2-0.1-0.1-0.1-0.2-0.1-0.4-0.3-0.7-0.5-0.1 0-0.1-0.1-0.1 0-0.2-0.1-0.1 0-0.2 0-0.1 0-0.2-0.1-0.1 0-0.3 0.1-0.1 0-0.3 0-0.1 0-0.3 0.1-0.2 0-0.3 0.1-0.1 0-0.3 0.1-0.1 0.1-0.2 0.1-0.1 0.1-0.2 0.2-0.2 0.1-0.3 0.2-0.1 0.1-0.2 0.2-0.1 0.1-0.1 0.2-0.1 0.1-0.2 0.2-0.1 0.1-0.1 0.3-0.1 0.1-0.2 0.2 0 0.1-0.1 0.3 0 0.1-0.1 0.2 0 0.1-0.1 0.3 0 0.1-0.1 0.2 0 0.2 0 0.3-0.1 0.1-0.1 0.3 0 0.1-0.1 0.3 0 0.1 0 0.2 0 0.2 0 0.3-0.1 0.1-0.1 0.3 0 0.1 0 0.2 0 0.5 0 1 0 0.3 0 0.6 0.1 0.3 0.2 0.6 0.1 0.3 0.2 0.5 0.2 0.3 0.4 0.5 0.2 0.2 0.5 0.4 0.2 0.1 0.5 0.2 0.3 0.1 0.6 0.2 0.3 0 0.6 0h8.2q0.3 0 0.6 0 0.3-0.1 0.6-0.2 0.3-0.1 0.5-0.2 0.3-0.2 0.5-0.4 0.2-0.2 0.4-0.5 0.1-0.2 0.3-0.5 0.1-0.3 0.1-0.6 0.1-0.3 0.1-0.6 0-0.5-0.1-1z"/>
		</g>
	</g>
</svg>