
<svg xmlns="http://www.w3.org/2000/svg" width="24" height="24" viewBox="0 0 24 24">
  <g id="Group_24467" data-name="Group 24467" transform="translate(2375 -4577)">
    <g id="Group_24469" data-name="Group 24469" transform="translate(-11 -1578)">
      <g id="Ellipse_6" data-name="Ellipse 6" transform="translate(-2360 6159)" fill="none" stroke="currentColor" stroke-width="1.5">
        <circle cx="8" cy="8" r="8" stroke="none"/>
        <circle cx="8" cy="8" r="8.75" fill="none"/>
      </g>
      <g id="Group_24189" data-name="Group 24189" transform="translate(-2355.141 6161.548)">
        <path id="Path_293" data-name="Path 293" d="M4.552-3.76H3.146v-.718a3.041,3.041,0,0,1,.075-.7,2.206,2.206,0,0,1,.217-.568,2.877,2.877,0,0,1,.344-.486q.2-.232.456-.471l.553-.524a2.889,2.889,0,0,0,.546-.621,1.561,1.561,0,0,0,.217-.86A1.491,1.491,0,0,0,5.1-9.855a1.651,1.651,0,0,0-1.174-.426,1.562,1.562,0,0,0-1.2.479A1.968,1.968,0,0,0,2.2-8.636L.768-8.8A3.336,3.336,0,0,1,1.142-9.96a3.06,3.06,0,0,1,.71-.875,2.991,2.991,0,0,1,.98-.546,3.668,3.668,0,0,1,1.182-.187,3.737,3.737,0,0,1,1.174.179,2.886,2.886,0,0,1,.965.531,2.476,2.476,0,0,1,.658.868A2.8,2.8,0,0,1,7.05-8.8a3,3,0,0,1-.1.838,2.49,2.49,0,0,1-.292.651,2.916,2.916,0,0,1-.456.546q-.269.254-.583.524t-.509.456a1.861,1.861,0,0,0-.329.411,1.563,1.563,0,0,0-.172.464,3.181,3.181,0,0,0-.052.628Zm.374,2.109a.97.97,0,0,1-.284.688.948.948,0,0,1-.718.3.967.967,0,0,1-.71-.292.933.933,0,0,1-.292-.681.962.962,0,0,1,.284-.7.96.96,0,0,1,.718-.292.973.973,0,0,1,.718.284A.937.937,0,0,1,4.926-1.651Z" transform="translate(-0.768 11.568)"/>
      </g>
    </g>
    <rect id="Rectangle_10135" data-name="Rectangle 10135" width="24" height="24" transform="translate(-2375 4577)" fill="none"/>
  </g>
</svg>
