<svg id="profile-delete" xmlns="http://www.w3.org/2000/svg" width="24" height="24" viewBox="0 0 24 24">
  <path id="Vector" d="M2.26,0,0,2.26" transform="translate(15.044 16.957)" fill="none" stroke="#ff0935" stroke-linecap="round" stroke-linejoin="round" stroke-width="1.2"/>
  <path id="Vector-2" data-name="Vector" d="M2.26,2.26,0,0" transform="translate(15.044 16.957)" fill="none" stroke="#ff0935" stroke-linecap="round" stroke-linejoin="round" stroke-width="1.2"/>
  <path id="Vector-3" data-name="Vector" d="M3.687,7.109a1.457,1.457,0,0,0-.264,0,3.563,3.563,0,1,1,.264,0Z" transform="translate(8.608 4.061)" fill="none" stroke="#ff0935" stroke-linecap="round" stroke-linejoin="round" stroke-width="1.2"/>
  <path id="Vector-4" data-name="Vector" d="M5.47,6.917A7.333,7.333,0,0,1,1.455,5.811c-1.94-1.3-1.94-3.414,0-4.7a7.827,7.827,0,0,1,8.023,0" transform="translate(6.696 13.022)" fill="none" stroke="#ff0935" stroke-linecap="round" stroke-linejoin="round" stroke-width="1.2"/>
  <path id="Vector-5" data-name="Vector" d="M0,0H24V24H0Z" transform="translate(24 24) rotate(180)" fill="none" opacity="0"/>
</svg>
