<svg xmlns="http://www.w3.org/2000/svg" width="91.719" height="87.531" viewBox="0 0 91.719 87.531">
  <g id="Group_21636" data-name="Group 21636" transform="translate(-890.28 -1134)">
    <path id="Path_14715" data-name="Path 14715" d="M10238.466-732.267l91.719,87.531v-87.531Z" transform="translate(-9348.186 1866.267)" fill="#fb7d17"/>
    <path id="_237-star-rating-morph" data-name="237-star-rating-morph" d="M80.7,91.811a.916.916,0,0,1-.5-.158c-.009-.009-.019-.009-.019-.019l-7.966-6.27L64.3,91.476c-.009,0-.009.009-.019.009a.883.883,0,0,1-1.016,0,.872.872,0,0,1-.317-.96l3.019-9.475-7.947-5.73a.864.864,0,0,1,.5-1.565H68.3l3.1-9.559a.87.87,0,0,1,.82-.6h0a.862.862,0,0,1,.82.587L76.2,73.811h9.922a.861.861,0,0,1,.82.6.881.881,0,0,1-.317.969l-8.087,5.767,2.991,9.531a.849.849,0,0,1-.3.96A.887.887,0,0,1,80.7,91.811Zm-16.668-.95Zm14.05-10.327-18.765-5.66Zm-12.047.34Z" transform="translate(883.688 1079.757)" fill="#fff"/>
  </g>
</svg>
