<svg xmlns="http://www.w3.org/2000/svg" width="80" height="80" viewBox="0 0 80 80">
  <g id="MirrorFly_Support" data-name="MirrorFly Support" transform="translate(-1716 -287)">
    <g id="Group_32909" data-name="Group 32909" transform="translate(1716 287)">
      <g id="Ellipse_32" data-name="Ellipse 32" fill="#e0e0ed" stroke="#474891" stroke-width="1">
        <circle cx="40" cy="40" r="40" stroke="none"/>
        <circle cx="40" cy="40" r="39.5" fill="none"/>
      </g>
      <g id="Group_24" data-name="Group 24" transform="translate(24 24)">
        <rect id="Rectangle_17" data-name="Rectangle 17" width="32" height="32" fill="none"/>
        <g id="Group_26" data-name="Group 26" transform="translate(-934.468 -387.715)">
          <path id="Path_162" data-name="Path 162" d="M950.353,391.5a10.247,10.247,0,0,1,9.052,9.042" transform="translate(3.53 0)" fill="none" stroke="#130f26" stroke-linecap="round" stroke-linejoin="round" stroke-width="1.5"/>
          <path id="Path_163" data-name="Path 163" d="M950.353,395.043a5.691,5.691,0,0,1,4.5,4.5" transform="translate(3.53 1.013)" fill="none" stroke="#130f26" stroke-linecap="round" stroke-linejoin="round" stroke-width="1.5"/>
          <path id="Path_164" data-name="Path 164" d="M949.613,404.322c5.129,5.128,6.291-.8,9.557,2.46,3.149,3.148,4.959,3.778.97,7.766-.5.4-3.675,5.232-14.831-5.921s-6.329-14.334-5.927-14.833c4-4,4.62-2.179,7.767.968C950.413,398.027,944.484,399.194,949.613,404.322Z" transform="translate(0 0)" fill="none" stroke="#130f26" stroke-linecap="round" stroke-linejoin="round" stroke-width="1.5"/>
        </g>
      </g>
    </g>
  </g>
</svg>
