<svg xmlns="http://www.w3.org/2000/svg" width="17.075" height="12.804" viewBox="0 0 17.075 12.804">
    <path fill-rule="evenodd"
        d="M8.537,42.211c1.5,0,2.661-1.552,2.661-3.159v-.5a2.662,2.662,0,1,0-5.322,0v.5C5.876,40.659,7.04,42.211,8.537,42.211Zm-5.331.52a1.825,1.825,0,0,0,1.6-1.707v-.854a1.6,1.6,0,1,0-3.2,0v.854a1.844,1.844,0,0,0,1.6,1.707Zm9.581,2.135a.228.228,0,0,0,0-.025,2.057,2.057,0,0,0-.058-.3,0,0,0,0,0,0,0,1.826,1.826,0,0,0-.291-.6h0a3.427,3.427,0,0,0-1.146-.964,1.263,1.263,0,0,0-.616-.245c-.294,0-.551.229-.984.626h0l-.394.362c-.014.013-.438.613-.756.613s-.742-.6-.756-.613l-.394-.362h0c-.433-.4-.689-.626-.984-.626a1.157,1.157,0,0,0-.616.245,4.01,4.01,0,0,0-1.146.96h0v0a1.826,1.826,0,0,0-.289.592l0,.006a2.113,2.113,0,0,0-.058.292.251.251,0,0,1,0,.027,2.958,2.958,0,0,0-.018.326v2.348c0,.759.286,1.067,1.067,1.067h6.4c.788,0,1.067-.292,1.067-1.067V45.189a3,3,0,0,0-.019-.323Zm1.09-2.135a1.825,1.825,0,0,0,1.6-1.707v-.854a1.6,1.6,0,1,0-3.2,0v.854A1.844,1.844,0,0,0,13.877,42.731ZM1.214,43.886A2.309,2.309,0,0,0,0,45.938C0,45.948,0,47,0,47.005c0,.774.26,1.067,1.067,1.067H3.2v-3.2l-.534-.533C2.1,43.84,1.629,43.651,1.214,43.886Zm1.987.985C3.213,44.882,3.2,44.618,3.2,44.871Zm13.872,1.067a2.309,2.309,0,0,0-1.214-2.053c-.414-.235-.889-.047-1.454.452l-.534.534v3.2h2.135c.807,0,1.067-.293,1.067-1.067C17.074,47,17.073,45.948,17.073,45.938Zm-3.2-1.067C13.872,44.618,13.861,44.882,13.872,44.871Z"
        transform="translate(0 -35.8)" />
</svg>