
<svg xmlns="http://www.w3.org/2000/svg" width="24" height="24" viewBox="0 0 24 24">
  <g id="Group_32393" data-name="Group 32393" transform="translate(-45 -56)">
    <rect id="Rectangle_17" data-name="Rectangle 17" width="24" height="24" transform="translate(45 56)" fill="none"/>
    <g id="Group_33300" data-name="Group 33300" transform="translate(-8005.751 355)" opacity="0.6">
      <path id="Path_17136" data-name="Path 17136" d="M674.7,353a3.277,3.277,0,0,0,3.3-3.257v-2.592a2.151,2.151,0,1,1,0-4.3v-2.593A3.277,3.277,0,0,0,674.7,337H661.3a3.277,3.277,0,0,0-3.3,3.257v2.678A2.09,2.09,0,0,1,660.177,345a2.159,2.159,0,0,1-2.177,2.15v2.592A3.277,3.277,0,0,0,661.3,353Z" transform="translate(7394.751 -632)" fill="none" stroke="#000" stroke-linecap="round" stroke-linejoin="round" stroke-width="1.5"/>
      <path id="Path_17139" data-name="Path 17139" d="M388,285.327v6" transform="translate(7674.751 -575.327)" fill="none" stroke="#000" stroke-linecap="round" stroke-linejoin="round" stroke-width="1.5"/>
      <path id="Path_17140" data-name="Path 17140" d="M390.333,288.991h-6" transform="translate(7675.418 -575.991)" fill="none" stroke="#000" stroke-linecap="round" stroke-linejoin="round" stroke-width="1.5"/>
    </g>
  </g>
</svg>
