<svg id="information" xmlns="http://www.w3.org/2000/svg" width="16.652" height="16.652" viewBox="0 0 16.652 16.652">
  <g id="Group_14100" data-name="Group 14100">
    <g id="Group_14099" data-name="Group 14099">
      <path id="Path_11207" data-name="Path 11207" d="M8.326,0a8.326,8.326,0,1,0,8.326,8.326A8.321,8.321,0,0,0,8.326,0Zm0,15.351a7.025,7.025,0,1,1,7.025-7.025A7.021,7.021,0,0,1,8.326,15.351Z" fill="currenColor"/>
    </g>
  </g>
  <g id="Group_14102" data-name="Group 14102" transform="translate(7.676 6.971)">
    <g id="Group_14101" data-name="Group 14101">
      <path id="Path_11208" data-name="Path 11208" d="M236.65,214.33a.65.65,0,0,0-.65.65v4.189a.65.65,0,1,0,1.3,0V214.98A.65.65,0,0,0,236.65,214.33Z" transform="translate(-236 -214.33)" fill="currenColor"/>
    </g>
  </g>
  <g id="Group_14104" data-name="Group 14104" transform="translate(7.448 4.418)">
    <g id="Group_14103" data-name="Group 14103">
      <circle id="Ellipse_133" data-name="Ellipse 133" cx="0.878" cy="0.878" r="0.878" fill="currenColor"/>
    </g>
  </g>
</svg>
