<svg xmlns="http://www.w3.org/2000/svg" width="7" height="5.061" viewBox="0 0 7 5.061">
  <path id="Path_58102" data-name="Path 58102" d="M2362.319,455.674a.6.6,0,0,0-.4-.394.643.643,0,0,0-.674.19c-.885.891-1.789,1.794-2.663,2.667l-.7.7-.646-.646-.826-.827a.618.618,0,0,0-.632-.161.586.586,0,0,0-.427.488.623.623,0,0,0,.2.567l.446.444c.452.448.919.912,1.369,1.377a.709.709,0,0,0,.508.235h0a.718.718,0,0,0,.512-.231c.9-.913,1.825-1.836,2.719-2.728l.979-.979.019-.019a1.085,1.085,0,0,0,.1-.111A.623.623,0,0,0,2362.319,455.674Z" transform="translate(-2355.348 -455.251)" fill="currentColor"/>
</svg>
