<?xml version="1.0" encoding="UTF-8"?><!DOCTYPE svg PUBLIC "-//W3C//DTD SVG 1.1//EN" "http://www.w3.org/Graphics/SVG/1.1/DTD/svg11.dtd"><svg xmlns="http://www.w3.org/2000/svg" xmlns:xlink="http://www.w3.org/1999/xlink"><defs><style>.a{fill:#ffc053}</style></defs><symbol id="old-plyr-captions-off" viewBox="0 0 18 18"><path d="M1 1c-.6 0-1 .4-1 1v11c0 .6.4 1 1 1h4.6l2.7 2.7c.2.2.4.3.7.3.3 0 .5-.1.7-.3l2.7-2.7H17c.6 0 1-.4 1-1V2c0-.6-.4-1-1-1H1zm4.52 10.15c1.99 0 3.01-1.32 3.28-2.41l-1.29-.39c-.19.66-.78 1.45-1.99 1.45-1.14 0-2.2-.83-2.2-2.34 0-1.61 1.12-2.37 2.18-2.37 1.23 0 1.78.75 1.95 1.43l1.3-.41C8.47 4.96 7.46 3.76 5.5 3.76c-1.9 0-3.61 1.44-3.61 3.7 0 2.26 1.65 3.69 3.63 3.69zm7.57 0c1.99 0 3.01-1.32 3.28-2.41l-1.29-.39c-.19.66-.78 1.45-1.99 1.45-1.14 0-2.2-.83-2.2-2.34 0-1.61 1.12-2.37 2.18-2.37 1.23 0 1.78.75 1.95 1.43l1.3-.41c-.28-1.15-1.29-2.35-3.25-2.35-1.9 0-3.61 1.44-3.61 3.7 0 2.26 1.65 3.69 3.63 3.69z" fill-rule="evenodd" fill-opacity=".5"/></symbol><symbol id="old-plyr-captions-on" viewBox="0 0 18 18"><path d="M1 1c-.6 0-1 .4-1 1v11c0 .6.4 1 1 1h4.6l2.7 2.7c.2.2.4.3.7.3.3 0 .5-.1.7-.3l2.7-2.7H17c.6 0 1-.4 1-1V2c0-.6-.4-1-1-1H1zm4.52 10.15c1.99 0 3.01-1.32 3.28-2.41l-1.29-.39c-.19.66-.78 1.45-1.99 1.45-1.14 0-2.2-.83-2.2-2.34 0-1.61 1.12-2.37 2.18-2.37 1.23 0 1.78.75 1.95 1.43l1.3-.41C8.47 4.96 7.46 3.76 5.5 3.76c-1.9 0-3.61 1.44-3.61 3.7 0 2.26 1.65 3.69 3.63 3.69zm7.57 0c1.99 0 3.01-1.32 3.28-2.41l-1.29-.39c-.19.66-.78 1.45-1.99 1.45-1.14 0-2.2-.83-2.2-2.34 0-1.61 1.12-2.37 2.18-2.37 1.23 0 1.78.75 1.95 1.43l1.3-.41c-.28-1.15-1.29-2.35-3.25-2.35-1.9 0-3.61 1.44-3.61 3.7 0 2.26 1.65 3.69 3.63 3.69z" fill-rule="evenodd"/></symbol><symbol id="old-plyr-enter-fullscreen" viewBox="0 0 14 14"><path d="M2 9H0v5h5v-2H2zM0 5h2V2h3V0H0zm12 7H9v2h5V9h-2zM9 0v2h3v3h2V0z" fill="#fff"/></symbol><symbol id="old-plyr-exit-fullscreen" viewBox="0 0 33.582 33.582"><path d="M0 0h33.582v33.582H0z" fill="none"/><path d="M3.638 24.747h5.757v5.757h3.838v-9.595H3.638zM9.395 9.395H3.638v3.838h9.595V3.638H9.395zm11.514 21.109h3.838v-5.757h5.757v-3.838h-9.595zm3.838-21.109V3.638h-3.838v9.595h9.595V9.395z" fill="#fff"/></symbol><symbol id="old-plyr-fast-forward" viewBox="0 0 18 18"><path d="M7.875 7.171L0 1v16l7.875-6.171V17L18 9 7.875 1z"/></symbol><symbol id="old-plyr-muted" viewBox="0 0 18 17.315"><path d="M.63.292a1 1 0 000 1.41l3.66 3.66-.29.3H1a1 1 0 00-1 1v4a1 1 0 001 1h3l3.29 3.29a1 1 0 001.71-.71v-4.17l4.18 4.18a6.827 6.827 0 01-1.6.91 1 1 0 00.81 1.83 9.016 9.016 0 002.22-1.31l1.34 1.34a1 1 0 001.41-1.41L2.05.292a1.008 1.008 0 00-1.42 0zM16 8.662a6.975 6.975 0 01-.41 2.34l1.53 1.53a8.983 8.983 0 00-4.9-12.27.908.908 0 00-1.22.86v.19a.925.925 0 00.61.85 7.02 7.02 0 014.39 6.5zm-8.71-6.29l-.17.17L9 4.422v-1.35a1 1 0 00-1.71-.7zm6.21 6.29a4.5 4.5 0 00-2.5-4.03v1.79l2.48 2.48a1.942 1.942 0 00.02-.24z" fill="#fff"/></symbol><symbol id="old-plyr-play" viewBox="0 0 18 18"><path d="M15.562 8.1L3.87.225c-.818-.562-1.87 0-1.87.9v15.75c0 .9 1.052 1.462 1.87.9L15.563 9.9c.584-.45.584-1.35 0-1.8z"/></symbol><symbol id="old-plyr-rewind" viewBox="0 0 18 18"><path d="M10.125 1L0 9l10.125 8v-6.171L18 17V1l-7.875 6.171z"/></symbol><symbol id="old-plyr-settings" viewBox="0 0 18 18"><path d="M16.135 7.784a2 2 0 01-1.23-2.969c.322-.536.225-.998-.094-1.316l-.31-.31c-.318-.318-.78-.415-1.316-.094a2 2 0 01-2.969-1.23C10.065 1.258 9.669 1 9.219 1h-.438c-.45 0-.845.258-.997.865a2 2 0 01-2.969 1.23c-.536-.322-.999-.225-1.317.093l-.31.31c-.318.318-.415.781-.093 1.317a2 2 0 01-1.23 2.969C1.26 7.935 1 8.33 1 8.781v.438c0 .45.258.845.865.997a2 2 0 011.23 2.969c-.322.536-.225.998.094 1.316l.31.31c.319.319.782.415 1.316.094a2 2 0 012.969 1.23c.151.607.547.865.997.865h.438c.45 0 .845-.258.997-.865a2 2 0 012.969-1.23c.535.321.997.225 1.316-.094l.31-.31c.318-.318.415-.781.094-1.316a2 2 0 011.23-2.969c.607-.151.865-.547.865-.997v-.438c0-.451-.26-.846-.865-.997zM9 12a3 3 0 110-6 3 3 0 010 6z"/></symbol><symbol id="old-plyr-volume" viewBox="0 0 32.463 27.861"><path d="M22.207 20.611h-.094a1.3 1.3 0 01-.922-.382l-.174-.175a1.3 1.3 0 01-.126-1.7 7.584 7.584 0 00-.2-9.293 1.3 1.3 0 01.09-1.744l.174-.174a1.276 1.276 0 01.987-.38 1.306 1.306 0 01.945.477 10.314 10.314 0 012.348 6.6v.292a10.14 10.14 0 01-2.072 5.956 1.305 1.305 0 01-.956.523zm6.309 3.981a1.305 1.305 0 01-.942.461h-.055a1.3 1.3 0 01-.922-.379l-.171-.171a1.3 1.3 0 01-.076-1.762 13.9 13.9 0 00-.23-18.16 1.3 1.3 0 01.052-1.785l.171-.171a1.27 1.27 0 01.962-.383 1.3 1.3 0 01.937.432 16.746 16.746 0 01.274 21.915zM14.757.006a1.9 1.9 0 00-1.15.312s-7.42 6.334-7.743 6.646H1.78A1.764 1.764 0 000 8.707v10.669a1.759 1.759 0 001.78 1.741h4.085c.322.315 7.744 6.425 7.744 6.425a1.91 1.91 0 001.15.312 1.5 1.5 0 001.262-1.17c.007-.056.007-25.451 0-25.507A1.5 1.5 0 0014.757.006z" fill="#fff"/></symbol><symbol id="plyr-airplay" viewBox="0 0 18 18"><path d="M16 1H2a1 1 0 00-1 1v10a1 1 0 001 1h3v-2H3V3h12v8h-2v2h3a1 1 0 001-1V2a1 1 0 00-1-1z"/><path d="M4 17h10l-5-6z"/></symbol><symbol id="plyr-captions-off" viewBox="0 0 33.582 26.652"><path d="M30.224 0H3.358A3.355 3.355 0 000 3.332v19.989a3.355 3.355 0 003.358 3.332h26.866a3.355 3.355 0 003.358-3.332V3.332A3.355 3.355 0 0030.224 0zM3.358 13.326h6.716v3.332H3.358zm16.791 9.995H3.358v-3.332h16.791zm10.075 0h-6.717v-3.332h6.716zm0-6.663H13.433v-3.332h16.791z" fill="#fff"/></symbol><symbol id="plyr-captions-on" viewBox="0 0 33.582 26.652"><path d="M30.224 0H3.358A3.355 3.355 0 000 3.332v19.989a3.355 3.355 0 003.358 3.332h26.866a3.355 3.355 0 003.358-3.332V3.332A3.355 3.355 0 0030.224 0zM3.358 13.326h6.716v3.332H3.358zm16.791 9.995H3.358v-3.332h16.791zm10.075 0h-6.717v-3.332h6.716zm0-6.663H13.433v-3.332h16.791z" fill="#fff"/></symbol><symbol id="plyr-captions" viewBox="0 0 33.582 26.652"><path d="M30.224 0H3.358A3.355 3.355 0 000 3.332v19.989a3.355 3.355 0 003.358 3.332h26.866a3.355 3.355 0 003.358-3.332V3.332A3.355 3.355 0 0030.224 0zM3.358 13.326h6.716v3.332H3.358zm16.791 9.995H3.358v-3.332h16.791zm10.075 0h-6.717v-3.332h6.716zm0-6.663H13.433v-3.332h16.791z" fill="#fff"/></symbol><symbol id="plyr-close" viewBox="0 0 15.456 15.456"><path d="M9.024 7.728l5.763-5.764a.92.92 0 00-1.3-1.3L7.728 6.432 1.965.669a.92.92 0 00-1.3 1.3l5.767 5.759-5.763 5.764a.92.92 0 101.3 1.3l5.759-5.768 5.763 5.764a.92.92 0 101.3-1.3z" fill="#fff" stroke="#fff" stroke-width=".8"/></symbol><symbol id="plyr-download" viewBox="0 0 18 18"><path d="M9 13c.3 0 .5-.1.7-.3L15.4 7 14 5.6l-4 4V1H8v8.6l-4-4L2.6 7l5.7 5.7c.2.2.4.3.7.3zm-7 2h14v2H2z"/></symbol><symbol id="plyr-enter-fullscreen" viewBox="0 0 18 18"><path d="M10 3h3.6l-4 4L11 8.4l4-4V8h2V1h-7zM7 9.6l-4 4V10H1v7h7v-2H4.4l4-4z"/></symbol><symbol id="plyr-exit-fullscreen" viewBox="0 0 18 18"><path d="M1 12h3.6l-4 4L2 17.4l4-4V17h2v-7H1zM16 .6l-4 4V1h-2v7h7V6h-3.6l4-4z"/></symbol><symbol id="plyr-fast-forward" viewBox="0 0 56.522 42.044"><g data-name="Group 21710"><g data-name="Group 16296"><g data-name="Polygon 45" fill="none"><path d="M25.722 19.151a2 2 0 010 3.255L3.162 38.519A2 2 0 010 36.892V4.664a2 2 0 013.162-1.627z"/><path d="M24.56 20.778L2 4.664v32.228l22.56-16.114m2 0c0 .614-.28 1.229-.838 1.627L3.162 38.52C1.84 39.465 0 38.52 0 36.892V4.664c0-1.626 1.839-2.573 3.162-1.627l22.56 16.114c.558.398.837 1.013.837 1.627z" fill="#fff"/></g></g><path data-name="Path 13579" stroke="#fff" d="M31.486 1.407L55.522 20.96 31.486 40.637" fill="none" stroke-linecap="round" stroke-linejoin="round" stroke-width="2"/></g></symbol><symbol id="plyr-googlecast-off" viewBox="0 0 18 18"><g fill="#fff"><path d="M0 0h18v18H0z" opacity=".1" fill="none"/><path d="M0 0h18v18H0z" fill="none"/><path d="M15.75 2.25H2.25c-.825 0-1.5.675-1.5 1.5V6h1.5V3.75h13.5v10.5H10.5v1.5h5.25c.825 0 1.5-.675 1.5-1.5V3.75c0-.825-.675-1.5-1.5-1.5zM.75 13.5v2.25H3A2.247 2.247 0 00.75 13.5zm0-3V12c2.07 0 3.75 1.68 3.75 3.75H6A5.246 5.246 0 00.75 10.5zm0-3V9a6.75 6.75 0 016.75 6.75H9A8.25 8.25 0 00.75 7.5z"/></g></symbol><symbol id="plyr-googlecast-on" viewBox="0 0 18 18"><g fill="#fff"><path d="M0 0h18v18H0z" opacity=".1" fill="none"/><path d="M0 0h18v18H0z" fill="none"/><path d="M.75 13.5v2.25H3A2.247 2.247 0 00.75 13.5zm0-3V12c2.07 0 3.75 1.68 3.75 3.75H6A5.246 5.246 0 00.75 10.5zm13.5-5.25H3.75v1.223a9.775 9.775 0 016.277 6.277h4.223zM.75 7.5V9a6.75 6.75 0 016.75 6.75H9A8.25 8.25 0 00.75 7.5zm15-5.25H2.25c-.825 0-1.5.675-1.5 1.5V6h1.5V3.75h13.5v10.5H10.5v1.5h5.25c.825 0 1.5-.675 1.5-1.5V3.75c0-.825-.675-1.5-1.5-1.5z"/></g></symbol><symbol id="plyr-gudsho-loader" viewBox="0 0 187.3 93.7"><g style="left:50%;top:50%;position:absolute" transform="translate(-50 -50)"><path stroke="#ededed" fill="none" stroke-width="4" stroke-linecap="round" stroke-linejoin="round" stroke-miterlimit="10" d="M93.9 46.4c9.3 9.5 13.8 17.9 23.5 17.9s17.5-7.8 17.5-17.5-7.8-17.6-17.5-17.5c-9.7.1-13.3 7.2-22.1 17.1-8.9 8.8-15.7 17.9-25.4 17.9s-17.5-7.8-17.5-17.5 7.8-17.5 17.5-17.5 16.3 9.3 24 17.1z"/><path opacity=".05" fill="none" stroke="#ededed" stroke-width="4" stroke-linecap="round" stroke-linejoin="round" stroke-miterlimit="10" d="M93.9 46.4c9.3 9.5 13.8 17.9 23.5 17.9s17.5-7.8 17.5-17.5-7.8-17.6-17.5-17.5c-9.7.1-13.3 7.2-22.1 17.1-8.9 8.8-15.7 17.9-25.4 17.9s-17.5-7.8-17.5-17.5 7.8-17.5 17.5-17.5 16.3 9.3 24 17.1z"/></g></symbol><symbol id="plyr-headset" viewBox="0 0 10.899 10.899"><path d="M5.449-.001a5.456 5.456 0 015.45 5.45v4.282a1.168 1.168 0 01-1.168 1.168H8.174a.389.389 0 01-.389-.389V6.617a.389.389 0 01.389-.389h1.557a1.155 1.155 0 01.389.071v-.85a4.671 4.671 0 10-9.342 0v.85a1.155 1.155 0 01.389-.072h1.557a.389.389 0 01.389.389v3.894a.389.389 0 01-.389.389H1.167A1.168 1.168 0 01-.001 9.731V5.449a5.456 5.456 0 015.45-5.45z" fill="#b3b3b3"/></symbol><symbol id="plyr-heart-off" viewBox="0 0 21.936 19.516"><path d="M10.968 19.516a1.286 1.286 0 01-.848-.319c-.886-.775-1.741-1.5-2.494-2.145A46.389 46.389 0 012.18 11.94 8.165 8.165 0 010 6.593 6.856 6.856 0 011.74 1.91 5.9 5.9 0 016.128 0a5.518 5.518 0 013.447 1.19 7.052 7.052 0 011.393 1.455 7.052 7.052 0 011.394-1.455A5.518 5.518 0 0115.808 0 5.9 5.9 0 0120.2 1.91a6.856 6.856 0 011.74 4.683 8.164 8.164 0 01-2.176 5.344 46.384 46.384 0 01-5.446 5.112c-.755.643-1.611 1.373-2.5 2.149a1.287 1.287 0 01-.848.318zM6.128 1.285a4.628 4.628 0 00-3.443 1.5 5.577 5.577 0 00-1.4 3.812 6.87 6.87 0 001.88 4.525 45.65 45.65 0 005.29 4.954c.757.645 1.614 1.376 2.507 2.156a343.2 343.2 0 012.515-2.16 45.661 45.661 0 005.29-4.954 6.87 6.87 0 001.88-4.525 5.577 5.577 0 00-1.4-3.812 4.628 4.628 0 00-3.443-1.5 4.262 4.262 0 00-2.661.921 6.235 6.235 0 00-1.483 1.716.811.811 0 01-1.393 0 6.23 6.23 0 00-1.478-1.712 4.262 4.262 0 00-2.661-.921zm0 0" fill="#fff"/></symbol><symbol id="plyr-heart-on" viewBox="0 0 21.936 19.516"><path d="M10.968 19.516a1.286 1.286 0 01-.848-.319c-.886-.775-1.741-1.5-2.494-2.145A46.389 46.389 0 012.18 11.94 8.165 8.165 0 010 6.593 6.856 6.856 0 011.74 1.91 5.9 5.9 0 016.128 0a5.518 5.518 0 013.447 1.19 7.052 7.052 0 011.393 1.455 7.052 7.052 0 011.394-1.455A5.518 5.518 0 0115.808 0 5.9 5.9 0 0120.2 1.91a6.856 6.856 0 011.74 4.683 8.164 8.164 0 01-2.176 5.344 46.384 46.384 0 01-5.446 5.112c-.755.643-1.611 1.373-2.5 2.149a1.287 1.287 0 01-.848.318z" fill="#fa1200"/></symbol><symbol id="plyr-help" viewBox="0 0 512 512"><path d="M248.158 343.22c-14.639 0-26.491 12.2-26.491 26.84 0 14.291 11.503 26.84 26.491 26.84s26.84-12.548 26.84-26.84c0-14.64-12.199-26.84-26.84-26.84zm4.532-203.218c-47.057 0-68.668 27.885-68.668 46.708 0 13.595 11.502 19.869 20.914 19.869 18.822 0 11.154-26.84 46.708-26.84 17.429 0 31.372 7.669 31.372 23.703 0 18.824-19.52 29.629-31.023 39.389-10.108 8.714-23.354 23.006-23.354 52.983 0 18.125 4.879 23.354 19.171 23.354 17.08 0 20.565-7.668 20.565-14.291 0-18.126.35-28.583 19.521-43.571 9.411-7.32 39.04-31.023 39.04-63.789s-29.629-57.515-74.246-57.515z"/><path d="M256 0C114.516 0 0 114.497 0 256v236c0 11.046 8.954 20 20 20h236c141.483 0 256-114.497 256-256C512 114.516 397.503 0 256 0zm0 472H40V256c0-119.377 96.607-216 216-216 119.377 0 216 96.607 216 216 0 119.377-96.607 216-216 216z"/></symbol><symbol id="plyr-logo-vimeo" viewBox="0 0 18 18"><path d="M17 5.3c-.1 1.6-1.2 3.7-3.3 6.4-2.2 2.8-4 4.2-5.5 4.2-.9 0-1.7-.9-2.4-2.6C5 10.9 4.4 6 3 6c-.1 0-.5.3-1.2.8l-.8-1c.8-.7 3.5-3.4 4.7-3.5 1.2-.1 2 .7 2.3 2.5.3 2 .8 6.1 1.8 6.1.9 0 2.5-3.4 2.6-4 .1-.9-.3-1.9-2.3-1.1.8-2.6 2.3-3.8 4.5-3.8 1.7.1 2.5 1.2 2.4 3.3z"/></symbol><symbol id="plyr-logo-youtube" viewBox="0 0 18 18"><path d="M16.8 5.8c-.2-1.3-.8-2.2-2.2-2.4C12.4 3 9 3 9 3s-3.4 0-5.6.4C2 3.6 1.3 4.5 1.2 5.8 1 7.1 1 9 1 9s0 1.9.2 3.2c.2 1.3.8 2.2 2.2 2.4C5.6 15 9 15 9 15s3.4 0 5.6-.4c1.4-.3 2-1.1 2.2-2.4.2-1.3.2-3.2.2-3.2s0-1.9-.2-3.2zM7 12V6l5 3-5 3z"/></symbol><symbol id="plyr-muted" viewBox="0 0 18 18"><path d="M12.4 12.5l2.1-2.1 2.1 2.1 1.4-1.4L15.9 9 18 6.9l-1.4-1.4-2.1 2.1-2.1-2.1L11 6.9 13.1 9 11 11.1zM3.786 6.008H.714C.286 6.008 0 6.31 0 6.76v4.512c0 .452.286.752.714.752h3.072l4.071 3.858c.5.3 1.143 0 1.143-.602V2.752c0-.601-.643-.977-1.143-.601L3.786 6.008z"/></symbol><symbol id="plyr-next" viewBox="0 0 15.27 16.607"><path d="M12.088 9.537l-9.624 6.306a1.642 1.642 0 01-1.623.093A1.494 1.494 0 010 14.61V1.998A1.494 1.494 0 01.841.672a1.641 1.641 0 011.623.093l9.624 6.306a1.458 1.458 0 010 2.468z" fill="#fff"/><path d="M14.766.504v15.607" fill="none" stroke="#fff" stroke-linecap="round"/></symbol><symbol id="plyr-pause" viewBox="0 0 18 18"><path d="M6 1H3c-.6 0-1 .4-1 1v14c0 .6.4 1 1 1h3c.6 0 1-.4 1-1V2c0-.6-.4-1-1-1zm6 0c-.6 0-1 .4-1 1v14c0 .6.4 1 1 1h3c.6 0 1-.4 1-1V2c0-.6-.4-1-1-1h-3z"/></symbol><symbol id="plyr-pip" viewBox="0 0 18 18"><path d="M13.293 3.293L7.022 9.564l1.414 1.414 6.271-6.271L17 7V1h-6z"/><path d="M13 15H3V5h5V3H2a1 1 0 00-1 1v12a1 1 0 001 1h12a1 1 0 001-1v-6h-2v5z"/></symbol><symbol id="plyr-play" viewBox="0 0 46.755 60"><path d="M44.261 34.743L9.022 58.985a5.757 5.757 0 01-9.023-4.742V5.758a5.757 5.757 0 019.023-4.743l35.239 24.242a5.757 5.757 0 010 9.486z" fill="#fff"/></symbol><symbol id="plyr-previous" viewBox="0 0 15.27 16.607"><path d="M3.181 9.538l9.624 6.306a1.642 1.642 0 001.623.093 1.494 1.494 0 00.841-1.326V1.998a1.494 1.494 0 00-.841-1.326 1.641 1.641 0 00-1.623.093L3.181 7.068a1.458 1.458 0 000 2.468z" fill="#fff"/><path d="M.496.504v15.607" fill="none" stroke="#fff" stroke-linecap="round"/></symbol><symbol id="plyr-repeat-off" viewBox="0 0 19.049 17.462"><path d="M12.708 2.378H8.266l1.026-1.026A.794.794 0 008.17.229L5.789 2.61a.986.986 0 00-.053.058l-.021.028-.025.034-.021.035-.019.032-.017.036-.016.034-.013.035-.013.038-.009.036-.01.039c-.003.013 0 .028-.006.042s0 .023-.005.035 0 .052 0 .078v.077c0 .012 0 .023.005.035s0 .028.006.042.006.026.01.039l.009.036c.003.012.009.025.013.038l.013.035.016.034.017.036.019.032.021.035.025.034.018.035q.025.03.053.058l2.381 2.381a.794.794 0 101.122-1.123L8.263 3.968h4.433a4.758 4.758 0 014.762 4.762 4.307 4.307 0 01-1.269 3.052.794.794 0 001.123 1.122 5.894 5.894 0 001.734-4.174 6.346 6.346 0 00-6.338-6.352zm.626 12.384l.025-.034.021-.035.019-.032.017-.036.016-.034.013-.036.013-.038.009-.036.01-.039c.003-.013 0-.028.006-.042s0-.023.005-.035a.8.8 0 000-.157c0-.012 0-.023-.005-.035s0-.028-.006-.042-.006-.026-.01-.039l-.009-.036c-.003-.012-.009-.025-.013-.038l-.013-.036-.016-.034-.017-.036-.019-.032-.021-.035c-.007-.012-.017-.023-.025-.034l-.021-.027a.703.703 0 00-.052-.057l-2.381-2.381a.794.794 0 00-1.123 1.123l1.026 1.026H6.35a4.758 4.758 0 01-4.762-4.762 4.307 4.307 0 011.27-3.052.794.794 0 10-1.123-1.122A5.894 5.894 0 000 8.731a6.346 6.346 0 006.341 6.35h4.442l-1.026 1.026a.794.794 0 001.123 1.123l2.381-2.381a.717.717 0 00.052-.058z" fill="#fff"/></symbol><symbol id="plyr-repeat-on" viewBox="0 0 19.049 17.462"><path d="M12.708 2.378H8.266l1.026-1.026A.794.794 0 008.17.229L5.789 2.61a.986.986 0 00-.053.058l-.021.028-.025.034-.021.035-.019.032-.017.036-.016.034-.013.035-.013.038-.009.036-.01.039c-.003.013 0 .028-.006.042s0 .023-.005.035 0 .052 0 .078v.077c0 .012 0 .023.005.035s0 .028.006.042.006.026.01.039l.009.036c.003.012.009.025.013.038l.013.035.016.034.017.036.019.032.021.035.025.034.018.035q.025.03.053.058l2.381 2.381a.794.794 0 101.122-1.123L8.263 3.968h4.433a4.758 4.758 0 014.762 4.762 4.307 4.307 0 01-1.269 3.052.794.794 0 001.123 1.122 5.894 5.894 0 001.734-4.174 6.346 6.346 0 00-6.338-6.352zm.626 12.384l.025-.034.021-.035.019-.032.017-.036.016-.034.013-.036.013-.038.009-.036.01-.039c.003-.013 0-.028.006-.042s0-.023.005-.035a.8.8 0 000-.157c0-.012 0-.023-.005-.035s0-.028-.006-.042-.006-.026-.01-.039l-.009-.036c-.003-.012-.009-.025-.013-.038l-.013-.036-.016-.034-.017-.036-.019-.032-.021-.035c-.007-.012-.017-.023-.025-.034l-.021-.027a.703.703 0 00-.052-.057l-2.381-2.381a.794.794 0 00-1.123 1.123l1.026 1.026H6.35a4.758 4.758 0 01-4.762-4.762 4.307 4.307 0 011.27-3.052.794.794 0 10-1.123-1.122A5.894 5.894 0 000 8.731a6.346 6.346 0 006.341 6.35h4.442l-1.026 1.026a.794.794 0 001.123 1.123l2.381-2.381a.717.717 0 00.052-.058z" fill="#ffc053"/></symbol><symbol id="plyr-repeat-one" viewBox="0 0 23 20.462"><g transform="translate(-1398 -946)"><path class="a" d="M1408.318 966.462a.793.793 0 01-.561-1.355l1.026-1.026h-4.439a6.345 6.345 0 01-6.344-6.35 5.867 5.867 0 011.735-4.174.794.794 0 011.122 1.123 4.293 4.293 0 00-1.269 3.051 4.768 4.768 0 004.762 4.763h4.434l-1.026-1.026a.794.794 0 011.122-1.123l2.382 2.382c.019.019.036.04.052.059l.011.014.007.009.005.007.006.008.014.02.011.017v.006l.007.011.012.02.006.011c.006.01.01.021.015.032l.008.015.009.018v.012l.009.024.005.015a.229.229 0 01.008.023.284.284 0 01.007.031.268.268 0 01.009.033v.048a.163.163 0 000 .02v.016a.764.764 0 010 .157.123.123 0 010 .013.156.156 0 000 .02l-.007.043a.381.381 0 01-.011.039c0 .008 0 .016-.006.025v.007a.3.3 0 01-.009.029l-.005.014-.013.035a.224.224 0 01-.011.025l-.005.01a.417.417 0 01-.017.037.327.327 0 01-.018.031v.006l-.005.008-.013.021a.425.425 0 01-.025.034l-.007.01-.011.015a.727.727 0 01-.052.057l-2.382 2.381a.785.785 0 01-.548.249zm6.435-4.324a.794.794 0 01-.561-1.355 4.322 4.322 0 001.261-2.808c.179.016.362.024.546.024a6.117 6.117 0 001.046-.091 5.89 5.89 0 01-1.731 4 .788.788 0 01-.561.23zm-8.023-6.788a.789.789 0 01-.561-.232l-2.381-2.382a.712.712 0 01-.053-.057l-.009-.013-.011-.016a.166.166 0 01-.021-.03.217.217 0 01-.017-.025l-.014-.024-.01-.016-.017-.037-.008-.017-.008-.017c0-.012-.009-.024-.012-.036a.24.24 0 01-.014-.037v-.014l-.005-.022a.281.281 0 01-.01-.04.312.312 0 01-.007-.042c0-.012 0-.023-.005-.035s0-.052 0-.078v-.114a.339.339 0 01.007-.042.254.254 0 01.01-.039c0-.009 0-.018.006-.027a.237.237 0 01.012-.036v-.01c0-.013.008-.025.012-.037l.005-.011a.242.242 0 00.011-.022v-.013l.011-.023.01-.016.01-.016v-.007a.26.26 0 01.018-.026.144.144 0 01.014-.021l.009-.014.022-.028c.012-.016.026-.03.04-.044l.013-.014 2.381-2.382a.794.794 0 111.122 1.124l-1.026 1.025h3.766a6.125 6.125 0 00-.031.619 6.039 6.039 0 00.078.969h-3.813l1.026 1.026a.794.794 0 01-.561 1.355z"/><circle class="a" cx="5" cy="5" r="5" transform="translate(1411 947)"/><text transform="translate(1414 955)" fill="#090303" font-size="9" font-family="SofiaPro-Bold,Sofia Pro" font-weight="700"><tspan x="0" y="0">1</tspan></text></g></symbol><symbol id="plyr-restart" viewBox="0 0 18 18"><path d="M9.7 1.2l.7 6.4 2.1-2.1c1.9 1.9 1.9 5.1 0 7-.9 1-2.2 1.5-3.5 1.5-1.3 0-2.6-.5-3.5-1.5-1.9-1.9-1.9-5.1 0-7 .6-.6 1.4-1.1 2.3-1.3l-.6-1.9C6 2.6 4.9 3.2 4 4.1 1.3 6.8 1.3 11.2 4 14c1.3 1.3 3.1 2 4.9 2 1.9 0 3.6-.7 4.9-2 2.7-2.7 2.7-7.1 0-9.9L16 1.9l-6.3-.7z"/></symbol><symbol id="plyr-rewind" viewBox="0 0 56.522 42.044"><g data-name="Group 21709"><g data-name="Group 21708"><g data-name="Polygon 45" fill="none"><path d="M30.8 22.405a2 2 0 010-3.255L53.36 3.037a2 2 0 013.162 1.627v32.228a2 2 0 01-3.162 1.627z"/><path d="M31.963 20.778l22.559 16.114V4.664l-22.56 16.114m-2 0c0-.614.28-1.229.838-1.627L53.36 3.037c1.323-.946 3.162 0 3.162 1.627v32.228c0 1.626-1.839 2.573-3.162 1.627L30.8 22.405a1.987 1.987 0 01-.837-1.627z" fill="#fff"/></g></g><path data-name="Path 13580" stroke="#fff" d="M25.036 1.407L1 20.96l24.036 19.677" fill="none" stroke-linecap="round" stroke-linejoin="round" stroke-width="2"/></g></symbol><symbol id="plyr-seasons" viewBox="0 0 46 46"><path d="M40.6 14.2H5.4V9.8h35.2zM36.2 1H9.8v4.4h26.4zM45 23v17.6a4.413 4.413 0 01-4.4 4.4H5.4A4.413 4.413 0 011 40.6V23a4.413 4.413 0 014.4-4.4h35.2A4.413 4.413 0 0145 23zm-13.2 8.8l-13.2-7.194v14.366z" fill="#fff"/><path d="M0 0h46v46H0z" fill="none"/></symbol><symbol id="plyr-settings" viewBox="0 0 30 30"><path d="M16.318 30h-2.645a1.848 1.848 0 01-1.828-1.547l-.352-2.106a11.9 11.9 0 01-1.98-.814l-1.762 1.251a1.8 1.8 0 01-1.07.347 1.826 1.826 0 01-1.309-.548L3.5 24.718a1.848 1.848 0 01-.2-2.39l1.236-1.716a11.646 11.646 0 01-.859-2.036l-2.131-.366A1.845 1.845 0 010 16.383v-2.639a1.851 1.851 0 011.546-1.831l2.083-.352a11.8 11.8 0 01.833-2.048L3.209 7.751a1.847 1.847 0 01.2-2.386L5.284 3.5a1.842 1.842 0 012.385-.2l1.726 1.24a11.624 11.624 0 012.037-.859l.362-2.13A1.851 1.851 0 0113.624 0h2.638a1.849 1.849 0 011.83 1.549l.352 2.08a11.973 11.973 0 012.119.87l1.737-1.24a1.846 1.846 0 012.384.2l1.866 1.867a1.85 1.85 0 01.2 2.39L25.511 9.45a11.9 11.9 0 01.848 2.043l2.105.358A1.822 1.822 0 0130 13.682v2.638a1.849 1.849 0 01-1.547 1.829l-2.106.351a11.836 11.836 0 01-.847 2.044l1.239 1.742a1.849 1.849 0 01-.2 2.388l-1.866 1.866a1.851 1.851 0 01-2.387.2l-1.737-1.24a11.85 11.85 0 01-2.042.847l-.357 2.106A1.85 1.85 0 0116.318 30zM15 9a6 6 0 106 6 6.007 6.007 0 00-6-6z" fill="#fff"/></symbol><symbol id="plyr-share" viewBox="0 0 36.902 41.222"><path d="M30.193 27.248a6.535 6.535 0 00-4.744 2.047 7.036 7.036 0 00-.916 1.193l-11.594-7.327a7.178 7.178 0 000-5.161l11.6-7.272a6.646 6.646 0 005.657 3.247 6.993 6.993 0 10-6.71-6.988 7.188 7.188 0 00.447 2.488l-11.611 7.283a6.643 6.643 0 00-5.61-3.163 6.992 6.992 0 000 13.973 6.642 6.642 0 005.609-3.164l11.61 7.338a7.24 7.24 0 00-.445 2.494 7.087 7.087 0 001.965 4.941 6.521 6.521 0 009.488 0 7.191 7.191 0 000-9.88 6.534 6.534 0 00-4.746-2.049z" fill="#fff"/></symbol><symbol id="plyr-shuffle-off" viewBox="0 0 19.505 17.88"><path d="M18.693 13.816h-3.251a4.877 4.877 0 110-9.753h1.289L15.68 5.114a.813.813 0 101.149 1.151l2.438-2.438a.723.723 0 00.053-.059l.022-.029.026-.035.022-.035c.008-.011.013-.022.019-.033l.018-.037.016-.035.013-.036.014-.039.009-.037.01-.04c.003-.013 0-.029.007-.043s0-.024.005-.036a.818.818 0 000-.16c0-.012 0-.024-.005-.036s0-.029-.007-.043-.006-.027-.01-.04l-.009-.037-.013-.039-.013-.036-.016-.035a.314.314 0 00-.018-.037l-.019-.033-.022-.035-.026-.035-.022-.029c-.017-.021-.035-.04-.053-.059L16.83.241a.813.813 0 00-1.149 1.149l1.051 1.051h-1.29a6.5 6.5 0 00-5.689 3.353 6.5 6.5 0 00-5.689-3.353H.813a.813.813 0 100 1.625h3.251a4.877 4.877 0 110 9.753H2.775l1.051-1.054a.813.813 0 00-1.149-1.149L.238 14.054q-.028.028-.053.059l-.022.029-.026.035-.022.035c-.008.011-.015.023-.015.034s-.012.025-.018.037l-.016.035-.013.036-.014.039-.009.037-.01.04c-.003.013 0 .029-.007.043s0 .024-.005.036a.818.818 0 000 .16c0 .012 0 .024.005.036s0 .029.007.043.006.027.01.04l.009.037.013.039.013.036.016.035c.005.011.011.025.018.037l.019.033.022.035.026.035.022.029q.025.031.054.06l2.438 2.438a.813.813 0 001.149-1.149l-1.054-1.051h1.289a6.5 6.5 0 005.689-3.353 6.5 6.5 0 005.689 3.353h3.251a.813.813 0 000-1.625z" fill="#fff"/></symbol><symbol id="plyr-shuffle-on" viewBox="0 0 19.505 17.88"><path d="M18.693 13.816h-3.251a4.877 4.877 0 110-9.753h1.289L15.68 5.114a.813.813 0 101.149 1.151l2.438-2.438a.723.723 0 00.053-.059l.022-.029.026-.035.022-.035c.008-.011.013-.022.019-.033l.018-.037.016-.035.013-.036.014-.039.009-.037.01-.04c.003-.013 0-.029.007-.043s0-.024.005-.036a.818.818 0 000-.16c0-.012 0-.024-.005-.036s0-.029-.007-.043-.006-.027-.01-.04l-.009-.037-.013-.039-.013-.036-.016-.035a.314.314 0 00-.018-.037l-.019-.033-.022-.035-.026-.035-.022-.029c-.017-.021-.035-.04-.053-.059L16.83.241a.813.813 0 00-1.149 1.149l1.051 1.051h-1.29a6.5 6.5 0 00-5.689 3.353 6.5 6.5 0 00-5.689-3.353H.813a.813.813 0 100 1.625h3.251a4.877 4.877 0 110 9.753H2.775l1.051-1.054a.813.813 0 00-1.149-1.149L.238 14.054q-.028.028-.053.059l-.022.029-.026.035-.022.035c-.008.011-.015.023-.015.034s-.012.025-.018.037l-.016.035-.013.036-.014.039-.009.037-.01.04c-.003.013 0 .029-.007.043s0 .024-.005.036a.818.818 0 000 .16c0 .012 0 .024.005.036s0 .029.007.043.006.027.01.04l.009.037.013.039.013.036.016.035c.005.011.011.025.018.037l.019.033.022.035.026.035.022.029q.025.031.054.06l2.438 2.438a.813.813 0 001.149-1.149l-1.054-1.051h1.289a6.5 6.5 0 005.689-3.353 6.5 6.5 0 005.689 3.353h3.251a.813.813 0 000-1.625z" fill="#ffc053"/></symbol><symbol id="plyr-thumb" viewBox="0 0 512 512"><path d="M512 304c0-12.821-5.099-24.768-13.888-33.579 9.963-10.901 15.04-25.515 13.653-40.725-2.496-27.115-26.923-48.363-55.637-48.363H324.352c6.528-19.819 16.981-56.149 16.981-85.333 0-46.272-39.317-85.333-64-85.333-22.144 0-37.995 12.48-38.656 12.992A10.672 10.672 0 00234.666 32v72.341L173.205 237.44l-2.539 1.301v-4.075c0-5.888-4.779-10.667-10.667-10.667H53.333C23.915 224 0 247.915 0 277.333V448c0 29.419 23.915 53.333 53.333 53.333h64c23.061 0 42.773-14.72 50.197-35.264C185.28 475.2 209.173 480 224 480h195.819c23.232 0 43.563-15.659 48.341-37.248 2.453-11.136 1.024-22.336-3.84-32.064 15.744-7.915 26.347-24.192 26.347-42.688 0-7.552-1.728-14.784-4.992-21.312C501.419 338.752 512 322.496 512 304zm-44.992 26.325a10.719 10.719 0 00-8.917 7.232 10.688 10.688 0 002.816 11.136c5.419 5.099 8.427 11.968 8.427 19.307 0 13.461-10.176 24.768-23.637 26.325a10.719 10.719 0 00-8.917 7.232 10.688 10.688 0 002.816 11.136c7.019 6.613 9.835 15.893 7.723 25.451-2.624 11.904-14.187 20.523-27.499 20.523H224c-17.323 0-46.379-8.128-56.448-18.219-3.051-3.029-7.659-3.925-11.627-2.304a10.667 10.667 0 00-6.592 9.856c0 17.643-14.357 32-32 32h-64c-17.643 0-32-14.357-32-32V277.333c0-17.643 14.357-32 32-32h96V256c0 3.691 1.92 7.125 5.077 9.088a10.902 10.902 0 0010.368.448l21.333-10.667a10.65 10.65 0 004.907-5.056l64-138.667c.64-1.408.981-2.944.981-4.48V37.781c4.438-2.453 12.14-5.781 21.334-5.781C289.024 32 320 61.056 320 96c0 37.547-20.437 91.669-20.629 92.203a10.739 10.739 0 001.173 9.856 10.728 10.728 0 008.789 4.608h146.795c17.792 0 32.896 12.736 34.389 28.992 1.131 12.16-4.715 23.723-15.189 30.187-3.264 2.005-5.205 5.632-5.056 9.493s2.368 7.317 5.781 9.088c9.024 4.587 14.613 13.632 14.613 23.573.001 13.461-10.175 24.768-23.658 26.325z"/><path d="M160 245.333c-5.888 0-10.667 4.779-10.667 10.667v192c0 5.888 4.779 10.667 10.667 10.667s10.667-4.779 10.667-10.667V256c0-5.888-4.779-10.667-10.667-10.667z"/></symbol><symbol id="plyr-volume" viewBox="0 0 18 18"><path d="M15.6 3.3c-.4-.4-1-.4-1.4 0-.4.4-.4 1 0 1.4C15.4 5.9 16 7.4 16 9c0 1.6-.6 3.1-1.8 4.3-.4.4-.4 1 0 1.4.2.2.5.3.7.3.3 0 .5-.1.7-.3C17.1 13.2 18 11.2 18 9s-.9-4.2-2.4-5.7z"/><path d="M11.282 5.282a.909.909 0 000 1.316c.735.735.995 1.458.995 2.402 0 .936-.425 1.917-.995 2.487a.909.909 0 000 1.316c.145.145.636.262 1.018.156a.725.725 0 00.298-.156C13.773 11.733 14.13 10.16 14.13 9c0-.17-.002-.34-.011-.51-.053-.992-.319-2.005-1.522-3.208a.909.909 0 00-1.316 0zm-7.496.726H.714C.286 6.008 0 6.31 0 6.76v4.512c0 .452.286.752.714.752h3.072l4.071 3.858c.5.3 1.143 0 1.143-.602V2.752c0-.601-.643-.977-1.143-.601L3.786 6.008z"/></symbol><symbol id="plyr_close" viewBox="0 0 15.456 15.456"><path d="M9.024 7.728l5.763-5.764a.92.92 0 00-1.3-1.3L7.728 6.432 1.965.669a.92.92 0 00-1.3 1.3l5.767 5.759-5.763 5.764a.92.92 0 101.3 1.3l5.759-5.768 5.763 5.764a.92.92 0 101.3-1.3z" fill="#fff" stroke="#fff" stroke-width=".8"/></symbol></svg>