<svg xmlns="http://www.w3.org/2000/svg" width="13.28" height="14.359" viewBox="0 0 13.28 14.359">
    <path fill="#363a4a" d="M5.707,14.359a.492.492,0,0,1-.45-.3l-.7-1.625-1.34-.788-1.734.192A.49.49,0,0,1,1,11.592L.066,9.948A.508.508,0,0,1,.1,9.4L1.127,7.967V6.392L.1,4.957a.507.507,0,0,1-.029-.546L1,2.767a.488.488,0,0,1,.479-.247l1.734.192,1.34-.788L5.257.3a.492.492,0,0,1,.45-.3H7.573a.492.492,0,0,1,.45.3l.7,1.625,1.34.788L11.8,2.52a.489.489,0,0,1,.48.247l.933,1.644a.507.507,0,0,1-.029.546L12.153,6.392V7.967L13.185,9.4a.508.508,0,0,1,.029.547l-.933,1.644a.491.491,0,0,1-.48.248l-1.734-.192-1.34.788-.7,1.625a.492.492,0,0,1-.45.3ZM3.753,10.47l1.513.89a.465.465,0,0,1,.191.217l.6,1.38H7.2l.6-1.38a.467.467,0,0,1,.191-.217L9.5,10.47a.455.455,0,0,1,.28-.06l1.472.163.572-1.008-.876-1.219a.476.476,0,0,1-.089-.277V6.291a.477.477,0,0,1,.089-.277l.876-1.219-.572-1.008-1.472.163a.45.45,0,0,1-.28-.06L7.986,3A.465.465,0,0,1,7.8,2.783L7.2,1.4H6.054l-.6,1.38A.463.463,0,0,1,5.266,3l-1.513.89a.449.449,0,0,1-.28.06L2,3.787,1.43,4.795l.876,1.219a.475.475,0,0,1,.089.277V8.069a.474.474,0,0,1-.089.277L1.43,9.565,2,10.573l1.472-.163.05,0A.457.457,0,0,1,3.753,10.47Zm1.322-.682a.452.452,0,0,1-.448-.455V7.773a1.073,1.073,0,0,1,1.062-1.08H7.535A1.073,1.073,0,0,1,8.6,7.773v1.56a.452.452,0,0,1-.447.455Zm.179-4.521a1.374,1.374,0,1,1,1.374,1.4A1.386,1.386,0,0,1,5.254,5.267Z" />
</svg>