
<svg xmlns="http://www.w3.org/2000/svg" width="13.896" height="12.41" viewBox="0 0 13.896 12.41">
  <g id="warning-fill" transform="translate(-1.249 -1.87)">
    <path id="Path_11539" data-name="Path 11539" d="M29.726,34.172,24.267,24.74a1.49,1.49,0,0,0-2.578,0h0L16.23,34.172a1.489,1.489,0,0,0,1.289,2.235H28.437a1.489,1.489,0,0,0,1.289-2.235Zm-7.245-5.211a.5.5,0,0,1,.993,0v2.482a.5.5,0,1,1-.993,0Zm.5,5.461a.745.745,0,1,1,.745-.745.745.745,0,0,1-.745.745Z" transform="translate(-14.78 -22.127)" fill="#fff"/>
  </g>
</svg>
