
<svg xmlns="http://www.w3.org/2000/svg" width="14.437" height="13" viewBox="0 0 14.437 13">
  <g id="noun_Error_4372697" transform="translate(-1.99 -2.983)">
    <g id="_4" data-name="4" transform="translate(1.99 2.983)">
      <path id="Path_11544" data-name="Path 11544" d="M16.334,14.893,9.84,3.349a.722.722,0,0,0-1.255,0L2.091,14.893a.722.722,0,0,0,.628,1.09H15.707a.722.722,0,0,0,.628-1.075ZM8.491,8.768a.722.722,0,0,1,1.443,0v2.165a.722.722,0,1,1-1.443,0Zm.722,5.051a.722.722,0,1,1,.722-.722A.722.722,0,0,1,9.213,13.818Z" transform="translate(-1.99 -2.983)" fill="#ec3330"/>
    </g>
  </g>
</svg>
