<svg xmlns="http://www.w3.org/2000/svg" width="10.966" height="12.062" viewBox="0 0 10.966 12.062">
  <path id="Forma_1" data-name="Forma 1"
    d="M2.181,12.062a.464.464,0,0,1-.458-.431L.96,2.756H0V1.811H3.21V.787A.779.779,0,0,1,3.978,0h3.01a.779.779,0,0,1,.768.787V1.811h3.21v.945H9.99l-.762,8.875a.466.466,0,0,1-.459.431Zm.422-.944H8.348l.718-8.361H1.885ZM6.835,1.811V.945h-2.7v.866Zm-.23,7.9.2-5.59.921.034-.2,5.59ZM3.241,4.159l.921-.034.2,5.59-.92.034ZM5.023,9.732V4.14h.921V9.732Z"
     />
</svg>