<svg xmlns="http://www.w3.org/2000/svg" width="19.45" height="19.45" viewBox="0 0 19.45 19.45">
  <g id="Group_66997" data-name="Group 66997" transform="translate(-2.275 -2.275)">
    <path id="Path_93719" data-name="Path 93719" d="M18.576,5.33a3.74,3.74,0,0,0-5.207,0L12.045,6.654A1,1,0,1,1,10.631,5.24l1.324-1.324a5.739,5.739,0,0,1,8.035,0l.095.095a5.739,5.739,0,0,1,0,8.035L18.76,13.369a1,1,0,1,1-1.414-1.414l1.324-1.324a3.74,3.74,0,0,0,0-5.207Z" fill="currentColor"/>
    <path id="Path_93720" data-name="Path 93720" d="M6.654,10.63a1,1,0,0,1,0,1.414L5.33,13.369a3.74,3.74,0,0,0,0,5.206l.095.095a3.74,3.74,0,0,0,5.207,0l1.324-1.324a1,1,0,0,1,1.414,1.414l-1.324,1.324a5.739,5.739,0,0,1-8.035,0l-.095-.095a5.739,5.739,0,0,1,0-8.035L5.24,10.63a1,1,0,0,1,1.414,0Z" fill="currentColor"/>
    <path id="Path_93721" data-name="Path 93721" d="M7.316,5.9A1,1,0,1,0,5.9,7.315L16.684,18.1A1,1,0,0,0,18.1,16.683Z" fill="currentColor"/>
  </g>
</svg>
