<svg fill="currentColor" id="expand_ic" xmlns="http://www.w3.org/2000/svg" width="8" height="8" viewBox="0 0 8 8">
  <path id="Path_11507" data-name="Path 11507" d="M174.057,24H171.85a.414.414,0,0,0,0,.828h1.208l-3.967,3.967a.414.414,0,1,0,.585.585l3.967-3.967v1.208a.414.414,0,0,0,.828,0V24.414A.414.414,0,0,0,174.057,24Z" transform="translate(-166.471 -24)"/>
  <path id="Path_11508" data-name="Path 11508" d="M31.586,27.862a.414.414,0,0,0-.414.414v2.9H24.828V24.828h2.9a.414.414,0,1,0,0-.828h-3.31a.414.414,0,0,0-.414.414v7.172a.414.414,0,0,0,.414.414h7.172A.414.414,0,0,0,32,31.586v-3.31A.414.414,0,0,0,31.586,27.862Z" transform="translate(-24 -24)"/>
</svg>
