<svg xmlns="http://www.w3.org/2000/svg" width="24" height="24" viewBox="0 0 24 24">
  <g id="Group_57262" data-name="Group 57262" transform="translate(-899)">
    <circle id="Ellipse_1320" data-name="Ellipse 1320" cx="12" cy="12" r="12" transform="translate(899)" fill="#1367f2"/>
    <g id="XMLID_834_" transform="translate(907.669 5.423)">
      <path id="XMLID_835_" d="M76.915,6.992h1.439v5.925a.212.212,0,0,0,.212.212h2.44a.212.212,0,0,0,.212-.212V7.02h1.654a.212.212,0,0,0,.21-.188l.251-2.181a.212.212,0,0,0-.21-.236H81.218V3.048c0-.412.222-.621.66-.621h1.246a.212.212,0,0,0,.212-.212v-2A.212.212,0,0,0,83.123,0H81.406l-.079,0a3.29,3.29,0,0,0-2.152.811,2.256,2.256,0,0,0-.75,2.006v1.6H76.915a.212.212,0,0,0-.212.212V6.781A.212.212,0,0,0,76.915,6.992Z" transform="translate(-76.703)" fill="#fff"/>
    </g>
  </g>
</svg>
