<svg xmlns="http://www.w3.org/2000/svg" width="19" height="19" viewBox="0 0 19 19">
  <g id="Group_67110" data-name="Group 67110" transform="translate(5.5 -10.5)">
    <g id="youtube" transform="translate(-5 11)">
      <g id="Color">
        <g id="_02.YouTube" data-name="02.YouTube">
          <circle id="Background" cx="9" cy="9" r="9" fill="#0f53f8" stroke="#fff" stroke-width="1"/>
          <path id="XMLID_835_" d="M76.859,5.374H77.92V9.927a.16.16,0,0,0,.156.163h1.8a.16.16,0,0,0,.156-.163V5.4h1.22a.159.159,0,0,0,.155-.144l.185-1.676a.167.167,0,0,0-.039-.127.154.154,0,0,0-.117-.054H80.032V2.343a.427.427,0,0,1,.486-.477h.919a.16.16,0,0,0,.156-.163V.164A.16.16,0,0,0,81.438,0H80.113a2.366,2.366,0,0,0-1.587.623,1.78,1.78,0,0,0-.553,1.541V3.393H76.859a.16.16,0,0,0-.156.163V5.211A.16.16,0,0,0,76.859,5.374Z" transform="translate(-70.148 3.955)" fill="#fff"/>
        </g>
      </g>
    </g>
  </g>
</svg>
