
<svg xmlns="http://www.w3.org/2000/svg" xmlns:xlink="http://www.w3.org/1999/xlink" width="68" height="72" viewBox="0 0 68 72">
  <defs>
    <filter id="Ellipse_1320" x="0" y="0" width="68" height="68" filterUnits="userSpaceOnUse">
      <feOffset dy="3" input="SourceAlpha"/>
      <feGaussianBlur stdDeviation="3" result="blur"/>
      <feFlood flood-opacity="0.161"/>
      <feComposite operator="in" in2="blur"/>
      <feComposite in="SourceGraphic"/>
    </filter>
    <filter id="Ellipse_1321" x="27" y="37" width="35" height="35" filterUnits="userSpaceOnUse">
      <feOffset dy="3" input="SourceAlpha"/>
      <feGaussianBlur stdDeviation="3" result="blur-2"/>
      <feFlood flood-opacity="0.161"/>
      <feComposite operator="in" in2="blur-2"/>
      <feComposite in="SourceGraphic"/>
    </filter>
  </defs>
  <g id="Group_57261" data-name="Group 57261" transform="translate(-890 -585)">
    <g id="Group_57260" data-name="Group 57260">
      <g transform="matrix(1, 0, 0, 1, 890, 585)" filter="url(#Ellipse_1320)">
        <circle id="Ellipse_1320-2" data-name="Ellipse 1320" cx="25" cy="25" r="25" transform="translate(9 6)" fill="#1367f2"/>
      </g>
      <g id="XMLID_834_" transform="translate(918.44 605.026)">
        <path id="XMLID_835_" d="M77.056,11.654h2.4v9.875a.353.353,0,0,0,.353.353h4.067a.353.353,0,0,0,.353-.353V11.7h2.757a.353.353,0,0,0,.351-.313l.419-3.635a.353.353,0,0,0-.351-.393H84.227V5.081c0-.687.37-1.035,1.1-1.035H87.4a.353.353,0,0,0,.353-.353V.356A.353.353,0,0,0,87.4,0H84.542c-.02,0-.065,0-.131,0a5.484,5.484,0,0,0-3.586,1.352,3.761,3.761,0,0,0-1.251,3.343V7.359H77.056a.353.353,0,0,0-.353.353V11.3A.353.353,0,0,0,77.056,11.654Z" transform="translate(-76.703)" fill="#fff"/>
      </g>
    </g>
    <g id="Group_57259" data-name="Group 57259">
      <g transform="matrix(1, 0, 0, 1, 890, 585)" filter="url(#Ellipse_1321)">
        <circle id="Ellipse_1321-2" data-name="Ellipse 1321" cx="8.5" cy="8.5" r="8.5" transform="translate(36 43)" fill="#fff"/>
      </g>
      <g id="vuesax_linear_user" data-name="vuesax/linear/user" transform="translate(821.361 443.361)">
        <g id="user" transform="translate(108 188)">
          <path id="Vector" d="M4.283,2.141A2.141,2.141,0,1,1,2.141,0,2.141,2.141,0,0,1,4.283,2.141Z" transform="translate(2.998 0.857)" fill="none" stroke="#6d727e" stroke-linecap="round" stroke-linejoin="round" stroke-width="0.8"/>
          <path id="Vector-2" data-name="Vector" d="M7.358,3c0-1.657-1.649-3-3.679-3S0,1.34,0,3" transform="translate(1.46 6.424)" fill="none" stroke="#6d727e" stroke-linecap="round" stroke-linejoin="round" stroke-width="0.8"/>
          <path id="Vector-3" data-name="Vector" d="M0,0H10.278V10.278H0Z" fill="none" opacity="0"/>
        </g>
      </g>
    </g>
  </g>
</svg>
