<svg xmlns="http://www.w3.org/2000/svg" width="40" height="40.001" viewBox="0 0 40 40.001">
  <g id="Group_32610" data-name="Group 32610" transform="translate(-740 -430)">
    <ellipse id="Ellipse_16" data-name="Ellipse 16" cx="20" cy="20" rx="20" ry="20" transform="translate(740 430)" fill="#ffdada"/>
    <g id="Group_34209" data-name="Group 34209" transform="translate(-10255 -6255.75)">
      <rect id="Rectangle_13952" data-name="Rectangle 13952" width="21" height="21" transform="translate(11004 6696)" fill="none"/>
      <g id="Group_34211" data-name="Group 34211" transform="translate(11025.557 6693.5)">
        <g id="Group_34171" data-name="Group 34171" transform="translate(0.028 0)">
          <g id="Group_34167" data-name="Group 34167" transform="translate(0 0)">
            <path id="Path_40314" data-name="Path 40314" d="M234.266,173c-.387,0-.688.207-.688.575,0,1.122.132,2.735.132,3.857,0,.292.255.415.556.415.226,0,.547-.123.547-.415,0-1.122.132-2.735.132-3.857A.606.606,0,0,0,234.266,173Z" transform="translate(-233.578 -173.005)" fill="#fc5a5a"/>
          </g>
        </g>
        <g id="Group_34172" data-name="Group 34172" transform="translate(0 5.498)">
          <g id="Group_34169" data-name="Group 34169" transform="translate(0 0)">
            <path id="Path_40315" data-name="Path 40315" d="M233.377,353.306a.726.726,0,0,0,0,1.452.726.726,0,0,0,0-1.452Z" transform="translate(-232.651 -353.306)" fill="#fc5a5a"/>
          </g>
        </g>
      </g>
      <g id="Group_34213" data-name="Group 34213" transform="translate(11003 6694)">
        <rect id="Rectangle_13736" data-name="Rectangle 13736" width="24" height="24" fill="none"/>
        <g id="Group_34145" data-name="Group 34145" transform="translate(1 4)">
          <path id="Path_156" data-name="Path 156" d="M953.888,344.427a3.14,3.14,0,0,0,.072-6.207" transform="translate(-936.244 -337.159)" fill="none" stroke="#fc5a5a" stroke-linecap="round" stroke-linejoin="round" stroke-width="1.5"/>
          <path id="Path_157" data-name="Path 157" d="M955.729,347.25c1.477.221,2.508.738,2.508,1.8,0,.734-.486,1.21-1.271,1.51" transform="translate(-936.072 -336.317)" fill="none" stroke="#fc5a5a" stroke-linecap="round" stroke-linejoin="round" stroke-width="1.5"/>
          <path id="Path_158" data-name="Path 158" d="M948.443,347.664c-3.514,0-6.515.532-6.515,2.659S944.911,353,948.443,353c3.514,0,6.514-.527,6.514-2.655S951.976,347.664,948.443,347.664Z" transform="translate(-937.36 -336.278)" fill="none" stroke="#fc5a5a" stroke-linecap="round" stroke-linejoin="round" stroke-width="1.5" fill-rule="evenodd"/>
          <path id="Path_159" data-name="Path 159" d="M948.243,345.6a4.16,4.16,0,1,0-.031,0Z" transform="translate(-937.16 -337.25)" fill="none" stroke="#fc5a5a" stroke-linecap="round" stroke-linejoin="round" stroke-width="1.5" fill-rule="evenodd"/>
          <path id="Path_160" data-name="Path 160" d="M942.116,344.427a3.139,3.139,0,0,1-.072-6.207" transform="translate(-937.595 -337.159)" fill="none" stroke="#fc5a5a" stroke-linecap="round" stroke-linejoin="round" stroke-width="1.5"/>
          <path id="Path_161" data-name="Path 161" d="M940.258,347.25c-1.477.221-2.508.738-2.508,1.8,0,.734.486,1.21,1.27,1.51" transform="translate(-937.75 -336.317)" fill="none" stroke="#fc5a5a" stroke-linecap="round" stroke-linejoin="round" stroke-width="1.5"/>
        </g>
      </g>
    </g>
  </g>
</svg>
