<svg xmlns="http://www.w3.org/2000/svg" width="14.991" height="10.339" viewBox="0 0 14.991 10.339">
  <g id="graph_ic" transform="translate(-251.851 -222.07)">
    <path id="Path_11398" data-name="Path 11398" d="M24.774,58.339a.773.773,0,0,0,.548-.227l4.363-4.363,1.778,1.778a.775.775,0,0,0,1.1,0l4.879-4.879v1.746a.775.775,0,1,0,1.551,0V48.775A.775.775,0,0,0,38.214,48H34.6a.775.775,0,0,0,0,1.551h1.747l-4.331,4.331L30.233,52.1a.775.775,0,0,0-1.1,0l-4.911,4.911a.775.775,0,0,0,.548,1.324Z" transform="translate(227.853 174.07)" fill="#313944"/>
  </g>
</svg>
