<svg xmlns="http://www.w3.org/2000/svg" width="55" height="37" viewBox="0 0 55 37">
  <g id="Group_66123" data-name="Group 66123" transform="translate(-11319 -1480)">
    <g id="Rectangle_23856" data-name="Rectangle 23856" transform="translate(11319 1480)" fill="#fff" stroke="#ACACAE" stroke-width="1">
      <rect width="55" height="37" rx="3" stroke="none"/>
      <rect x="0.5" y="0.5" width="54" height="36" rx="2.5" fill="none"/>
    </g>
    <rect id="Rectangle_23857" data-name="Rectangle 23857" width="47" height="21" rx="1" transform="translate(11323 1488)" fill="#ACACAE"/>
    <g id="user_3_" data-name="user (3)" transform="translate(11325 1498)">
      <path id="Path_61818" data-name="Path 61818" d="M89.2,4.336A2.1,2.1,0,0,0,90.732,3.7a2.1,2.1,0,0,0,.635-1.533A2.1,2.1,0,0,0,90.732.635a2.167,2.167,0,0,0-3.065,0,2.1,2.1,0,0,0-.635,1.533A2.1,2.1,0,0,0,87.667,3.7,2.1,2.1,0,0,0,89.2,4.336Zm0,0" transform="translate(-85.502)" fill="#fff"/>
      <path id="Path_61819" data-name="Path 61819" d="M7.49,249.889a5.354,5.354,0,0,0-.073-.569,4.481,4.481,0,0,0-.14-.572,2.824,2.824,0,0,0-.235-.533,2.012,2.012,0,0,0-.354-.462,1.562,1.562,0,0,0-.509-.32,1.76,1.76,0,0,0-.65-.118.66.66,0,0,0-.352.149l-.367.237a2.1,2.1,0,0,1-.475.209,1.844,1.844,0,0,1-1.162,0A2.1,2.1,0,0,1,2.7,247.7l-.367-.237a.659.659,0,0,0-.352-.149,1.758,1.758,0,0,0-.65.118,1.562,1.562,0,0,0-.509.32,2.013,2.013,0,0,0-.354.462,2.829,2.829,0,0,0-.235.533,4.492,4.492,0,0,0-.14.572,5.336,5.336,0,0,0-.073.569c-.012.172-.018.351-.018.531a1.494,1.494,0,0,0,.444,1.131,1.6,1.6,0,0,0,1.144.417H5.921a1.6,1.6,0,0,0,1.144-.417,1.494,1.494,0,0,0,.444-1.131c0-.181-.006-.36-.018-.532Zm0,0" transform="translate(0 -242.969)" fill="#fff"/>
    </g>
  </g>
</svg>
