<svg id="Layer_2" data-name="Layer 2" xmlns="http://www.w3.org/2000/svg" width="24" height="24" viewBox="0 0 24 24">
  <g id="linkedin">
    <rect id="background" width="24" height="24" rx="4" fill="#0077b5"/>
    <g id="icon" transform="translate(4.32 4.344)">
      <path id="Path_58073" data-name="Path 58073" d="M37.553,35.077A2.077,2.077,0,1,1,35.477,33,2.077,2.077,0,0,1,37.553,35.077Z" transform="translate(-33.4 -33)" fill="#fff"/>
      <path id="Path_58074" data-name="Path 58074" d="M39.977,69.795v9.174a.514.514,0,0,1-.514.516H37.275a.514.514,0,0,1-.515-.515V69.795a.515.515,0,0,1,.515-.515h2.189A.515.515,0,0,1,39.977,69.795Z" transform="translate(-36.295 -64.257)" fill="#fff"/>
      <path id="Path_58075" data-name="Path 58075" d="M80.461,73.623v4.441a.472.472,0,0,1-.473.473H77.634a.472.472,0,0,1-.473-.473v-4.3c0-.642.188-2.813-1.679-2.813-1.447,0-1.742,1.485-1.8,2.153v4.964a.473.473,0,0,1-.467.473H70.942a.472.472,0,0,1-.472-.473V68.807a.472.472,0,0,1,.472-.473h2.273a.473.473,0,0,1,.473.473v.8A3.222,3.222,0,0,1,76.72,68.18C80.483,68.18,80.461,71.694,80.461,73.623Z" transform="translate(-65.338 -63.31)" fill="#fff"/>
    </g>
  </g>
</svg>
