<svg xmlns="http://www.w3.org/2000/svg" width="23" height="24" viewBox="0 0 23 24">
  <g id="Group_57265" data-name="Group 57265" transform="translate(-910 0.174)">
    <g id="youtube-svgrepo-com_1_" data-name="youtube-svgrepo-com (1)" transform="translate(910)">
      <ellipse id="Ellipse_1322" data-name="Ellipse 1322" cx="11.5" cy="12" rx="11.5" ry="12" transform="translate(0 -0.174)" fill="red"/>
      <path id="Path_58723" data-name="Path 58723" d="M24.861,15.786a1.843,1.843,0,0,1,.476.822,19.722,19.722,0,0,1,.009,7.051,1.843,1.843,0,0,1-1.3,1.3,43.064,43.064,0,0,1-5.716.31,43.064,43.064,0,0,1-5.716-.31,1.843,1.843,0,0,1-1.3-1.3,20.04,20.04,0,0,1-.009-7.042,1.843,1.843,0,0,1,1.3-1.3A43.41,43.41,0,0,1,18.323,15a43.064,43.064,0,0,1,5.716.31A1.843,1.843,0,0,1,24.861,15.786Zm-4.2,4.347-3.8,2.2v-4.4Z" transform="translate(-7.007 -8.233)" fill="#fff" fill-rule="evenodd"/>
    </g>
  </g>
</svg>
