<svg xmlns="http://www.w3.org/2000/svg" width="157.203" height="33.687" viewBox="0 0 157.203 33.687">
  <g id="Group_66541" data-name="Group 66541" transform="translate(18251.768 -13215.811)">
    <path id="Path_12" data-name="Path 12" d="M11.2,0h11.29a11.2,11.2,0,0,1,11.2,11.2v11.29a11.2,11.2,0,0,1-11.2,11.2H11.2A11.2,11.2,0,0,1,0,22.489V11.2A11.2,11.2,0,0,1,11.2,0Z" transform="translate(-18251.768 13215.811)" fill="#064858"/>
    <g id="Group_1" data-name="Group 1" transform="translate(-18245.693 13224.275)">
      <path id="Path_1" data-name="Path 1" d="M249.343,121.629h6.242v6.242l-6.241,6.243V115.387h6.242v6.242Z" transform="translate(-236.86 -115.387)" fill="#ffd119" fill-rule="evenodd"/>
      <path id="Path_2" data-name="Path 2" d="M234.867,121.629v-6.242h-6.242l-6.241,6.243h12.483Z" transform="translate(-222.384 -115.387)" fill="#ff0935" fill-rule="evenodd"/>
      <rect id="Rectangle_2" data-name="Rectangle 2" width="6.242" height="6.242" transform="translate(12.483 0)" fill="#0dcea6"/>
    </g>
    <path id="Path_11" data-name="Path 11" d="M11.369-31.253a5.049,5.049,0,0,1-4.893-5.337,5.048,5.048,0,0,1,4.893-5.337,5.05,5.05,0,0,1,4.893,5.339A5.047,5.047,0,0,1,11.369-31.253Zm0,4.151a9.285,9.285,0,0,0,9.192-9.487,9.288,9.288,0,0,0-9.192-9.489,9.286,9.286,0,0,0-9.192,9.489A9.286,9.286,0,0,0,11.369-27.1Zm11.564-.147h4v-7.265c0-1.779,1.008-2.817,2.52-2.817s2.52,1.038,2.52,2.817v7.265h4v-8.006c0-3.558-2.254-5.782-5.486-5.782a6.52,6.52,0,0,0-2.906.741,5.922,5.922,0,0,0-1.1.741L25.9-40.889H22.933Zm20.015,0h4.3v-14.53h5.337V-45.93H37.611v4.151h5.337Zm11.416,0h4v-7.265c0-1.779,1.008-2.817,2.52-2.817s2.52,1.038,2.52,2.817v7.265h4v-8.006c0-3.558-2.224-5.782-5.19-5.782a5.855,5.855,0,0,0-2.936.741,4.574,4.574,0,0,0-.919.741v-6.375h-4Zm24.314-4.3a1.373,1.373,0,0,1-.474.445,2.714,2.714,0,0,1-1.6.445,2.929,2.929,0,0,1-2.817-2.075h9.34l.059-.445a7.514,7.514,0,0,0,.089-.89c0-4.3-2.965-7.116-6.672-7.116a6.994,6.994,0,0,0-4.972,2.1,6.994,6.994,0,0,0-2,5.016,6.983,6.983,0,0,0,6.82,7.116,6.352,6.352,0,0,0,6.375-4.3Zm-4.893-3.706A2.886,2.886,0,0,1,76.6-37.479a2.886,2.886,0,0,1,2.817,2.224Zm12.751,8.006H88.02V-36h7.858V-37.33H88.02V-44.6h9.489v-1.334H86.537Zm14.085,0h1.334V-45.93h-1.334Zm5.337,4.744.267.089a4.036,4.036,0,0,0,.623.059c1.661,0,2.639-1.038,3.558-3.41l5.931-14.53h-1.483l-4.448,11.119L105.959-40.3h-1.483l5.19,12.75-.744,1.78c-.623,1.512-1.185,2.075-2.372,2.075h-.593Z" transform="translate(-18210.902 13270.259)" fill="#064858"/>
  </g>
</svg>
