<svg version="1.2" xmlns="http://www.w3.org/2000/svg" viewBox="0 0 190 60" width="1000" height="316">
	<title>logo-live-svg</title>
	<style>
		.s0 { fill: #f6f6f6 } 
		.s1 { fill: #ffd119 } 
		.s2 { fill: #ff0935 } 
		.s3 { fill: #0dcea6 } 
	</style>
	<g id="Layer">
		<path id="OnTheFly-2" fill-rule="evenodd" class="s0" d="m74.6 37.6c-1.1-0.5-2.1-1.2-3-2.1-0.9-0.9-1.5-1.9-2-3.1-0.4-1.2-0.7-2.4-0.6-3.6-0.1-1.3 0.2-2.5 0.6-3.7 0.5-1.1 1.1-2.2 2-3.1 0.9-0.9 1.9-1.6 3-2.1 1.2-0.5 2.4-0.7 3.7-0.7 1.2 0 2.4 0.2 3.6 0.7 1.1 0.5 2.1 1.2 3 2.1 0.9 0.9 1.6 2 2 3.1 0.5 1.2 0.7 2.4 0.7 3.7 0 1.2-0.2 2.4-0.7 3.6-0.4 1.2-1.1 2.2-2 3.1-0.9 0.9-1.9 1.6-3 2.1-1.2 0.5-2.4 0.8-3.6 0.8-1.3 0-2.5-0.3-3.7-0.8zm5.6-3.9q1-0.4 1.7-1.2 0.7-0.7 1-1.7 0.4-1 0.3-2 0.1-1.1-0.3-2-0.3-1-1-1.8-0.7-0.7-1.7-1.2-0.9-0.4-1.9-0.4-1.1 0-2 0.4-1 0.5-1.7 1.2-0.7 0.8-1 1.8-0.3 0.9-0.3 2 0 1 0.3 2 0.3 1 1 1.7 0.7 0.8 1.7 1.2 0.9 0.4 2 0.5 1-0.1 1.9-0.5zm9.8-9.3h3l0.6 1.4q0.1-0.1 0.2-0.2 0.2-0.1 0.3-0.2 0.1-0.1 0.3-0.2 0.1-0.1 0.3-0.2 0.3-0.2 0.7-0.3 0.3-0.1 0.7-0.2 0.4-0.1 0.7-0.2 0.4 0 0.8 0c3.3 0 5.6 2.2 5.6 5.8v8.1h-4.1v-7.3c0-1.8-1-2.9-2.5-2.9-1.6 0-2.6 1.1-2.6 2.9v7.3h-4zm20.2-0.9h-5.4v-4.2h15.2v4.2h-5.4v14.7h-4.4zm11.6-4.2h4v6.5q0.1-0.1 0.2-0.2 0.1-0.1 0.3-0.2 0.1-0.1 0.2-0.2 0.1-0.1 0.2-0.2 0.4-0.2 0.7-0.3 0.4-0.2 0.8-0.3 0.4 0 0.7-0.1 0.4 0 0.8 0c3 0 5.3 2.2 5.3 5.8v8.1h-4.1v-7.3c0-1.8-1-2.9-2.5-2.9-1.6 0-2.6 1.1-2.6 2.9v7.3h-4zm28.8 14.9q-0.4 1-1 1.8-0.7 0.8-1.5 1.4-0.9 0.6-1.9 0.9-1 0.3-2.1 0.2-1.4 0-2.7-0.6-1.3-0.5-2.2-1.6-1-1-1.5-2.3-0.5-1.3-0.5-2.7 0-1.4 0.5-2.7 0.5-1.3 1.5-2.4 1-1 2.3-1.5 1.3-0.6 2.8-0.6c3.7 0 6.7 2.9 6.7 7.2q0 0.1 0 0.2 0 0.2 0 0.3 0 0.1 0 0.2-0.1 0.1-0.1 0.2v0.5h-9.5q0.1 0.4 0.4 0.8 0.3 0.4 0.7 0.7 0.4 0.3 0.8 0.4 0.5 0.2 1 0.2 0.2 0 0.4 0 0.2-0.1 0.4-0.1 0.2-0.1 0.4-0.2 0.2-0.1 0.4-0.2 0.1 0 0.1-0.1 0.1 0 0.1-0.1 0.1 0 0.2-0.1 0-0.1 0.1-0.1zm-3.5-4.1q-0.1-0.5-0.4-0.9-0.2-0.4-0.6-0.7-0.4-0.3-0.9-0.5-0.4-0.1-0.9-0.1-0.5 0-1 0.1-0.5 0.2-0.9 0.5-0.3 0.3-0.6 0.7-0.3 0.4-0.4 0.9zm7.2-10.8h11.1v1.4h-9.6v7.3h8v1.4h-8v8.8h-1.5zm14.3 0h1.3v18.9h-1.3zm5.4 22.5h0.6c1.2 0 1.7-0.6 2.4-2.1l0.7-1.8-5.2-12.9h1.5l4.5 11.3 4.5-11.3h1.5l-6 14.7c-1 2.4-2 3.5-3.6 3.5q-0.1 0-0.2 0-0.1 0-0.2 0 0-0.1-0.1-0.1-0.1 0-0.2 0l-0.2-0.1z"/>
	</g>
	<g id="Group_66664">
		<path id="Path_12" class="s0" d="m19.7 0h19.9c2.5 0 5.1 0.5 7.5 1.5 2.4 1 4.6 2.4 6.4 4.3 1.8 1.8 3.3 4 4.3 6.4 0.9 2.4 1.5 4.9 1.5 7.5v19.9c0 2.5-0.6 5.1-1.5 7.5-1 2.4-2.5 4.6-4.3 6.4-1.8 1.8-4 3.3-6.4 4.3-2.4 0.9-5 1.5-7.5 1.5h-19.9c-2.6 0-5.1-0.6-7.5-1.5-2.4-1-4.6-2.5-6.4-4.3-1.9-1.8-3.3-4-4.3-6.4-1-2.4-1.5-5-1.5-7.5v-19.9c0-2.6 0.5-5.1 1.5-7.5 1-2.4 2.4-4.6 4.3-6.4 1.8-1.9 4-3.3 6.4-4.3 2.4-1 4.9-1.5 7.5-1.5z"/>
		<g id="Group_1">
			<path id="Path_1" fill-rule="evenodd" class="s1" d="m34.1 26.5h9.7v9.7l-9.7 9.7v-29.1h9.7v9.7z"/>
			<path id="Path_2" fill-rule="evenodd" class="s2" d="m34.1 26.5v-9.7h-9.7l-9.7 9.7c0 0 19.4 0 19.4 0z"/>
			<path id="Rectangle_2" class="s3" d="m34.1 16.8h9.7v9.7h-9.7z"/>
		</g>
	</g>
</svg>