<svg xmlns="http://www.w3.org/2000/svg" width="24" height="24" viewBox="0 0 24 24">
  <g id="Group_33464" data-name="Group 33464" transform="translate(-45 -56)">
    <rect id="Rectangle_17" data-name="Rectangle 17" width="24" height="24" transform="translate(45 56)" fill="none"/>
    <g id="Group_6" data-name="Group 6" transform="translate(-331.999 -165.999)">
      <path id="Path_53" data-name="Path 53" d="M379,227.888c0-2.916.031-3.888,3.888-3.888s3.888.972,3.888,3.888.012,3.888-3.888,3.888S379,230.8,379,227.888Z" transform="translate(0 0)" fill="none" stroke="currentColor" stroke-linecap="round" stroke-linejoin="round" stroke-width="1.5" fill-rule="evenodd"/>
      <path id="Path_54" data-name="Path 54" d="M390,227.888c0-2.916.031-3.888,3.888-3.888s3.888.972,3.888,3.888.012,3.888-3.888,3.888S390,230.8,390,227.888Z" transform="translate(1.22 0)" fill="none" stroke="currentColor" stroke-linecap="round" stroke-linejoin="round" stroke-width="1.5" fill-rule="evenodd"/>
      <path id="Path_55" data-name="Path 55" d="M379,238.888c0-2.916.031-3.888,3.888-3.888s3.888.972,3.888,3.888.012,3.888-3.888,3.888S379,241.8,379,238.888Z" transform="translate(0 1.22)" fill="none" stroke="currentColor" stroke-linecap="round" stroke-linejoin="round" stroke-width="1.5" fill-rule="evenodd"/>
      <path id="Path_56" data-name="Path 56" d="M390,238.888c0-2.916.031-3.888,3.888-3.888s3.888.972,3.888,3.888.012,3.888-3.888,3.888S390,241.8,390,238.888Z" transform="translate(1.22 1.22)" fill="none" stroke="currentColor" stroke-linecap="round" stroke-linejoin="round" stroke-width="1.5" fill-rule="evenodd"/>
    </g>
  </g>
</svg>
