<svg xmlns="http://www.w3.org/2000/svg" width="24" height="24" viewBox="0 0 24 24">
  <g id="mic_2" data-name="mic 2" transform="translate(-236 -188)">
    <g id="microphone-2">
      <path id="Vector" d="M4,13.5a4,4,0,0,0,4-4V4A4,4,0,0,0,0,4V9.5A4,4,0,0,0,4,13.5Z" transform="translate(244 190)" fill="none" stroke="currentColor" stroke-linecap="round" stroke-linejoin="round" stroke-width="1.5"/>
      <path id="Vector-2" data-name="Vector" d="M0,0V1.7a7.65,7.65,0,1,0,15.3,0V0" transform="translate(240.35 197.65)" fill="none" stroke="currentColor" stroke-linecap="round" stroke-linejoin="round" stroke-width="1.5"/>
      <path id="Vector-3" data-name="Vector" d="M0,0V3" transform="translate(248 207)" fill="none" stroke="currentColor" stroke-linecap="round" stroke-linejoin="round" stroke-width="1.5"/>
      <path id="Vector-4" data-name="Vector" d="M0,0H24V24H0Z" transform="translate(236 188)" fill="none" opacity="0"/>
    </g>
    <path id="Vector-5" data-name="Vector" d="M16.14,0,0,16.15" transform="translate(239.93 191.925)" fill="none" stroke="currentColor" stroke-linecap="round" stroke-linejoin="round" stroke-width="1.5"/>
  </g>
</svg>
