<svg xmlns="http://www.w3.org/2000/svg" width="30" height="30" viewBox="0 0 30 30">
  <g id="mute" transform="translate(0 0)">
    <g id="object_61_" transform="translate(0.001 0.001)">
      <g id="Group_66619" data-name="Group 66619" transform="translate(1.532 9.955)">
        <path id="Path_93636" data-name="Path 93636" d="M40.854,179.213a1.04,1.04,0,0,0-1.04,1.04v3.671l-7.064-5.592a1.839,1.839,0,0,0-1.136-.4H28.232v-5.926h3.382a1.04,1.04,0,0,0,0-2.079h-3.63a1.833,1.833,0,0,0-1.831,1.831v6.422a1.833,1.833,0,0,0,1.831,1.831h3.544l7.8,6.174a1.583,1.583,0,0,0,2.566-1.242v-4.7a1.04,1.04,0,0,0-1.04-1.04Z" transform="translate(-26.153 -169.932)" fill="#ff0935"/>
      </g>
      <g id="Group_66620" data-name="Group 66620" transform="translate(0 0)">
        <path id="Path_93637" data-name="Path 93637" d="M29.69,28.22,25.25,23.779a13.509,13.509,0,0,0-.743-18.3,1.04,1.04,0,0,0-1.47,1.47,11.455,11.455,0,0,1,.737,15.35l-2.441-2.441a8,8,0,0,0-.722-10.484,1.04,1.04,0,0,0-1.47,1.47,5.939,5.939,0,0,1,.7,7.523L17.274,15.8V5.023a1.583,1.583,0,0,0-2.566-1.242L9.429,7.959,1.775.3A1.04,1.04,0,0,0,.3,1.775L15.5,16.969h0L28.22,29.69A1.04,1.04,0,1,0,29.7,28.232l-.011-.012ZM15.194,6.048v7.676L10.91,9.439Z" transform="translate(-0.001 -0.001)" fill="#ff0935"/>
      </g>
    </g>
  </g>
</svg>
