<svg xmlns="http://www.w3.org/2000/svg" width="244.165" height="147.007" viewBox="0 0 244.165 147.007">
  <g id="undraw_video_files_fu10" transform="translate(0)">
    <path id="Path_93595" data-name="Path 93595" d="M572.409,260.993a3.712,3.712,0,0,1-3.693,3.732H406.233a3.712,3.712,0,0,1-3.693-3.732V150.007a3.712,3.712,0,0,1,3.693-3.732H568.716a3.712,3.712,0,0,1,3.693,3.732h0Z" transform="translate(-328.244 -146.275)" fill="#e6e6e6"/>
    <path id="Path_93596" data-name="Path 93596" d="M576.844,265.414a3.608,3.608,0,0,1-3.608,3.608H414.528a3.608,3.608,0,0,1-3.608-3.608v-107.3a3.608,3.608,0,0,1,3.608-3.608H573.243a3.608,3.608,0,0,1,3.6,3.608Z" transform="translate(-334.596 -152.513)" fill="#fff"/>
    <path id="c6fe725a-3b03-4a96-90af-cfbd2676500a" d="M343.722,27.48H492.851a2.142,2.142,0,0,1,2.142,2.142v100.5a2.142,2.142,0,0,1-2.142,2.142H343.722a2.142,2.142,0,0,1-2.142-2.142V29.622a2.142,2.142,0,0,1,2.142-2.142Z" transform="translate(-258.916 -20.83)" fill="#e6e6e6"/>
    <path id="Path_93597" data-name="Path 93597" d="M351.522,37.44H496.714a2.142,2.142,0,0,1,2.142,2.142v95.138a2.142,2.142,0,0,1-2.142,2.142H351.522a2.142,2.142,0,0,1-2.142-2.142V39.582A2.142,2.142,0,0,1,351.522,37.44Z" transform="translate(-264.828 -28.379)" fill="#fff"/>
    <path id="Path_93598" data-name="Path 93598" d="M832.622,354.206a4.083,4.083,0,0,1-1.659-.353,2.013,2.013,0,0,1-.346-.2l-10.552-7.428h0a4.083,4.083,0,0,1-1.732-3.337v-10.13a4.082,4.082,0,0,1,1.732-3.337L830.618,322a2.012,2.012,0,0,1,.346-.2,4.082,4.082,0,0,1,5.741,3.73v24.592a4.083,4.083,0,0,1-4.083,4.082Z" transform="translate(-643.412 -279.055)" fill="#3f3d56"/>
    <path id="Path_93599" data-name="Path 93599" d="M653.551,349.956h-29.43c-6,0-10.87-3.886-10.876-8.675V321.888c.006-4.789,4.872-8.67,10.876-8.675h29.507c5.961.006,10.792,3.859,10.8,8.614V341.28C664.421,346.069,659.555,349.951,653.551,349.956Z" transform="translate(-487.957 -272.813)" fill="#3f3d56"/>
    <circle id="Ellipse_7135" data-name="Ellipse 7135" cx="8.753" cy="8.753" r="8.753" transform="translate(209.266 84.859)" fill="#e6e6e6"/>
    <path id="Path_93600" data-name="Path 93600" d="M992.5,519.748l-6.977-4.028a.181.181,0,0,0-.272.157v8.056a.181.181,0,0,0,.272.157l6.977-4.028a.181.181,0,0,0,0-.314l-6.977-4.028a.181.181,0,0,0-.272.157v8.056a.181.181,0,0,0,.272.157l6.977-4.028a.181.181,0,0,0,0-.314Z" transform="translate(-769.936 -426.293)" fill="#fff"/>
    <path id="Path_93601" data-name="Path 93601" d="M417.409,315.993a3.712,3.712,0,0,1-3.693,3.732H251.233a3.712,3.712,0,0,1-3.693-3.732V205.007a3.712,3.712,0,0,1,3.693-3.732H413.716a3.712,3.712,0,0,1,3.693,3.732h0Z" transform="translate(-210.755 -187.965)" fill="#e6e6e6"/>
    <path id="Path_93602" data-name="Path 93602" d="M421.844,320.414a3.608,3.608,0,0,1-3.608,3.608H259.528a3.608,3.608,0,0,1-3.608-3.608v-107.3a3.608,3.608,0,0,1,3.608-3.608H418.243a3.608,3.608,0,0,1,3.6,3.608Z" transform="translate(-217.107 -194.203)" fill="#fff"/>
    <path id="c6fe725a-3b03-4a96-90af-cfbd2676500a-2" data-name="c6fe725a-3b03-4a96-90af-cfbd2676500a" d="M188.722,82.48H337.851a2.142,2.142,0,0,1,2.142,2.142v100.5a2.142,2.142,0,0,1-2.142,2.142H188.722a2.142,2.142,0,0,1-2.142-2.142V84.622A2.142,2.142,0,0,1,188.722,82.48Z" transform="translate(-141.427 -62.519)" fill="#e6e6e6"/>
    <path id="Path_93603" data-name="Path 93603" d="M196.522,92.44H341.714a2.142,2.142,0,0,1,2.142,2.142v95.138a2.142,2.142,0,0,1-2.142,2.142H196.522a2.142,2.142,0,0,1-2.142-2.142V94.582A2.142,2.142,0,0,1,196.522,92.44Z" transform="translate(-147.339 -70.069)" fill="#fcfcfc"/>
    <path id="Path_93604" data-name="Path 93604" d="M677.622,409.206a4.082,4.082,0,0,1-1.659-.353,2.009,2.009,0,0,1-.346-.2l-10.552-7.428h0a4.082,4.082,0,0,1-1.733-3.337v-10.13a4.082,4.082,0,0,1,1.732-3.337L675.618,377a2.012,2.012,0,0,1,.346-.2,4.082,4.082,0,0,1,5.741,3.73v24.592a4.082,4.082,0,0,1-4.083,4.082Z" transform="translate(-525.923 -320.744)" fill="#3f3d56"/>
    <path id="Path_93605" data-name="Path 93605" d="M498.551,404.956h-29.43c-6,0-10.87-3.886-10.876-8.675V376.888c.006-4.789,4.872-8.67,10.876-8.675h29.507c5.961.006,10.792,3.859,10.8,8.614V396.28C509.421,401.069,504.555,404.951,498.551,404.956Z" transform="translate(-370.468 -314.503)" fill="#3f3d56"/>
    <circle id="Ellipse_7136" data-name="Ellipse 7136" cx="8.753" cy="8.753" r="8.753" transform="translate(171.755 98.169)" fill="#e6e6e6"/>
    <path id="Path_93606" data-name="Path 93606" d="M837.5,574.748l-6.977-4.028a.181.181,0,0,0-.272.157v8.056a.181.181,0,0,0,.272.157l6.977-4.028a.181.181,0,0,0,0-.314l-6.977-4.028a.181.181,0,0,0-.272.157v8.056a.181.181,0,0,0,.272.157l6.977-4.028a.181.181,0,0,0,0-.314Z" transform="translate(-652.447 -467.983)" fill="#fff"/>
    <path id="Path_93607" data-name="Path 93607" d="M265.409,378.993a3.712,3.712,0,0,1-3.693,3.732H99.233a3.712,3.712,0,0,1-3.693-3.732V268.007a3.712,3.712,0,0,1,3.693-3.732H261.716a3.712,3.712,0,0,1,3.693,3.732h0Z" transform="translate(-95.54 -235.718)" fill="#e6e6e6"/>
    <path id="Path_93608" data-name="Path 93608" d="M269.844,383.414a3.608,3.608,0,0,1-3.608,3.608H107.528a3.608,3.608,0,0,1-3.608-3.608v-107.3a3.608,3.608,0,0,1,3.608-3.608H266.243a3.608,3.608,0,0,1,3.6,3.608Z" transform="translate(-101.892 -241.957)" fill="#fff"/>
    <path id="c6fe725a-3b03-4a96-90af-cfbd2676500a-3" data-name="c6fe725a-3b03-4a96-90af-cfbd2676500a" d="M36.722,145.48H185.851a2.142,2.142,0,0,1,2.142,2.142v100.5a2.142,2.142,0,0,1-2.142,2.142H36.722a2.142,2.142,0,0,1-2.142-2.142v-100.5a2.142,2.142,0,0,1,2.142-2.142Z" transform="translate(-26.212 -110.273)" fill="#e6e6e6"/>
    <path id="Path_93609" data-name="Path 93609" d="M44.522,155.44H189.714a2.142,2.142,0,0,1,2.142,2.142v95.138a2.142,2.142,0,0,1-2.142,2.142H44.522a2.142,2.142,0,0,1-2.142-2.142V157.582a2.142,2.142,0,0,1,2.142-2.142Z" transform="translate(-32.38 -117.44)" fill="#f4f4f4"/>
    <circle id="Ellipse_7137" data-name="Ellipse 7137" cx="8.753" cy="8.753" r="8.753" transform="translate(134.97 113.415)" fill="#818181"/>
    <path id="Path_93612" data-name="Path 93612" d="M685.5,637.748l-6.977-4.028a.181.181,0,0,0-.272.157v8.056a.181.181,0,0,0,.272.157l6.977-4.028a.181.181,0,0,0,0-.314l-6.977-4.028a.181.181,0,0,0-.272.157v8.056a.181.181,0,0,0,.272.157l6.977-4.028a.181.181,0,0,0,0-.314Z" transform="translate(-537.232 -515.737)" fill="#fff"/>
    <g id="video-camera" transform="translate(51 -29.512)">
      <g id="Group_66525" data-name="Group 66525" transform="translate(0 96.512)">
        <g id="Group_66524" data-name="Group 66524" transform="translate(0 0)">
          <path id="Path_93593" data-name="Path 93593" d="M38.833,96.512H7.511A7.533,7.533,0,0,0,0,104.023v25.313a7.533,7.533,0,0,0,7.511,7.511H38.833a7.533,7.533,0,0,0,7.511-7.511V104.023A7.485,7.485,0,0,0,38.833,96.512Z" transform="translate(0 -96.512)" fill="#c9c9c9"/>
        </g>
      </g>
      <g id="Group_66527" data-name="Group 66527" transform="translate(50.1 100.522)">
        <g id="Group_66526" data-name="Group 66526" transform="translate(0 0)">
          <path id="Path_93594" data-name="Path 93594" d="M354.5,123.968a3.826,3.826,0,0,0-1.277.526l-11.718,6.76V148.68l11.793,6.76a4.466,4.466,0,0,0,6.159-1.652,4.589,4.589,0,0,0,.6-2.253v-23.21A4.521,4.521,0,0,0,354.5,123.968Z" transform="translate(-341.504 -123.847)" fill="#c9c9c9"/>
        </g>
      </g>
    </g>
  </g>
</svg>
