<svg xmlns="http://www.w3.org/2000/svg" width="93" height="93" viewBox="0 0 93 93">
  <g id="customer_organization_ic" data-name="customer organization_ic" transform="translate(-101 -97.995)">
    <g id="Rectangle_7374" data-name="Rectangle 7374" transform="translate(101 97.995)" fill="#fff" stroke="#52b0d9" stroke-width="1">
      <rect width="93" height="93" rx="4" stroke="none"/>
      <rect x="0.5" y="0.5" width="92" height="92" rx="3.5" fill="none"/>
    </g>
    <g id="business-and-trade" transform="translate(124.981 121.768)">
      <path id="Path_11496" data-name="Path 11496" d="M24.922,3.414,3.9.22A3.39,3.39,0,0,0,1.186.966,3.42,3.42,0,0,0,0,3.529v40.3a1.918,1.918,0,0,0,1.913,1.913H8.129V35.7a3.339,3.339,0,0,1,3.347-3.347h4.782A3.339,3.339,0,0,1,19.6,35.7V45.741h8.129V6.723a3.349,3.349,0,0,0-2.812-3.309Zm-14.4,24.635H7.651a1.434,1.434,0,1,1,0-2.869h2.869a1.434,1.434,0,0,1,0,2.869Zm0-5.738H7.651a1.434,1.434,0,1,1,0-2.869h2.869a1.434,1.434,0,0,1,0,2.869Zm0-5.738H7.651a1.434,1.434,0,0,1,0-2.869h2.869a1.434,1.434,0,0,1,0,2.869Zm0-5.738H7.651a1.434,1.434,0,1,1,0-2.869h2.869a1.434,1.434,0,0,1,0,2.869Zm9.563,17.214H17.214a1.434,1.434,0,0,1,0-2.869h2.869a1.434,1.434,0,0,1,0,2.869Zm0-5.738H17.214a1.434,1.434,0,0,1,0-2.869h2.869a1.434,1.434,0,0,1,0,2.869Zm0-5.738H17.214a1.434,1.434,0,0,1,0-2.869h2.869a1.434,1.434,0,0,1,0,2.869Zm0-5.738H17.214a1.434,1.434,0,0,1,0-2.869h2.869a1.434,1.434,0,0,1,0,2.869Z" transform="translate(0)" fill="#1c97cf"/>
      <path id="Path_11497" data-name="Path 11497" d="M29.118,12.2,15.5,9.351V37.369H28.41a3.351,3.351,0,0,0,3.347-3.347V15.473A3.331,3.331,0,0,0,29.118,12.2ZM24.585,31.631H21.716a1.434,1.434,0,1,1,0-2.869h2.869a1.434,1.434,0,0,1,0,2.869Zm0-5.738H21.716a1.434,1.434,0,1,1,0-2.869h2.869a1.434,1.434,0,1,1,0,2.869Zm0-5.738H21.716a1.434,1.434,0,1,1,0-2.869h2.869a1.434,1.434,0,1,1,0,2.869Z" transform="translate(14.146 8.372)" fill="#1c97cf"/>
    </g>
  </g>
</svg>
