<svg xmlns="http://www.w3.org/2000/svg" width="16.198" height="9.822" viewBox="0 0 16.198 9.822">
    <g transform="translate(0 -96.417)">
        <g transform="translate(0 96.417)">
            <g transform="translate(0 0)">
                <path  fill="#23304b"
                    d="M16.066,100.953c-2.447-3.009-5.088-4.536-7.859-4.536a8.237,8.237,0,0,0-3.306.724A11.58,11.58,0,0,0,2.359,98.7a13.256,13.256,0,0,0-2.245,2.271.6.6,0,0,0,.017.727c2.443,3.012,5.088,4.536,7.859,4.536a8.237,8.237,0,0,0,3.306-.724,11.58,11.58,0,0,0,2.542-1.564,13.256,13.256,0,0,0,2.245-2.271A.6.6,0,0,0,16.066,100.953Zm-3,2.089a8.417,8.417,0,0,1-5.078,2.007c-2.285,0-4.513-1.253-6.629-3.726a13.08,13.08,0,0,1,1.765-1.706A8.417,8.417,0,0,1,8.2,97.611c2.285,0,4.513,1.253,6.629,3.726A12.881,12.881,0,0,1,13.068,103.042Z"
                    transform="translate(0 -96.417)" />
            </g>
        </g>
        <g transform="translate(5.305 98.54)">
            <g transform="translate(0 0)">
                <path  fill="#23304b"
                    d="M165.453,162.812a.6.6,0,0,0-.6.6,1.6,1.6,0,1,1-1.6-1.6.6.6,0,0,0,0-1.19,2.79,2.79,0,1,0,2.79,2.79A.6.6,0,0,0,165.453,162.812Z"
                    transform="translate(-160.467 -160.617)" />
            </g>
        </g>
    </g>
</svg>