<svg xmlns="http://www.w3.org/2000/svg" width="15" height="15" viewBox="0 0 15 15">
    <g transform="translate(0 8.539)">
        <path fill="#fd7c7c" d="M1.415,302H.462a.461.461,0,0,0-.462.462V308a.461.461,0,0,0,.462.462h.954A1.386,1.386,0,0,0,2.8,307.077v-3.692A1.386,1.386,0,0,0,1.415,302Z"
            transform="translate(0 -302)" />
    </g>
    <g transform="translate(4.846)">
        <path  fill="#fd7c7c" d="M187.077,0a5.069,5.069,0,0,0-3.923,8.289,4.119,4.119,0,0,1,1.588.868.363.363,0,0,0,.231.074h1.643a1.8,1.8,0,0,1,1.523.812A5.078,5.078,0,0,0,187.077,0Zm.471,7.3h-.009v.545a.462.462,0,1,1-.923,0V7.3a1.831,1.831,0,0,1-.84-.6.459.459,0,1,1,.7-.591c.249.3.526.406.757.323a.461.461,0,0,0-.157-.9,1.383,1.383,0,0,1-.535-2.658c.018-.009.046-.009.074-.018V2.308a.462.462,0,1,1,.923,0v.554a1.815,1.815,0,0,1,.683.406.463.463,0,1,1-.646.665.624.624,0,0,0-.674-.2.46.46,0,0,0,.175.886,1.384,1.384,0,0,1,.471,2.686Z"
            transform="translate(-182)" />
    </g>
    <g transform="translate(2.969 8.361)">
        <path  fill="#fd7c7c" d="M132.892,297.318a.846.846,0,0,0-.212-.231.914.914,0,0,0-1.246.092l-2.1,2.418-.065.074a1.362,1.362,0,0,1-1.015.443h-3.612a.462.462,0,1,1,0-.923h2.846a.926.926,0,0,0,.923-.923v-.009a.924.924,0,0,0-.923-.914h-1.7a1.271,1.271,0,0,1-.812-.3,3.235,3.235,0,0,0-3.978-.212v5.677a10.654,10.654,0,0,0,2.806.379h4.148a3.235,3.235,0,0,0,2.585-1.292l2.215-2.954A1.222,1.222,0,0,0,132.892,297.318Z"
            transform="translate(-121 -296.246)" />
    </g>
</svg>