
<svg id="Component_713_64" data-name="Component 713 – 64" xmlns="http://www.w3.org/2000/svg" width="16" height="16" viewBox="0 0 16 16">
  <rect id="Rectangle_8627" data-name="Rectangle 8627" width="16" height="16" fill="none"/>
  <g id="Group_24469" data-name="Group 24469" transform="translate(1.895 1.895)">
    <g id="Ellipse_6" data-name="Ellipse 6" transform="translate(0.105 0.105)" fill="none" stroke="currentColor" stroke-width="1.4">
      <circle cx="6" cy="6" r="6" stroke="none"/>
      <circle cx="6" cy="6" r="6.7" fill="none"/>
    </g>
    <g id="Group_24189" data-name="Group 24189" transform="translate(3.628 1.768)">
      <path id="Path_293" data-name="Path 293" d="M3.815-5.281H2.683v-.578a2.449,2.449,0,0,1,.06-.566,1.777,1.777,0,0,1,.175-.458,2.316,2.316,0,0,1,.277-.391q.163-.187.367-.379l.446-.422a2.327,2.327,0,0,0,.44-.5,1.257,1.257,0,0,0,.175-.693,1.2,1.2,0,0,0-.367-.921,1.329,1.329,0,0,0-.945-.343,1.258,1.258,0,0,0-.964.385,1.585,1.585,0,0,0-.422.939L.768-9.34a2.686,2.686,0,0,1,.3-.933,2.464,2.464,0,0,1,.572-.7,2.408,2.408,0,0,1,.789-.44,2.953,2.953,0,0,1,.951-.151,3.009,3.009,0,0,1,.945.145A2.324,2.324,0,0,1,5.1-11a1.993,1.993,0,0,1,.53.7,2.253,2.253,0,0,1,.193.958,2.419,2.419,0,0,1-.084.674,2,2,0,0,1-.235.524,2.348,2.348,0,0,1-.367.44q-.217.2-.47.422t-.409.367A1.5,1.5,0,0,0,4-6.582a1.259,1.259,0,0,0-.139.373,2.561,2.561,0,0,0-.042.506Zm.3,1.7a.781.781,0,0,1-.229.554.763.763,0,0,1-.578.241.779.779,0,0,1-.572-.235A.751.751,0,0,1,2.5-3.571a.775.775,0,0,1,.229-.56.773.773,0,0,1,.578-.235.784.784,0,0,1,.578.229A.755.755,0,0,1,4.116-3.583Z" transform="translate(-0.768 11.568)" fill="currentColor"/>
    </g>
  </g>
</svg>
