<svg xmlns="http://www.w3.org/2000/svg" width="25" height="26.001" viewBox="0 0 25 26.001">
    <path fill="#2173eb"
        d="M1,26a1,1,0,0,1-1-1V19.087a1,1,0,0,1,1-1H24a1,1,0,0,1,1,1V25a1,1,0,0,1-1,1Zm18.048-3.957a1.788,1.788,0,1,0,1.786-1.7A1.744,1.744,0,0,0,19.048,22.044ZM1,16.958a1,1,0,0,1-1-1V10.044a1,1,0,0,1,1-1H24a1,1,0,0,1,1,1v5.914a1,1,0,0,1-1,1ZM19.048,13a1.788,1.788,0,1,0,1.786-1.7A1.744,1.744,0,0,0,19.048,13ZM1,7.914a1,1,0,0,1-1-1V1A1,1,0,0,1,1,0H24a1,1,0,0,1,1,1V6.914a1,1,0,0,1-1,1ZM19.048,3.956a1.788,1.788,0,0,0,3.571,0,1.788,1.788,0,0,0-3.571,0Z" />
</svg>