<svg id="Group_32610" data-name="Group 32610" xmlns="http://www.w3.org/2000/svg" width="40" height="40" viewBox="0 0 40 40">
  <circle id="Ellipse_16" data-name="Ellipse 16" cx="20" cy="20" r="20" fill="#ff0935" opacity="0.13"/>
  <g id="control" transform="translate(11 11)">
    <g id="Group_66548" data-name="Group 66548">
      <g id="Group_66547" data-name="Group 66547">
        <path id="Path_93615" data-name="Path 93615" d="M18.368,2.217H15.5a2.772,2.772,0,0,0-5.432,0H.554a.554.554,0,0,0,0,1.109h9.517a2.772,2.772,0,0,0,5.432,0h2.864a.554.554,0,1,0,0-1.109Zm-5.58,2.217a1.665,1.665,0,0,1-1.663-1.663h0a1.663,1.663,0,1,1,1.663,1.664Z" fill="#ff0935"/>
      </g>
    </g>
    <g id="Group_66550" data-name="Group 66550" transform="translate(0 6.689)">
      <g id="Group_66549" data-name="Group 66549">
        <path id="Path_93616" data-name="Path 93616" d="M18.368,183.217H8.851a2.772,2.772,0,0,0-5.432,0H.554a.554.554,0,1,0,0,1.109H3.419a2.772,2.772,0,0,0,5.432,0h9.517a.554.554,0,0,0,0-1.109ZM6.135,185.435a1.665,1.665,0,0,1-1.663-1.663h0a1.663,1.663,0,1,1,1.663,1.664Z" transform="translate(0 -181)" fill="#ff0935"/>
      </g>
    </g>
    <g id="Group_66552" data-name="Group 66552" transform="translate(0 13.378)">
      <g id="Group_66551" data-name="Group 66551">
        <path id="Path_93617" data-name="Path 93617" d="M18.368,364.217H15.5a2.772,2.772,0,0,0-5.432,0H.554a.554.554,0,1,0,0,1.109h9.517a2.772,2.772,0,0,0,5.432,0h2.864a.554.554,0,1,0,0-1.109Zm-5.58,2.217a1.665,1.665,0,0,1-1.663-1.663h0a1.663,1.663,0,1,1,1.663,1.664Z" transform="translate(0 -362)" fill="#ff0935"/>
      </g>
    </g>
  </g>
</svg>