<svg xmlns="http://www.w3.org/2000/svg" xmlns:xlink="http://www.w3.org/1999/xlink" width="704" height="702" viewBox="0 0 704 702">
  <defs>
    <clipPath id="clip-path">
      <rect id="Rectangle_16029" data-name="Rectangle 16029" width="704" height="702" transform="translate(-18950 4545)" fill="#fff" stroke="#707070" stroke-width="1"/>
    </clipPath>
    <filter id="Subtraction_8" x="-67.76" y="-267.87" width="809.455" height="1040.041" filterUnits="userSpaceOnUse">
      <feOffset dy="3" input="SourceAlpha"/>
      <feGaussianBlur stdDeviation="22.5" result="blur"/>
      <feFlood flood-opacity="0.161"/>
      <feComposite operator="in" in2="blur"/>
      <feComposite in="SourceGraphic"/>
    </filter>
  </defs>
  <g id="Signup_2" data-name="Signup 2" transform="translate(18950 -4545)" clip-path="url(#clip-path)">
    <g id="Group_38252" data-name="Group 38252" transform="translate(-18950.26 4340.685)">
      <path id="Subtraction_7" data-name="Subtraction 7" d="M403.979,905.04H52.207V0H373.18a111.117,111.117,0,0,1,27.479,3.444,108.87,108.87,0,0,1,25.179,9.887A104.962,104.962,0,0,1,447.49,28.99a100.4,100.4,0,0,1,16.9,20.762l201.77,330.18a98.816,98.816,0,0,1,6.1,11.617,88.019,88.019,0,0,1,4.23,11.784,84.377,84.377,0,0,1,2.424,11.984,87.421,87.421,0,0,1,.682,12.219,105.651,105.651,0,0,1-3.612,25.278,159.735,159.735,0,0,1-9.823,26.626L495.186,855.288a72.833,72.833,0,0,1-15.41,22.584,83.218,83.218,0,0,1-21.817,15.457C442.552,900.991,423.886,905.04,403.979,905.04Zm-379.411,0h0Z" transform="translate(24.961 0)" fill="#0f62eb"/>
      <g transform="matrix(1, 0, 0, 1, 0.26, 204.31)" filter="url(#Subtraction_8)">
        <path id="Subtraction_8-2" data-name="Subtraction 8" d="M398.78,905.04H0V0H367.981A111.118,111.118,0,0,1,395.46,3.444a108.877,108.877,0,0,1,25.179,9.887A104.96,104.96,0,0,1,442.291,28.99a100.405,100.405,0,0,1,16.9,20.762l201.77,330.18a93.19,93.19,0,0,1,10.35,23.49,86.558,86.558,0,0,1,3.139,24.352,104.524,104.524,0,0,1-3.605,25.308,151.21,151.21,0,0,1-9.884,26.359L489.987,855.288a77.572,77.572,0,0,1-15.706,21.693A90.511,90.511,0,0,1,452.5,892.537a110.186,110.186,0,0,1-25.841,9.37A124.452,124.452,0,0,1,398.78,905.04Z" transform="translate(-0.26 -203.37)" fill="#fff"/>
      </g>
    </g>
  </g>
</svg>
