<svg xmlns="http://www.w3.org/2000/svg" fill="#242424" width="6.558" height="7.564" viewBox="0 0 6.558 7.564">
    <path 
        d="M5.838,7.488,2.675,3.956a.258.258,0,0,1,0-.349L5.838.076a.2.2,0,0,1,.313,0L6.49.455A.258.258,0,0,1,6.49.8L3.822,3.782,6.49,6.761a.258.258,0,0,1,0,.349l-.339.378a.2.2,0,0,1-.313,0Zm-2.607,0L.067,3.956a.259.259,0,0,1,0-.349L3.231.076a.2.2,0,0,1,.312,0l.34.379a.258.258,0,0,1,0,.349L1.215,3.782,3.883,6.761a.258.258,0,0,1,0,.349l-.34.378a.2.2,0,0,1-.312,0Z"
        transform="translate(6.558 7.564) rotate(180)" />
</svg>