<svg xmlns="http://www.w3.org/2000/svg" width="55" height="37" viewBox="0 0 55 37">
  <g id="Group_66262" data-name="Group 66262" transform="translate(-1608 -513)">
    <g id="Group_66121" data-name="Group 66121" transform="translate(-9578 -967)">
      <rect id="Rectangle_23852" data-name="Rectangle 23852" width="55" height="37" rx="3" transform="translate(11186 1480)" fill="#acacae"/>
      <g id="user_3_" data-name="user (3)" transform="translate(11224 1486.817)">
        <path id="Path_61818" data-name="Path 61818" d="M89.2,4.336A2.1,2.1,0,0,0,90.732,3.7a2.1,2.1,0,0,0,.635-1.533A2.1,2.1,0,0,0,90.732.635a2.167,2.167,0,0,0-3.065,0,2.1,2.1,0,0,0-.635,1.533A2.1,2.1,0,0,0,87.667,3.7,2.1,2.1,0,0,0,89.2,4.336Zm0,0" transform="translate(-85.502)" fill="#fff"/>
        <path id="Path_61819" data-name="Path 61819" d="M7.49,249.889a5.354,5.354,0,0,0-.073-.569,4.481,4.481,0,0,0-.14-.572,2.824,2.824,0,0,0-.235-.533,2.012,2.012,0,0,0-.354-.462,1.562,1.562,0,0,0-.509-.32,1.76,1.76,0,0,0-.65-.118.66.66,0,0,0-.352.149l-.367.237a2.1,2.1,0,0,1-.475.209,1.844,1.844,0,0,1-1.162,0A2.1,2.1,0,0,1,2.7,247.7l-.367-.237a.659.659,0,0,0-.352-.149,1.758,1.758,0,0,0-.65.118,1.562,1.562,0,0,0-.509.32,2.013,2.013,0,0,0-.354.462,2.829,2.829,0,0,0-.235.533,4.492,4.492,0,0,0-.14.572,5.336,5.336,0,0,0-.073.569c-.012.172-.018.351-.018.531a1.494,1.494,0,0,0,.444,1.131,1.6,1.6,0,0,0,1.144.417H5.921a1.6,1.6,0,0,0,1.144-.417,1.494,1.494,0,0,0,.444-1.131c0-.181-.006-.36-.018-.532Zm0,0" transform="translate(0 -242.969)" fill="#fff"/>
      </g>
      <g id="user_3_2" data-name="user (3)" transform="translate(11224 1500.817)">
        <path id="Path_61818-2" data-name="Path 61818" d="M89.2,4.336A2.1,2.1,0,0,0,90.732,3.7a2.1,2.1,0,0,0,.635-1.533A2.1,2.1,0,0,0,90.732.635a2.167,2.167,0,0,0-3.065,0,2.1,2.1,0,0,0-.635,1.533A2.1,2.1,0,0,0,87.667,3.7,2.1,2.1,0,0,0,89.2,4.336Zm0,0" transform="translate(-85.502)" fill="#fff"/>
        <path id="Path_61819-2" data-name="Path 61819" d="M7.49,249.889a5.354,5.354,0,0,0-.073-.569,4.481,4.481,0,0,0-.14-.572,2.824,2.824,0,0,0-.235-.533,2.012,2.012,0,0,0-.354-.462,1.562,1.562,0,0,0-.509-.32,1.76,1.76,0,0,0-.65-.118.66.66,0,0,0-.352.149l-.367.237a2.1,2.1,0,0,1-.475.209,1.844,1.844,0,0,1-1.162,0A2.1,2.1,0,0,1,2.7,247.7l-.367-.237a.659.659,0,0,0-.352-.149,1.758,1.758,0,0,0-.65.118,1.562,1.562,0,0,0-.509.32,2.013,2.013,0,0,0-.354.462,2.829,2.829,0,0,0-.235.533,4.492,4.492,0,0,0-.14.572,5.336,5.336,0,0,0-.073.569c-.012.172-.018.351-.018.531a1.494,1.494,0,0,0,.444,1.131,1.6,1.6,0,0,0,1.144.417H5.921a1.6,1.6,0,0,0,1.144-.417,1.494,1.494,0,0,0,.444-1.131c0-.181-.006-.36-.018-.532Zm0,0" transform="translate(0 -242.969)" fill="#fff"/>
      </g>
      <g id="user_3_3" data-name="user (3)" transform="translate(11201.229 1492)">
        <path id="Path_61818-3" data-name="Path 61818" d="M90.075,6.086a2.944,2.944,0,0,0,2.152-.892,2.944,2.944,0,0,0,.891-2.152A2.945,2.945,0,0,0,92.227.892a3.042,3.042,0,0,0-4.3,0,2.945,2.945,0,0,0-.892,2.152,2.944,2.944,0,0,0,.892,2.152A2.945,2.945,0,0,0,90.075,6.086Zm0,0" transform="translate(-84.884)" fill="#fff"/>
        <path id="Path_61819-3" data-name="Path 61819" d="M10.515,250.929a7.516,7.516,0,0,0-.1-.8,6.29,6.29,0,0,0-.2-.8,3.964,3.964,0,0,0-.33-.749,2.824,2.824,0,0,0-.5-.648,2.194,2.194,0,0,0-.715-.449,2.471,2.471,0,0,0-.912-.165.926.926,0,0,0-.495.21c-.148.1-.322.208-.515.332a2.953,2.953,0,0,1-.667.294,2.589,2.589,0,0,1-1.631,0,2.946,2.946,0,0,1-.666-.294c-.192-.123-.365-.234-.516-.332a.925.925,0,0,0-.494-.21,2.467,2.467,0,0,0-.912.165,2.192,2.192,0,0,0-.715.449,2.825,2.825,0,0,0-.5.648,3.971,3.971,0,0,0-.33.749,6.306,6.306,0,0,0-.2.8,7.492,7.492,0,0,0-.1.8c-.017.242-.025.493-.025.746a2.1,2.1,0,0,0,.623,1.587,2.243,2.243,0,0,0,1.606.586H8.312a2.242,2.242,0,0,0,1.606-.586,2.1,2.1,0,0,0,.623-1.587c0-.255-.009-.506-.026-.746Zm0,0" transform="translate(0 -241.213)" fill="#fff"/>
      </g>
    </g>
  </g>
</svg>
