<svg xmlns="http://www.w3.org/2000/svg" width="30" height="30" viewBox="0 0 30 30">
  <g id="Layer_2" data-name="Layer 2" transform="translate(-2 -2)">
    <path id="Path_93638" data-name="Path 93638" d="M17.893,19.307a1,1,0,1,0,1.414-1.414L17,15.586V9.5a1,1,0,0,0-2,0V16a1,1,0,0,0,.293.707Z" transform="translate(1.111 0.769)" fill="#ff0935"/>
    <path id="Path_93639" data-name="Path 93639" d="M17,32A15,15,0,1,0,2,17,15,15,0,0,0,17,32ZM17,4.143A12.857,12.857,0,1,1,4.143,17,12.857,12.857,0,0,1,17,4.143Z" transform="translate(0 0)" fill="#ff0935"/>
  </g>
</svg>
