
<svg id="Group_33933" data-name="Group 33933" xmlns="http://www.w3.org/2000/svg" width="18" height="18" viewBox="0 0 18 18">
  <rect id="Rectangle_13713" data-name="Rectangle 13713" width="18" height="18" fill="none"/>
  <g id="Group_33497" data-name="Group 33497" transform="translate(1.249 3.327)">
    <path id="Path_90" data-name="Path 90" d="M333.21,290.214a2.631,2.631,0,0,1-2.574,2.7c-.11,0-5.44-.005-5.44-.005a2.655,2.655,0,0,1-2.886-2.373c-.009-.106-.007-5.826-.007-5.826a2.633,2.633,0,0,1,2.571-2.7c.111-.005,5.434,0,5.434,0a2.667,2.667,0,0,1,2.9,2.388C333.212,284.5,333.21,290.214,333.21,290.214Z" transform="translate(-322.3 -282)" fill="none" stroke="#000" stroke-linecap="round" stroke-linejoin="round" stroke-width="1.2"/>
    <path id="Path_91" data-name="Path 91" d="M336.3,286.323l2.567-2.1a.973.973,0,0,1,1.589.754l-.009,5.728a.973.973,0,0,1-1.59.75l-2.556-2.1" transform="translate(-325.388 -282.441)" fill="none" stroke="#000" stroke-linecap="round" stroke-linejoin="round" stroke-width="1.2"/>
  </g>
</svg>
