
<svg xmlns="http://www.w3.org/2000/svg" width="40" height="40" viewBox="0 0 40 40">
  <g id="Web" transform="translate(-479 -579)">
    <rect id="Rectangle_10683" data-name="Rectangle 10683" width="40" height="40" rx="8" transform="translate(479 579)" fill="#efefef"/>
    <path id="web-39" d="M102.565,99.733a17.228,17.228,0,0,0,0-4.8h4.056a9.387,9.387,0,0,1,0,4.8m-6.18,6.672a18.78,18.78,0,0,0,1.656-4.272h3.54a9.636,9.636,0,0,1-5.2,4.272m-.3-6.672H94.525a15.1,15.1,0,0,1,0-4.8h5.616a15.1,15.1,0,0,1,0,4.8m-2.808,7.152a16.276,16.276,0,0,1-2.292-4.752h4.584a16.276,16.276,0,0,1-2.292,4.752m-4.8-14.352h-3.5a9.508,9.508,0,0,1,5.184-4.272,20.683,20.683,0,0,0-1.68,4.272m-3.5,9.6h3.5a20.683,20.683,0,0,0,1.68,4.272,9.61,9.61,0,0,1-5.184-4.272m-.984-2.4a9.387,9.387,0,0,1,0-4.8H92.1a17.228,17.228,0,0,0,0,4.8m5.232-11.964a16.343,16.343,0,0,1,2.292,4.764H95.041a16.342,16.342,0,0,1,2.292-4.764m8.3,4.764H102.1a18.78,18.78,0,0,0-1.656-4.272,9.584,9.584,0,0,1,5.2,4.272m-8.3-7.2a12,12,0,1,0,12,12A12.012,12.012,0,0,0,97.333,85.333Z" transform="translate(401.667 501.667)" fill="#006599" stroke="#efefef" stroke-width="0.4"/>
  </g>
</svg>
