<svg xmlns="http://www.w3.org/2000/svg" width="24" height="24" viewBox="0 0 24 24">
  <g id="linkedin-svgrepo-com_1_" data-name="linkedin-svgrepo-com (1)" transform="translate(-4 0.232)">
    <circle id="Ellipse_1323" data-name="Ellipse 1323" cx="12" cy="12" r="12" transform="translate(4 -0.232)" fill="#0077b5"/>
    <path id="Path_58724" data-name="Path 58724" d="M16.849,13.363a1.35,1.35,0,0,1-1.45,1.344A1.354,1.354,0,1,1,15.416,12,1.348,1.348,0,0,1,16.849,13.363ZM14.072,24.422V15.769h2.689v8.653H14.072Z" transform="translate(-4.033 -7.227)" fill="#fff" fill-rule="evenodd"/>
    <path id="Path_58725" data-name="Path 58725" d="M22.191,20.947c0-1.079-.036-2-.071-2.76h2.336l.124,1.185h.053a3.167,3.167,0,0,1,2.672-1.38c1.769,0,3.1,1.168,3.1,3.715V26.84H27.712v-4.8c0-1.115-.389-1.876-1.362-1.876a1.435,1.435,0,0,0-1.362,1.008,1.909,1.909,0,0,0-.106.673v4.99H22.192V20.947Z" transform="translate(-7.309 -9.644)" fill="#fff" fill-rule="evenodd"/>
  </g>
</svg>