<svg xmlns="http://www.w3.org/2000/svg" width="24" height="24" viewBox="0 0 24 24">
  <g id="Layer_2" data-name="Layer 2" transform="translate(-62 20)">
    <path id="Path_93576" data-name="Path 93576" d="M22.914,26H17.343a.857.857,0,0,1,0-1.714h5.571a1.371,1.371,0,0,0,1.371-1.371V17.343a.857.857,0,0,1,1.714,0v5.571A3.094,3.094,0,0,1,22.914,26Zm-11.4-.857a.857.857,0,0,0-.857-.857H5.086a1.371,1.371,0,0,1-1.371-1.371V17.343a.857.857,0,0,0-1.714,0v5.571A3.094,3.094,0,0,0,5.086,26h5.571A.857.857,0,0,0,11.514,25.143Zm-7.8-14.486V5.086A1.371,1.371,0,0,1,5.086,3.714h5.571a.857.857,0,0,0,0-1.714H5.086A3.094,3.094,0,0,0,2,5.086v5.571a.857.857,0,0,0,1.714,0Zm22.286,0V5.086A3.094,3.094,0,0,0,22.914,2H17.343a.857.857,0,0,0,0,1.714h5.571a1.371,1.371,0,0,1,1.371,1.371v5.571a.857.857,0,0,0,1.714,0Z" transform="translate(60 -22)" fill="#fff"/>
  </g>
</svg>
