<svg id="volume-high" xmlns="http://www.w3.org/2000/svg" width="24" height="24" viewBox="0 0 24 24">
  <g id="volume-high-2" data-name="volume-high" transform="translate(-684 -188)">
    <path id="Vector" d="M.75,9.5A.76.76,0,0,1,.3,9.35.75.75,0,0,1,.15,8.3a5.94,5.94,0,0,0,0-7.1A.75.75,0,1,1,1.35.3a7.471,7.471,0,0,1,0,8.9A.739.739,0,0,1,.75,9.5Z" transform="translate(701.25 195.25)" fill="#fff"/>
    <path id="Vector-2" data-name="Vector" d="M.75,14.5a.76.76,0,0,1-.45-.15A.75.75,0,0,1,.15,13.3a10.14,10.14,0,0,0,0-12.1A.75.75,0,1,1,1.35.3a11.64,11.64,0,0,1,0,13.9A.726.726,0,0,1,.75,14.5Z" transform="translate(703.08 192.75)" fill="#fff"/>
    <path id="Vector-3" data-name="Vector" d="M12.77.372a3.911,3.911,0,0,0-4.01.45L5.84,2.652a1.3,1.3,0,0,1-.66.19H3.75A3.381,3.381,0,0,0,0,6.592v4a3.381,3.381,0,0,0,3.75,3.75H5.18a1.3,1.3,0,0,1,.66.19l2.92,1.83a4.832,4.832,0,0,0,2.54.82,3,3,0,0,0,1.47-.37,3.9,3.9,0,0,0,1.73-3.63V4A3.9,3.9,0,0,0,12.77.372Z" transform="translate(685.25 191.408)" fill="#fff"/>
    <path id="Vector-4" data-name="Vector" d="M0,0H24V24H0Z" transform="translate(684 188)" fill="none" opacity="0"/>
  </g>
</svg>
