<svg id="volume-high" xmlns="http://www.w3.org/2000/svg" width="24" height="24" viewBox="0 0 24 24">
  <g id="vuesax_bold_volume-slash" data-name="vuesax/bold/volume-slash" transform="translate(-428 -188)">
    <g id="volume-slash">
      <path id="Vector" d="M.75,8.078a.76.76,0,0,1-.45-.15.75.75,0,0,1-.15-1.05,5.926,5.926,0,0,0,.72-5.84A.748.748,0,1,1,2.25.458a7.456,7.456,0,0,1-.9,7.33A.758.758,0,0,1,.75,8.078Z" transform="translate(445.25 196.672)" fill="#fff"/>
      <path id="Vector-2" data-name="Vector" d="M.75,12.2a.76.76,0,0,1-.45-.15A.75.75,0,0,1,.15,11a10.129,10.129,0,0,0,1.23-9.96A.748.748,0,0,1,2.76.458,11.618,11.618,0,0,1,1.35,11.9.726.726,0,0,1,.75,12.2Z" transform="translate(447.08 195.052)" fill="#fff"/>
      <path id="Vector-3" data-name="Vector" d="M5.138.294A1,1,0,0,1,6.848,1v2.93a3.9,3.9,0,0,1-1.73,3.63,3,3,0,0,1-1.47.37,4.832,4.832,0,0,1-2.54-.82l-.64-.4a1,1,0,0,1-.18-1.55Z" transform="translate(436.902 200.666)" fill="#fff"/>
      <path id="Vector-4" data-name="Vector" d="M20.52.225a.773.773,0,0,0-1.09,0l-4.95,4.95a3.8,3.8,0,0,0-1.72-3.39,3.911,3.911,0,0,0-4.01.45L5.84,4.055a1.3,1.3,0,0,1-.66.19H3.75A3.381,3.381,0,0,0,0,7.995v4a3.381,3.381,0,0,0,3.75,3.75h.16L.97,18.685a.773.773,0,0,0,0,1.09.834.834,0,0,0,.55.22.758.758,0,0,0,.54-.23L20.52,1.3A.743.743,0,0,0,20.52.225Z" transform="translate(429.25 190.005)" fill="#fff"/>
      <path id="Vector-5" data-name="Vector" d="M0,0H24V24H0Z" transform="translate(428 188)" fill="none" opacity="0"/>
    </g>
  </g>
</svg>
