<svg xmlns="http://www.w3.org/2000/svg" width="31.811" height="23.274" viewBox="0 0 31.811 23.274">
  <g id="programming" transform="translate(0 -68.701)">
    <path id="Path_58462" data-name="Path 58462" d="M79.034,158.656l-5.395,5.395a.932.932,0,0,0,0,1.318l4.871,4.871a.932.932,0,1,0,1.318-1.318l-4.212-4.212,4.736-4.736a.932.932,0,1,0-1.318-1.318Z" transform="translate(-68.808 -84.11)" fill="currentColor"/>
    <path id="Path_58463" data-name="Path 58463" d="M323.915,158.656a.932.932,0,0,0-1.318,1.318l4.212,4.212-4.736,4.736a.932.932,0,1,0,1.318,1.318l5.395-5.395a.932.932,0,0,0,0-1.318Z" transform="translate(-301.807 -84.11)" fill="currentColor"/>
    <path id="Path_58464" data-name="Path 58464" d="M207.243,128.751a.932.932,0,0,0-1.189.568l-4.928,13.954a.932.932,0,1,0,1.758.621l4.928-13.954A.932.932,0,0,0,207.243,128.751Z" transform="translate(-188.579 -56.269)" fill="currentColor"/>
    <path id="Path_58465" data-name="Path 58465" d="M27.309,68.7H4.5A4.507,4.507,0,0,0,0,73.2v14.27a4.507,4.507,0,0,0,4.5,4.5H27.309a4.507,4.507,0,0,0,4.5-4.5V73.2A4.507,4.507,0,0,0,27.309,68.7Zm2.638,18.772a2.641,2.641,0,0,1-2.638,2.638H4.5a2.641,2.641,0,0,1-2.638-2.638V73.2A2.641,2.641,0,0,1,4.5,70.565H27.309A2.641,2.641,0,0,1,29.947,73.2Z" fill="currentColor"/>
  </g>
</svg>
