<svg xmlns="http://www.w3.org/2000/svg" width="28.763" height="32.874" viewBox="0 0 28.763 32.874">
  <g id="headphones_1_" data-name="headphones (1)" transform="translate(-26.38 0.1)">
    <g id="Group_37051" data-name="Group 37051" transform="translate(26.48)">
      <path id="Path_58444" data-name="Path 58444" d="M51.939,11.177a11.177,11.177,0,0,0-22.354,0,3.371,3.371,0,0,0-3.1,3.664v5.837A3.466,3.466,0,0,0,30.206,24.4h1.8a.621.621,0,0,0,.621-.621V11.761a.621.621,0,0,0-.621-.621h-1.18a9.935,9.935,0,1,1,19.87,0h-1.18a.621.621,0,0,0-.621.621v12a.621.621,0,0,0,.621.621H50.7c-.174,4.266-2.223,5.266-6.315,5.446v-.416a1.242,1.242,0,0,0-1.242-1.242H39.234a1.242,1.242,0,0,0-1.242,1.242v2.018a1.242,1.242,0,0,0,1.242,1.242h3.918a1.242,1.242,0,0,0,1.242-1.242v-.36c3.937-.18,7.34-.994,7.544-6.725a3.371,3.371,0,0,0,3.1-3.664V14.847A3.366,3.366,0,0,0,51.939,11.177ZM31.385,12.338v10.8H30.175a2.255,2.255,0,0,1-2.484-2.484V14.822a2.257,2.257,0,0,1,2.484-2.484ZM43.152,30.494v.944H39.234V29.42h3.918ZM53.8,20.677a2.257,2.257,0,0,1-2.484,2.484h-1.18V12.382h1.211a2.255,2.255,0,0,1,2.484,2.484Z" transform="translate(-26.48)" fill="currentColor" stroke="currentColor" stroke-width="0.2"/>
    </g>
  </g>
</svg>
