
<svg xmlns="http://www.w3.org/2000/svg" xmlns:xlink="http://www.w3.org/1999/xlink" width="161.202" height="44.146" viewBox="0 0 161.202 44.146">
  <defs>
    <filter id="Path_61829" x="0" y="0" width="57.406" height="44.146" filterUnits="userSpaceOnUse">
      <feOffset dx="5" dy="3" input="SourceAlpha"/>
      <feGaussianBlur stdDeviation="3" result="blur"/>
      <feFlood flood-opacity="0.161"/>
      <feComposite operator="in" in2="blur"/>
      <feComposite in="SourceGraphic"/>
    </filter>
    <linearGradient id="linear-gradient" x1="0.5" x2="0.5" y2="1" gradientUnits="objectBoundingBox">
      <stop offset="0" stop-color="#176dfc"/>
      <stop offset="1" stop-color="#014ece"/>
    </linearGradient>
  </defs>
  <g id="Layer_1" data-name="Layer 1" transform="translate(4 6.002)">
    <g id="Group_64940" data-name="Group 64940" transform="translate(0 -0.002)">
      <g id="Group_64938" data-name="Group 64938" transform="translate(0 0)">
        <path id="Path_61827" data-name="Path 61827" d="M1.27,146.492l8.455,6.571a.917.917,0,0,0,1.48-.727V146.49" transform="translate(-1.05 -121.079)" fill="#45bd9f"/>
        <path id="Path_61828" data-name="Path 61828" d="M61.979,27.865V47.13a1.2,1.2,0,0,1-1.245,1.14H28.58a1.126,1.126,0,0,1-.671-2.1L60.459,27.1a.994.994,0,0,1,1.521.762Z" transform="translate(-22.592 -22.283)" fill="#ffd219"/>
        <path id="Path_339" data-name="Path 339" d="M409.16,2072.617l4.019-2.377,12.429,12.724Z" transform="translate(-386.549 -2058.852)" opacity="0.15"/>
        <g transform="matrix(1, 0, 0, 1, -4, -6)" filter="url(#Path_61829)">
          <path id="Path_61829-2" data-name="Path 61829" d="M0,1.11V24.748a1.405,1.405,0,0,0,1.415,1.4H37.988a1.4,1.4,0,0,0,.763-2.574L1.729.175A1.124,1.124,0,0,0,0,1.11Z" transform="translate(4 6)" fill="#ee243d"/>
        </g>
        <path id="Path_61830" data-name="Path 61830" d="M85.884,110.015a1.421,1.421,0,0,0-1.374-1.426,1.472,1.472,0,0,0-1.44,1.44,1.438,1.438,0,0,0,1.424,1.384,1.4,1.4,0,0,0,1.389-1.4Zm-7.416,1.422a1.4,1.4,0,0,0,1.386-1.409,1.428,1.428,0,0,0-1.386-1.419,1.472,1.472,0,0,0-1.433,1.448A1.442,1.442,0,0,0,78.469,111.438Zm-6.037.033a1.409,1.409,0,0,0,1.388-1.41,1.439,1.439,0,0,0-1.395-1.417A1.467,1.467,0,0,0,71,110.095,1.436,1.436,0,0,0,72.432,111.47Z" transform="translate(-58.682 -89.753)" fill="#fff"/>
      </g>
      <g id="Group_64939" data-name="Group 64939" transform="translate(49.841 3.097)">
        <path id="Path_61831" data-name="Path 61831" d="M304.806,39.274a8.741,8.741,0,1,1-8.763-8.514A8.566,8.566,0,0,1,304.806,39.274Zm-14.016,0a5.278,5.278,0,1,0,10.554,0,5.278,5.278,0,1,0-10.554,0Z" transform="translate(-287.33 -28.521)" fill="url(#linear-gradient)"/>
        <path id="Path_61832" data-name="Path 61832" d="M414.467,59.534v6.224a1.669,1.669,0,1,1-3.336,0V59.983a2.223,2.223,0,0,0-2.29-2.39,2.275,2.275,0,0,0-2.34,2.39v5.775a1.649,1.649,0,0,1-1.669,1.717,1.683,1.683,0,0,1-1.693-1.717V56.273a1.643,1.643,0,0,1,1.667-1.693,1.6,1.6,0,0,1,1.568,1.27,5.091,5.091,0,0,1,3.461-1.27c2.814,0,4.63,1.941,4.63,4.954Z" transform="translate(-383.051 -48.209)" fill="url(#linear-gradient)"/>
        <path id="Path_61833" data-name="Path 61833" d="M483.792,47.5V35.526h-3.908a1.518,1.518,0,1,1,0-3.036h11.178a1.484,1.484,0,0,1,1.544,1.518,1.5,1.5,0,0,1-1.544,1.518h-3.908V47.5a1.669,1.669,0,0,1-1.693,1.717,1.649,1.649,0,0,1-1.669-1.717Z" transform="translate(-445.207 -29.951)" fill="url(#linear-gradient)"/>
        <path id="Path_61834" data-name="Path 61834" d="M582.359,29.175V35.4a1.669,1.669,0,1,1-3.337,0v-5.75a2.21,2.21,0,0,0-2.29-2.39,2.262,2.262,0,0,0-2.34,2.39V35.4a1.649,1.649,0,0,1-1.669,1.717A1.683,1.683,0,0,1,571.03,35.4V19.567a1.669,1.669,0,0,1,1.693-1.717,1.635,1.635,0,0,1,1.669,1.717v6a4.692,4.692,0,0,1,3.386-1.344C580.541,24.221,582.359,26.188,582.359,29.175Z" transform="translate(-521.818 -17.85)" fill="url(#linear-gradient)"/>
        <path id="Path_61835" data-name="Path 61835" d="M663.218,60.356v.075a1.681,1.681,0,0,1-1.842,1.717h-7.02a3.258,3.258,0,0,0,3.461,2.439,4.869,4.869,0,0,0,2.564-.722,1.364,1.364,0,0,1,.722-.224,1.329,1.329,0,0,1,1.369,1.344,1.539,1.539,0,0,1-.847,1.344,7,7,0,0,1-3.908,1.145,6.43,6.43,0,0,1-6.746-6.448,6.284,6.284,0,0,1,6.4-6.448,5.644,5.644,0,0,1,5.849,5.775Zm-8.862-.572h5.6a2.5,2.5,0,0,0-2.664-2.489A3,3,0,0,0,654.356,59.784Z" transform="translate(-587.892 -48.209)" fill="url(#linear-gradient)"/>
        <path id="Path_61836" data-name="Path 61836" d="M741.09,48.346V33.161a.654.654,0,0,1,.673-.671H750.6a.583.583,0,0,1,.6.572.6.6,0,0,1-.6.6h-8.215v6.349h6.746a.583.583,0,0,1,.6.572.6.6,0,0,1-.6.6h-6.746v7.169a.67.67,0,0,1-.647.7.655.655,0,0,1-.647-.7Z" transform="translate(-662.379 -29.951)" fill="url(#linear-gradient)"/>
        <path id="Path_61837" data-name="Path 61837" d="M814.7,36.677V18.753a.623.623,0,0,1,1.245,0V36.677a.6.6,0,0,1-.623.623A.617.617,0,0,1,814.7,36.677Z" transform="translate(-723.221 -18.081)" fill="url(#linear-gradient)"/>
        <path id="Path_61838" data-name="Path 61838" d="M851.337,57.073a.749.749,0,0,1-.075.274l-5.825,13.095c-.921,2.042-2.265,3.011-4.083,3.011a4.821,4.821,0,0,1-1.046-.1.6.6,0,0,1-.5-.572.578.578,0,0,1,.572-.572c.2,0,.572.1.871.1a3.129,3.129,0,0,0,3.011-2.191l.7-1.618-4.93-11.128a.744.744,0,0,1-.075-.3.617.617,0,0,1,.623-.623.631.631,0,0,1,.6.423l4.481,10.106,4.43-10.106a.642.642,0,0,1,.623-.423.632.632,0,0,1,.623.623Z" transform="translate(-743.975 -49.754)" fill="url(#linear-gradient)"/>
      </g>
    </g>
  </g>
</svg>
