<svg xmlns="http://www.w3.org/2000/svg" width="13.939" height="15.859" viewBox="0 0 13.939 15.859">
    <g transform="translate(-31)">
        <path fill="#fff"
            d="M43.08,12.264a2.037,2.037,0,0,0-.6-1.45,1.115,1.115,0,0,1-.328-.793V6.5a3.721,3.721,0,0,1-3.717-3.717,3.679,3.679,0,0,1,.347-1.547A5.159,5.159,0,0,0,37.5.972V0h-.929V.953A5.116,5.116,0,0,0,31.929,6.04v3.98a1.114,1.114,0,0,1-.328.793,2.037,2.037,0,0,0-.6,1.45V13H43.08Z"
            transform="translate(0 0)" />
        <path class="pulse" fill="#1c97ce" d="M303.788,5.576A2.788,2.788,0,1,0,301,2.788,2.788,2.788,0,0,0,303.788,5.576Z"
            transform="translate(-261.637)" />
        <path fill="#fff" d="M168.23,483.477A2.218,2.218,0,0,0,170.076,482h-3.693A2.218,2.218,0,0,0,168.23,483.477Z"
            transform="translate(-131.189 -467.618)" />
    </g>
</svg>