<svg xmlns="http://www.w3.org/2000/svg" width="12.08" height="15.859" viewBox="0 0 12.08 15.859">
    <g transform="translate(-31)">
        <path fill="#fff"
            d="M43.08,12.264a2.037,2.037,0,0,0-.6-1.45,1.115,1.115,0,0,1-.328-.793V6.5c0-5.182-4.2-5.491-4.646-5.533V0h-.929V.953A5.116,5.116,0,0,0,31.929,6.04v3.98a1.114,1.114,0,0,1-.328.793,2.037,2.037,0,0,0-.6,1.45V13H43.08Z"
            transform="translate(0 0)" />
        <path fill="#fff" d="M168.23,483.477A2.218,2.218,0,0,0,170.076,482h-3.693A2.218,2.218,0,0,0,168.23,483.477Z"
            transform="translate(-131.189 -467.618)" />
    </g>
</svg>