<svg xmlns="http://www.w3.org/2000/svg" width="5.699" height="9.962" viewBox="0 0 5.699 9.962">
  <g id="Layer_2_00000138552524522459854550000011744709226081174206_" transform="translate(115.269 0) rotate(90)">
    <g id="chevron_down" transform="translate(0 109.57)">
      <path id="Path_61816" data-name="Path 61816" d="M9.942,110.127a.652.652,0,0,0-.49-.525.726.726,0,0,0-.755.22q-1.223,1.226-2.442,2.455c-.409.409-.821.815-1.272,1.265l-3.724-3.724a.732.732,0,0,0-1.043-.054.726.726,0,0,0,.012,1.045q2.107,2.119,4.228,4.228a.709.709,0,0,0,1.041.012q2.13-2.116,4.245-4.243A.7.7,0,0,0,9.942,110.127Z" transform="translate(0 -109.57)" fill="currentColor"/>
    </g>
  </g>
</svg>
