<svg id="Icon" xmlns="http://www.w3.org/2000/svg" width="40" height="40" viewBox="0 0 40 40"> <circle id="Ellipse_16" data-name="Ellipse 16" cx="20" cy="20" r="20" fill="#ff0935" opacity="0.13"/> <g id="vuesax_linear_image" data-name="vuesax/linear/image" transform="translate(-228 -310)"> <g id="image"> <path id="Vector" d="M19.7,9.237l-3.13-7.31c-1.06-2.48-3.01-2.58-4.32-.22l-1.89,3.41a2.24,2.24,0,0,1-3.99.33l-.22-.28c-1.29-1.62-3.11-1.42-4.04.43L.39,9.047a3.608,3.608,0,0,0,3.22,5.23H16.37A3.617,3.617,0,0,0,19.7,9.237Z" transform="translate(237.98 325.723)" fill="none" stroke="#ff4747" stroke-linecap="round" stroke-linejoin="round" stroke-width="1.5"/> <path id="Vector-2" data-name="Vector" d="M6,3A3,3,0,1,1,3,0,3,3,0,0,1,6,3Z" transform="translate(239.97 320)" fill="none" stroke="#ff4747" stroke-linecap="round" stroke-linejoin="round" stroke-width="1.5"/> <path id="Vector-3" data-name="Vector" d="M0,0H24V24H0Z" transform="translate(236 318)" fill="none" opacity="0"/> </g> </g> </svg>