
<svg xmlns="http://www.w3.org/2000/svg" width="16.63" height="16.63" viewBox="0 0 16.63 16.63">
  <g id="Group_66511" data-name="Group 66511" transform="translate(-962.186 -683.186)">
    <circle id="Ellipse_7134" data-name="Ellipse 7134" cx="7.5" cy="7.5" r="7.5" transform="translate(963 684)" fill="#fff"/>
    <g id="Layer_35" data-name="Layer 35" transform="translate(958.785 679.785)">
      <path id="Path_93589" data-name="Path 93589" d="M11.715,3.4a8.315,8.315,0,1,0,8.315,8.315A8.315,8.315,0,0,0,11.715,3.4Zm0,14.3a1.256,1.256,0,1,1,1.253-1.253A1.256,1.256,0,0,1,11.715,17.7Zm1.52-10.35-.474,6.4a.174.174,0,0,1-.174.163H10.842a.174.174,0,0,1-.174-.163l-.474-6.4a1.523,1.523,0,1,1,3.041,0Z" fill="#ffc048"/>
    </g>
  </g>
</svg>
