
<svg xmlns="http://www.w3.org/2000/svg" width="20" height="20" viewBox="0 0 20 20">
  <g id="Edit" transform="translate(-1083 -308)">
    <rect id="Rectangle_13492" data-name="Rectangle 13492" width="20" height="20" transform="translate(1083 308)" fill="none"/>
    <g id="Group_32911" data-name="Group 32911" transform="translate(1087 311)">
      <path id="Path_147" data-name="Path 147" d="M274.7,392.626a1.768,1.768,0,0,1,2.454-.239l1.365,1.061a1.687,1.687,0,0,1,.567,2.35c-.027.043-7.51,9.4-7.51,9.4a1.335,1.335,0,0,1-1.031.5l-2.866.036L267.035,403a1.283,1.283,0,0,1,.249-1.1Z" transform="translate(-267 -392)" fill="#0062ff"/>
      <path id="Path_148" data-name="Path 148" d="M275.021,395l4.293,3.3" transform="translate(-268.705 -392.638)" fill="none" stroke="#fff" stroke-linecap="round" stroke-linejoin="round" stroke-width="1.5"/>
    </g>
  </g>
</svg>
