<svg xmlns="http://www.w3.org/2000/svg" width="2.063rem" height="2.063rem" viewBox="0 0 33 33">
    <defs>
        <style>
            .aedit {
                fill: #555;
                stroke: #fff;
                stroke-width: 0.125rem;
            }

            .bedit {
                fill: #fff;
            }

            .cedit {
                stroke: none;
            }

            .dedit {
                fill: none;
            }
        </style>
    </defs>
    <g transform="translate(-578 -204)">
        <g class="aedit" transform="translate(578 204)">
            <circle class="cedit" cx="16.5" cy="16.5" r="16.5" />
        </g>
        <path class="bedit"
            d="M4394.97,978.7a2.352,2.352,0,0,0-3.328,0l-6.1,6.1a.3.3,0,0,0-.087.175l-.452,3.347a.305.305,0,0,0,.086.256.31.31,0,0,0,.216.091.258.258,0,0,0,.041,0l2.017-.273a.307.307,0,1,0-.082-.608l-1.618.218.316-2.334,2.458,2.457a.308.308,0,0,0,.216.091.3.3,0,0,0,.215-.091l6.1-6.1a2.347,2.347,0,0,0,0-3.326Zm-3.209.749,1.025,1.024-5.569,5.565-1.023-1.024Zm-3.105,8.024-1-1,5.567-5.565,1,1Zm5.995-6-2.451-2.45a1.74,1.74,0,0,1,2.451,2.45Z"
            transform="translate(-3795.999 -763.014)" />
    </g>
</svg>