
<svg xmlns="http://www.w3.org/2000/svg" width="32" height="32" viewBox="0 0 32 32">
  <g id="icon_Fullscreen" data-name="icon/Fullscreen" transform="translate(12375 -349)">
    <rect fill="#000" id="Rectangle_24106" data-name="Rectangle 24106" width="32" height="32" rx="4" transform="translate(-12375 349)"/>
    <g id="Layer_2" data-name="Layer 2" transform="translate(-12431 375)">
      <path id="Path_93576" data-name="Path 93576" d="M19.429,22H14.786a.714.714,0,0,1,0-1.429h4.643a1.143,1.143,0,0,0,1.143-1.143V14.786a.714.714,0,0,1,1.429,0v4.643A2.579,2.579,0,0,1,19.429,22Zm-9.5-.714a.714.714,0,0,0-.714-.714H4.571a1.143,1.143,0,0,1-1.143-1.143V14.786a.714.714,0,0,0-1.429,0v4.643A2.579,2.579,0,0,0,4.571,22H9.214A.714.714,0,0,0,9.929,21.286ZM3.429,9.214V4.571A1.143,1.143,0,0,1,4.571,3.429H9.214A.714.714,0,0,0,9.214,2H4.571A2.579,2.579,0,0,0,2,4.571V9.214a.714.714,0,1,0,1.429,0ZM22,9.214V4.571A2.579,2.579,0,0,0,19.429,2H14.786a.714.714,0,0,0,0,1.429h4.643a1.143,1.143,0,0,1,1.143,1.143V9.214a.714.714,0,0,0,1.429,0Z" transform="translate(60 -22)" fill="#fff" stroke="#fff" stroke-width="0.5"/>
    </g>
  </g>
</svg>
