<svg id="Component_508_2" data-name="Component 508 – 2" xmlns="http://www.w3.org/2000/svg" width="20" height="20" viewBox="0 0 20 20">
  <rect id="Rectangle_13753" data-name="Rectangle 13753" width="20" height="20" fill="none"/>
  <g id="Group_6" data-name="Group 6">
    <path id="Path_40179" data-name="Path 40179" d="M1.251,5.135c0-2.623.166-3.884,3.884-3.884s3.884,1.26,3.884,3.884c0,1.323,0,2.264-.546,2.942-.629.782-1.789.942-3.338.942S2.427,8.858,1.8,8.076c-.546-.678-.546-1.617-.546-2.917M5.135,2.507c-2.628,0-2.628.249-2.628,2.628v.023a4.159,4.159,0,0,0,.269,2.13c.264.327.991.474,2.359.474s2.1-.146,2.36-.473a4.178,4.178,0,0,0,.268-2.133C7.762,2.756,7.762,2.507,5.135,2.507Z" fill="#1a1818"/>
    <path id="Path_40180" data-name="Path 40180" d="M13.471,5.135c0-2.623.165-3.884,3.884-3.884s3.884,1.26,3.884,3.884c0,1.325,0,2.264-.547,2.943-.629.781-1.789.941-3.337.941s-2.708-.16-3.338-.943c-.546-.679-.546-1.619-.546-2.919m3.884-2.649c-2.628,0-2.628.249-2.628,2.628v.022A4.163,4.163,0,0,0,15,7.288c.264.328.991.475,2.359.475s2.1-.146,2.359-.473a4.159,4.159,0,0,0,.269-2.131C19.982,2.756,19.982,2.507,17.355,2.507Z" transform="translate(-1.987)" fill="#1a1818"/>
    <path id="Path_40181" data-name="Path 40181" d="M1.251,17.355c0-2.623.166-3.884,3.884-3.884s3.884,1.261,3.884,3.884c0,1.324,0,2.264-.546,2.942-.629.782-1.789.942-3.338.942S2.427,21.078,1.8,20.3c-.546-.677-.546-1.617-.546-2.917m3.884-2.651c-2.628,0-2.628.249-2.628,2.628v.023a4.159,4.159,0,0,0,.269,2.13c.264.327.991.474,2.359.474s2.1-.146,2.36-.473a4.178,4.178,0,0,0,.268-2.133C7.762,14.976,7.762,14.727,5.135,14.727Z" transform="translate(0 -1.987)" fill="#1a1818"/>
    <path id="Path_40182" data-name="Path 40182" d="M13.471,17.355c0-2.623.165-3.884,3.884-3.884s3.884,1.261,3.884,3.884c0,1.325,0,2.265-.547,2.943-.629.781-1.789.941-3.337.941s-2.708-.16-3.338-.943c-.546-.678-.546-1.618-.546-2.919m3.884-2.649c-2.628,0-2.628.249-2.628,2.628v.022A4.163,4.163,0,0,0,15,19.508c.264.328.991.475,2.359.475s2.1-.146,2.359-.473a4.159,4.159,0,0,0,.269-2.131C19.982,14.976,19.982,14.727,17.355,14.727Z" transform="translate(-1.987 -1.987)" fill="#1a1818"/>
  </g>
</svg>
