<svg xmlns="http://www.w3.org/2000/svg" width="12.275" height="9.205" viewBox="0 0 12.275 9.205">
    <path fill-rule="evenodd"
        d="M6.137,40.409A2.166,2.166,0,0,0,8.05,38.138v-.362a1.914,1.914,0,1,0-3.826,0v.362A2.166,2.166,0,0,0,6.137,40.409ZM2.3,40.782a1.312,1.312,0,0,0,1.149-1.227v-.614a1.152,1.152,0,1,0-2.3,0v.614A1.326,1.326,0,0,0,2.3,40.782Zm6.888,1.535a.164.164,0,0,0,0-.018,1.479,1.479,0,0,0-.042-.212,0,0,0,0,0,0,0,1.312,1.312,0,0,0-.209-.429h0a2.463,2.463,0,0,0-.824-.693.908.908,0,0,0-.443-.176c-.211,0-.4.165-.707.45h0l-.283.26c-.01.01-.315.441-.544.441s-.533-.431-.544-.441l-.283-.26h0c-.311-.286-.5-.45-.707-.45a.832.832,0,0,0-.443.176,2.883,2.883,0,0,0-.824.69h0v0a1.312,1.312,0,0,0-.207.426l0,0a1.52,1.52,0,0,0-.041.21.18.18,0,0,1,0,.019,2.127,2.127,0,0,0-.013.234v1.688c0,.545.205.767.767.767h4.6c.566,0,.767-.21.767-.767V42.549A2.158,2.158,0,0,0,9.192,42.317Zm.784-1.535a1.312,1.312,0,0,0,1.149-1.227v-.614a1.152,1.152,0,1,0-2.3,0v.614A1.325,1.325,0,0,0,9.976,40.782Zm-9.1.831A1.66,1.66,0,0,0,0,43.088c0,.007,0,.761,0,.767,0,.557.187.767.767.767H2.3v-2.3l-.384-.383C1.512,41.58,1.171,41.444.873,41.613Zm1.429.708C2.31,42.329,2.3,42.139,2.3,42.321Zm9.973.767a1.66,1.66,0,0,0-.872-1.476c-.3-.169-.639-.033-1.045.325l-.384.384v2.3h1.535c.58,0,.767-.21.767-.767C12.275,43.85,12.274,43.1,12.274,43.088Zm-2.3-.767C9.973,42.139,9.964,42.329,9.973,42.321Z"
        transform="translate(0 -35.8)" />
</svg>