<svg id="internet" xmlns="http://www.w3.org/2000/svg" width="30.71" height="30.71" viewBox="0 0 30.71 30.71">
  <g id="Group_66618" data-name="Group 66618" transform="translate(0 0)">
    <path id="Path_93633" data-name="Path 93633" d="M15.355,0A15.355,15.355,0,1,0,30.71,15.355,15.388,15.388,0,0,0,15.355,0Zm-4.58,2.6A15.251,15.251,0,0,0,8.426,7.2H4.536A13.618,13.618,0,0,1,10.775,2.6ZM3.386,8.991H7.917a27.242,27.242,0,0,0-.705,5.464H1.83A13.484,13.484,0,0,1,3.386,8.991Zm0,12.722A13.457,13.457,0,0,1,1.83,16.255H7.212a27.182,27.182,0,0,0,.705,5.458Zm1.15,1.8h3.89a15.251,15.251,0,0,0,2.349,4.6A13.618,13.618,0,0,1,4.536,23.512Zm9.92,5.246c-2.009-.675-3.394-3.254-4.125-5.246h4.125Zm0-7.045H9.77a25.006,25.006,0,0,1-.758-5.458h5.443Zm0-7.258H9.012A25.013,25.013,0,0,1,9.77,9h4.685Zm0-7.258H10.33c.731-1.991,2.117-4.57,4.125-5.246ZM27.324,9a13.456,13.456,0,0,1,1.556,5.458H23.5A27.181,27.181,0,0,0,22.793,9Zm-1.15-1.8h-3.89a15.251,15.251,0,0,0-2.349-4.6A13.618,13.618,0,0,1,26.174,7.2Zm-9.92-5.246c2.009.675,3.394,3.254,4.125,5.246H16.255Zm0,7.045H20.94a25.006,25.006,0,0,1,.758,5.458H16.255Zm0,7.252H21.7a25.069,25.069,0,0,1-.758,5.464H16.255Zm0,12.509V23.506H20.38C19.649,25.5,18.264,28.083,16.255,28.758Zm3.681-.644a15.284,15.284,0,0,0,2.349-4.607h3.89A13.63,13.63,0,0,1,19.935,28.113Zm7.389-6.4H22.793a27.242,27.242,0,0,0,.705-5.464H28.88A13.484,13.484,0,0,1,27.324,21.713Z" transform="translate(0 0)" fill="#ff0935"/>
  </g>
</svg>
