<svg xmlns="http://www.w3.org/2000/svg" width="12" height="11.994" viewBox="0 0 12 11.994">
  <g id="Icon_ionic-ios-link" data-name="Icon ionic-ios-link" transform="translate(-3.375 -3.375)">
    <path id="Path_93587" data-name="Path 93587" d="M10.064,17.513l-.035,0a.477.477,0,0,0-.277.13L7.89,19.508a2.1,2.1,0,0,1-2.97-2.97L6.9,14.56a2.088,2.088,0,0,1,.329-.268,2.119,2.119,0,0,1,.427-.216,2.019,2.019,0,0,1,.432-.107,2.044,2.044,0,0,1,.294-.02c.04,0,.081,0,.133.006a2.094,2.094,0,0,1,1.349.605,2.067,2.067,0,0,1,.493.787.454.454,0,0,0,.556.291l.009,0s.006,0,.006,0a.45.45,0,0,0,.3-.551A2.613,2.613,0,0,0,10.52,13.9a3.035,3.035,0,0,0-1.661-.845c-.055-.009-.11-.017-.164-.023a2.976,2.976,0,0,0-.32-.017c-.075,0-.15,0-.222.009a2.908,2.908,0,0,0-.467.072c-.032.006-.061.014-.092.023a3,3,0,0,0-.562.21,2.962,2.962,0,0,0-.8.574L4.254,15.881a3.041,3.041,0,0,0-.879,2.148,3.032,3.032,0,0,0,5.173,2.142l1.883-1.883A.456.456,0,0,0,10.064,17.513Z" transform="translate(0 -5.687)"/>
    <path id="Path_93588" data-name="Path 93588" d="M20.438,4.26a3.038,3.038,0,0,0-4.287,0L14.314,6.1a.464.464,0,0,0,.291.79.468.468,0,0,0,.366-.133L16.811,4.92a2.1,2.1,0,0,1,2.97,2.97L17.8,9.868a2.087,2.087,0,0,1-.329.268,2.119,2.119,0,0,1-.427.216,2.019,2.019,0,0,1-.432.107,2.045,2.045,0,0,1-.294.02c-.04,0-.084,0-.133-.006a2.072,2.072,0,0,1-1.822-1.341.461.461,0,0,0-.551-.283.466.466,0,0,0-.326.591,2.634,2.634,0,0,0,.683,1.081h0l.006.006A3.036,3.036,0,0,0,16,11.4a2.976,2.976,0,0,0,.32.017q.112,0,.225-.009a3.3,3.3,0,0,0,.556-.092,3,3,0,0,0,.562-.21,2.962,2.962,0,0,0,.8-.574L20.444,8.55a3.035,3.035,0,0,0-.006-4.29Z" transform="translate(-5.954)"/>
  </g>
</svg>
