<svg xmlns="http://www.w3.org/2000/svg" xmlns:xlink="http://www.w3.org/1999/xlink" viewBox="0 0 170 64" width="170" height="64" preserveAspectRatio="xMidYMid meet" style="width: 100%; height: 100%; transform: translate3d(0px, 0px, 0px); content-visibility: visible;"><defs><clipPath id="__lottie_element_42"><rect width="170" height="64" x="0" y="0"></rect></clipPath></defs><g clip-path="url(#__lottie_element_42)"><g transform="matrix(1.332556962966919,0,0,1.332556962966919,36,32)" opacity="0.9491406925514915" style="display: block;"><g opacity="1" transform="matrix(1,0,0,1,0.375,0.375)"><path fill="currentColor" fill-opacity="1" d=" M0,-13.125 C7.243687629699707,-13.125 13.125,-7.243687629699707 13.125,0 C13.125,7.243687629699707 7.243687629699707,13.125 0,13.125 C-7.243687629699707,13.125 -13.125,7.243687629699707 -13.125,0 C-13.125,-7.243687629699707 -7.243687629699707,-13.125 0,-13.125z"></path></g></g><g transform="matrix(1.3837350606918335,0,0,1.3837350606918335,36,32)" opacity="1" style="display: block;"><g opacity="1" transform="matrix(1,0,0,1,0.375,0.375)"><path fill="currentColor" fill-opacity="1" d=" M0,-13.125 C7.243687629699707,-13.125 13.125,-7.243687629699707 13.125,0 C13.125,7.243687629699707 7.243687629699707,13.125 0,13.125 C-7.243687629699707,13.125 -13.125,7.243687629699707 -13.125,0 C-13.125,-7.243687629699707 -7.243687629699707,-13.125 0,-13.125z"></path></g></g><g transform="matrix(1,0,0,1,164.7239990234375,47.29600143432617)" opacity="1" style="display: block;"><g opacity="1" transform="matrix(1,0,0,1,0,0)"><path fill="currentColor" fill-opacity="1" d=" M-3.13700008392334,-18.604999542236328 C-3.13700008392334,-18.604999542236328 -15.51200008392334,-18.604999542236328 -15.51200008392334,-18.604999542236328 C-15.51200008392334,-18.604999542236328 -15.51200008392334,-26.06100082397461 -15.51200008392334,-26.06100082397461 C-15.51200008392334,-26.06100082397461 -1.031000018119812,-26.06100082397461 -1.031000018119812,-26.06100082397461 C-1.031000018119812,-26.06100082397461 -1.031000018119812,-31.2810001373291 -1.031000018119812,-31.2810001373291 C-1.031000018119812,-31.2810001373291 -21.957000732421875,-31.2810001373291 -21.957000732421875,-31.2810001373291 C-21.957000732421875,-31.2810001373291 -21.957000732421875,0 -21.957000732421875,0 C-21.957000732421875,0 -0.9879999756813049,0 -0.9879999756813049,0 C-0.9879999756813049,0 -0.9879999756813049,-5.177999973297119 -0.9879999756813049,-5.177999973297119 C-0.9879999756813049,-5.177999973297119 -15.51200008392334,-5.177999973297119 -15.51200008392334,-5.177999973297119 C-15.51200008392334,-5.177999973297119 -15.51200008392334,-13.557000160217285 -15.51200008392334,-13.557000160217285 C-15.51200008392334,-13.557000160217285 -3.13700008392334,-13.557000160217285 -3.13700008392334,-13.557000160217285 C-3.13700008392334,-13.557000160217285 -3.13700008392334,-18.604999542236328 -3.13700008392334,-18.604999542236328z"></path></g><g opacity="1" transform="matrix(1,0,0,1,0,0)"><path fill="currentColor" fill-opacity="1" d=" M-47.3129997253418,-31.2810001373291 C-47.3129997253418,-31.2810001373291 -54.46699905395508,-31.2810001373291 -54.46699905395508,-31.2810001373291 C-54.46699905395508,-31.2810001373291 -43.61800003051758,0 -43.61800003051758,0 C-43.61800003051758,0 -36.893001556396484,0 -36.893001556396484,0 C-36.893001556396484,0 -26,-31.2810001373291 -26,-31.2810001373291 C-26,-31.2810001373291 -33.17599868774414,-31.2810001373291 -33.17599868774414,-31.2810001373291 C-33.17599868774414,-31.2810001373291 -40.26599884033203,-7.75600004196167 -40.26599884033203,-7.75600004196167 C-40.26599884033203,-7.75600004196167 -47.3129997253418,-31.2810001373291 -47.3129997253418,-31.2810001373291z"></path></g><g opacity="1" transform="matrix(1,0,0,1,0,0)"><path fill="currentColor" fill-opacity="1" d=" M-58.89699935913086,-31.2810001373291 C-58.89699935913086,-31.2810001373291 -65.34300231933594,-31.2810001373291 -65.34300231933594,-31.2810001373291 C-65.34300231933594,-31.2810001373291 -65.34300231933594,0 -65.34300231933594,0 C-65.34300231933594,0 -58.89699935913086,0 -58.89699935913086,0 C-58.89699935913086,0 -58.89699935913086,-31.2810001373291 -58.89699935913086,-31.2810001373291z"></path></g><g opacity="1" transform="matrix(1,0,0,1,0,0)"><path fill="currentColor" fill-opacity="1" d=" M-84.23200225830078,-31.2810001373291 C-84.23200225830078,-31.2810001373291 -90.677001953125,-31.2810001373291 -90.677001953125,-31.2810001373291 C-90.677001953125,-31.2810001373291 -90.677001953125,0 -90.677001953125,0 C-90.677001953125,0 -70.5459976196289,0 -70.5459976196289,0 C-70.5459976196289,0 -70.5459976196289,-5.177999973297119 -70.5459976196289,-5.177999973297119 C-70.5459976196289,-5.177999973297119 -84.23200225830078,-5.177999973297119 -84.23200225830078,-5.177999973297119 C-84.23200225830078,-5.177999973297119 -84.23200225830078,-31.2810001373291 -84.23200225830078,-31.2810001373291z"></path></g></g></g></svg>