
<svg xmlns="http://www.w3.org/2000/svg" width="244.165" height="147.007" viewBox="0 0 244.165 147.007">
  <g id="Group_66929" data-name="Group 66929" transform="translate(-948 -525)">
    <g id="undraw_video_files_fu10" transform="translate(948 525)">
      <path id="Path_93595" data-name="Path 93595" d="M572.409,260.993a3.712,3.712,0,0,1-3.693,3.732H406.233a3.712,3.712,0,0,1-3.693-3.732V150.007a3.712,3.712,0,0,1,3.693-3.732H568.716a3.712,3.712,0,0,1,3.693,3.732h0Z" transform="translate(-328.244 -146.275)" fill="#e6e6e6"/>
      <path id="Path_93596" data-name="Path 93596" d="M576.844,265.414a3.608,3.608,0,0,1-3.608,3.608H414.528a3.608,3.608,0,0,1-3.608-3.608v-107.3a3.608,3.608,0,0,1,3.608-3.608H573.243a3.608,3.608,0,0,1,3.6,3.608Z" transform="translate(-334.596 -152.513)" fill="#fff"/>
      <path id="c6fe725a-3b03-4a96-90af-cfbd2676500a" d="M343.722,27.48H492.851a2.142,2.142,0,0,1,2.142,2.142v100.5a2.142,2.142,0,0,1-2.142,2.142H343.722a2.142,2.142,0,0,1-2.142-2.142V29.622a2.142,2.142,0,0,1,2.142-2.142Z" transform="translate(-258.916 -20.83)" fill="#e6e6e6"/>
      <path id="Path_93597" data-name="Path 93597" d="M351.522,37.44H496.714a2.142,2.142,0,0,1,2.142,2.142v95.138a2.142,2.142,0,0,1-2.142,2.142H351.522a2.142,2.142,0,0,1-2.142-2.142V39.582A2.142,2.142,0,0,1,351.522,37.44Z" transform="translate(-264.828 -28.379)" fill="#fff"/>
      <path id="Path_93598" data-name="Path 93598" d="M832.622,354.206a4.083,4.083,0,0,1-1.659-.353,2.013,2.013,0,0,1-.346-.2l-10.552-7.428h0a4.083,4.083,0,0,1-1.732-3.337v-10.13a4.082,4.082,0,0,1,1.732-3.337L830.618,322a2.012,2.012,0,0,1,.346-.2,4.082,4.082,0,0,1,5.741,3.73v24.592a4.083,4.083,0,0,1-4.083,4.082Z" transform="translate(-643.412 -279.055)" fill="#3f3d56"/>
      <path id="Path_93599" data-name="Path 93599" d="M653.551,349.956h-29.43c-6,0-10.87-3.886-10.876-8.675V321.888c.006-4.789,4.872-8.67,10.876-8.675h29.507c5.961.006,10.792,3.859,10.8,8.614V341.28C664.421,346.069,659.555,349.951,653.551,349.956Z" transform="translate(-487.957 -272.813)" fill="#3f3d56"/>
      <path id="Path_93601" data-name="Path 93601" d="M417.409,315.993a3.712,3.712,0,0,1-3.693,3.732H251.233a3.712,3.712,0,0,1-3.693-3.732V205.007a3.712,3.712,0,0,1,3.693-3.732H413.716a3.712,3.712,0,0,1,3.693,3.732h0Z" transform="translate(-210.755 -187.965)" fill="#e6e6e6"/>
      <path id="Path_93602" data-name="Path 93602" d="M421.844,320.414a3.608,3.608,0,0,1-3.608,3.608H259.528a3.608,3.608,0,0,1-3.608-3.608v-107.3a3.608,3.608,0,0,1,3.608-3.608H418.243a3.608,3.608,0,0,1,3.6,3.608Z" transform="translate(-217.107 -194.203)" fill="#fff"/>
      <path id="c6fe725a-3b03-4a96-90af-cfbd2676500a-2" data-name="c6fe725a-3b03-4a96-90af-cfbd2676500a" d="M188.722,82.48H337.851a2.142,2.142,0,0,1,2.142,2.142v100.5a2.142,2.142,0,0,1-2.142,2.142H188.722a2.142,2.142,0,0,1-2.142-2.142V84.622A2.142,2.142,0,0,1,188.722,82.48Z" transform="translate(-141.427 -62.519)" fill="#e6e6e6"/>
      <path id="Path_93603" data-name="Path 93603" d="M196.522,92.44H341.714a2.142,2.142,0,0,1,2.142,2.142v95.138a2.142,2.142,0,0,1-2.142,2.142H196.522a2.142,2.142,0,0,1-2.142-2.142V94.582A2.142,2.142,0,0,1,196.522,92.44Z" transform="translate(-147.339 -70.069)" fill="#fcfcfc"/>
      <path id="Path_93604" data-name="Path 93604" d="M677.622,409.206a4.082,4.082,0,0,1-1.659-.353,2.009,2.009,0,0,1-.346-.2l-10.552-7.428h0a4.082,4.082,0,0,1-1.733-3.337v-10.13a4.082,4.082,0,0,1,1.732-3.337L675.618,377a2.012,2.012,0,0,1,.346-.2,4.082,4.082,0,0,1,5.741,3.73v24.592a4.082,4.082,0,0,1-4.083,4.082Z" transform="translate(-525.923 -320.744)" fill="#3f3d56"/>
      <path id="Path_93605" data-name="Path 93605" d="M498.551,404.956h-29.43c-6,0-10.87-3.886-10.876-8.675V376.888c.006-4.789,4.872-8.67,10.876-8.675h29.507c5.961.006,10.792,3.859,10.8,8.614V396.28C509.421,401.069,504.555,404.951,498.551,404.956Z" transform="translate(-370.468 -314.503)" fill="#3f3d56"/>
      <path id="Path_93607" data-name="Path 93607" d="M265.409,378.993a3.712,3.712,0,0,1-3.693,3.732H99.233a3.712,3.712,0,0,1-3.693-3.732V268.007a3.712,3.712,0,0,1,3.693-3.732H261.716a3.712,3.712,0,0,1,3.693,3.732h0Z" transform="translate(-95.54 -235.718)" fill="#e6e6e6"/>
      <path id="Path_93608" data-name="Path 93608" d="M269.844,383.414a3.608,3.608,0,0,1-3.608,3.608H107.528a3.608,3.608,0,0,1-3.608-3.608v-107.3a3.608,3.608,0,0,1,3.608-3.608H266.243a3.608,3.608,0,0,1,3.6,3.608Z" transform="translate(-101.892 -241.957)" fill="#fff"/>
      <path id="c6fe725a-3b03-4a96-90af-cfbd2676500a-3" data-name="c6fe725a-3b03-4a96-90af-cfbd2676500a" d="M36.722,145.48H185.851a2.142,2.142,0,0,1,2.142,2.142v100.5a2.142,2.142,0,0,1-2.142,2.142H36.722a2.142,2.142,0,0,1-2.142-2.142v-100.5a2.142,2.142,0,0,1,2.142-2.142Z" transform="translate(-26.212 -110.273)" fill="#e6e6e6"/>
      <path id="Path_93609" data-name="Path 93609" d="M44.522,155.44H189.714a2.142,2.142,0,0,1,2.142,2.142v95.138a2.142,2.142,0,0,1-2.142,2.142H44.522a2.142,2.142,0,0,1-2.142-2.142V157.582a2.142,2.142,0,0,1,2.142-2.142Z" transform="translate(-32.38 -117.44)" fill="#f4f4f4"/>
    </g>
    <g id="history" transform="translate(1008.023 589)">
      <path id="Path_93695" data-name="Path 93695" d="M26.805,1A22.338,22.338,0,0,0,5.271,17.81l-1.5-2.263A2.044,2.044,0,1,0,.365,17.8l4.5,6.816a2.216,2.216,0,0,0,1.3.869,2.093,2.093,0,0,0,1.545-.3l6.746-4.544a2.044,2.044,0,1,0-2.279-3.391L9.1,19.317a18.329,18.329,0,1,1,2.819,14.756,2.044,2.044,0,1,0-3.353,2.337,22.244,22.244,0,0,0,40.52-12.922A22.411,22.411,0,0,0,26.805,1Z" transform="translate(0 0)" fill="#acacae"/>
      <path id="Path_93696" data-name="Path 93696" d="M14.044,5.95A2.044,2.044,0,0,0,12,7.994V18.318a2.126,2.126,0,0,0,.6,1.445l6.133,6.188a2.071,2.071,0,0,0,2.891.014,2.044,2.044,0,0,0,.012-2.891l-5.546-5.6V7.994A2.044,2.044,0,0,0,14.044,5.95Z" transform="translate(12.557 5.169)" fill="#acacae"/>
    </g>
  </g>
</svg>
