<svg xmlns="http://www.w3.org/2000/svg" width="18.597" height="21.418" viewBox="0 0 18.597 21.418">
    <g transform="translate(0.1 0.1)">
        <path  fill="#cdd4dc" d="M3.615-.422a3.25,3.25,0,1,1-3.25,3.25A3.25,3.25,0,0,1,3.615-.422Z"
            transform="translate(11.632 15.24)" />
        <path fill='#c9d1da' stroke='#fff' stroke-width='0.2px' d="M9.749,20.115H.657a.68.68,0,0,1-.657-.7V2.938a.679.679,0,0,1,.657-.7H16.163a.68.68,0,0,1,.657.7V12.4a6.026,6.026,0,0,0-1.314-.156v-8.6H1.314V18.721H9.469a5.982,5.982,0,0,0,.28,1.394Zm-2.235-5.13H3.757a.7.7,0,0,1,0-1.4H7.514a.7.7,0,0,1,0,1.4Zm5.137-3.464H3.645a.7.7,0,0,1,0-1.4h9.006a.7.7,0,0,1,0,1.4Zm0-3.417H3.806a.7.7,0,0,1,0-1.4h8.845a.7.7,0,0,1,0,1.4ZM12.836,1.4H3.991A.68.68,0,0,1,3.334.7.68.68,0,0,1,3.991,0h8.845a.68.68,0,0,1,.657.7A.679.679,0,0,1,12.836,1.4Z" />
    </g>
</svg>