<svg id="Component_528_5" data-name="Component 528 – 5" xmlns="http://www.w3.org/2000/svg" width="20" height="20" viewBox="0 0 20 20">
  <g id="Group_33810" data-name="Group 33810" transform="translate(-602 -391.137)">
    <path id="Path_222" data-name="Path 222" d="M609.761,403.367a3.123,3.123,0,0,1-.925-2.229,3.16,3.16,0,0,1,5.394-2.241" fill="none" stroke="currentColor" stroke-linecap="round" stroke-linejoin="round" stroke-width="1.5"/>
    <path id="Path_223" data-name="Path 223" d="M615.1,401.7a3.158,3.158,0,0,1-2.537,2.542" fill="none" stroke="currentColor" stroke-linecap="round" stroke-linejoin="round" stroke-width="1.5"/>
    <path id="Path_224" data-name="Path 224" d="M606.655,406.472a13.429,13.429,0,0,1-3.905-5.335,13.591,13.591,0,0,1,3.934-5.365,8.257,8.257,0,0,1,10.652.019" fill="none" stroke="currentColor" stroke-linecap="round" stroke-linejoin="round" stroke-width="1.5"/>
    <path id="Path_225" data-name="Path 225" d="M619.448,397.991a15.358,15.358,0,0,1,1.8,3.146c-1.967,4.557-5.443,7.3-9.25,7.3a7.981,7.981,0,0,1-2.532-.413" fill="none" stroke="currentColor" stroke-linecap="round" stroke-linejoin="round" stroke-width="1.5"/>
    <path id="Path_226" data-name="Path 226" d="M619.887,393.25l-15.774,15.774" fill="none" stroke="currentColor" stroke-linecap="round" stroke-linejoin="round" stroke-width="1.5"/>
  </g>
  <rect id="Rectangle_13805" data-name="Rectangle 13805" width="20" height="20" fill="none"/>
</svg>
