
<svg xmlns="http://www.w3.org/2000/svg" width="24" height="24" viewBox="0 0 24 24">
  <rect id="Rectangle_22221" data-name="Rectangle 22221" width="24" height="24" fill="currentColor" opacity="0"/>
  <path id="share_FILL0_wght400_GRAD0_opsz48" d="M133.657,194a2.526,2.526,0,0,1-2.531-2.939,1.873,1.873,0,0,1,.1-.391l-6.817-3.96a2.571,2.571,0,0,1-.832.619,2.327,2.327,0,0,1-1.013.236,2.565,2.565,0,1,1,.99-4.928,2.716,2.716,0,0,1,.855.585l6.817-3.915a1.6,1.6,0,0,1-.1-.358,2.3,2.3,0,0,1-.034-.385,2.569,2.569,0,1,1,2.565,2.565,3.007,3.007,0,0,1-1.005-.169,1.925,1.925,0,0,1-.817-.551l-6.818,3.78a4.157,4.157,0,0,1,.079.416,2.9,2.9,0,0,1,.034.4,1.778,1.778,0,0,1-.034.338q-.034.175-.079.355l6.818,3.87a2.677,2.677,0,0,1,.788-.506,2.627,2.627,0,0,1,1.035-.191,2.565,2.565,0,1,1,0,5.13Zm0-14.22a1.193,1.193,0,1,0-.866-.349A1.174,1.174,0,0,0,133.658,179.78Zm-11.093,6.435a1.193,1.193,0,1,0-.866-.349,1.174,1.174,0,0,0,.866.349Zm11.093,6.435a1.193,1.193,0,1,0-.866-.349A1.174,1.174,0,0,0,133.658,192.65ZM133.657,178.565ZM122.565,185ZM133.657,191.435Z" transform="translate(-116 -173)" fill="currenColor"/>
</svg>
