<svg id="Component_120_30" data-name="Component 120 – 30" xmlns="http://www.w3.org/2000/svg" width="55" height="36" viewBox="0 0 55 36">
  <g id="Rectangle_23845" data-name="Rectangle 23845" fill="#fff" stroke="#acacae" stroke-width="1">
    <rect width="55" height="36" rx="3" stroke="none"/>
    <rect x="0.5" y="0.5" width="54" height="35" rx="2.5" fill="none"/>
  </g>
  <g id="user_3_" data-name="user (3)" transform="translate(19 8)">
    <path id="Path_61818" data-name="Path 61818" d="M91.785,9.507a4.6,4.6,0,0,0,3.361-1.393,4.6,4.6,0,0,0,1.392-3.361,4.6,4.6,0,0,0-1.393-3.361,4.752,4.752,0,0,0-6.722,0,4.6,4.6,0,0,0-1.393,3.361,4.6,4.6,0,0,0,1.393,3.361A4.6,4.6,0,0,0,91.785,9.507Zm0,0" transform="translate(-83.677)" fill="#acacae"/>
    <path id="Path_61819" data-name="Path 61819" d="M16.425,252.959a11.739,11.739,0,0,0-.16-1.247,9.824,9.824,0,0,0-.307-1.254,6.193,6.193,0,0,0-.515-1.169,4.412,4.412,0,0,0-.777-1.013,3.427,3.427,0,0,0-1.116-.7,3.859,3.859,0,0,0-1.425-.258,1.447,1.447,0,0,0-.773.328c-.232.151-.5.326-.8.519a4.612,4.612,0,0,1-1.041.459,4.044,4.044,0,0,1-2.547,0,4.6,4.6,0,0,1-1.041-.459c-.3-.191-.571-.366-.806-.519a1.445,1.445,0,0,0-.772-.328,3.854,3.854,0,0,0-1.425.258,3.424,3.424,0,0,0-1.117.7,4.413,4.413,0,0,0-.777,1.013,6.2,6.2,0,0,0-.515,1.169A9.848,9.848,0,0,0,.2,251.712a11.7,11.7,0,0,0-.16,1.247c-.026.378-.039.77-.039,1.165A3.277,3.277,0,0,0,.973,256.6a3.5,3.5,0,0,0,2.508.915h9.5a3.5,3.5,0,0,0,2.508-.915,3.276,3.276,0,0,0,.973-2.479c0-.4-.014-.79-.04-1.166Zm0,0" transform="translate(0 -237.783)" fill="#acacae"/>
  </g>
</svg>
