<svg xmlns="http://www.w3.org/2000/svg" width="5" height="8" viewBox="0 0 5 8">
    <path fill="#303030"
        d="M55.131,3.051h4.375a.289.289,0,0,0,.22-.1.352.352,0,0,0,0-.477L57.538.1A.29.29,0,0,0,57.1.1L54.911,2.473a.353.353,0,0,0,0,.477A.289.289,0,0,0,55.131,3.051Z"
        transform="translate(-54.818 0)" />
    <path fill="rgba(48,48,48,0.5)"
        d="M59.505,237.549H55.131a.289.289,0,0,0-.22.1.352.352,0,0,0,0,.477L57.1,240.5a.29.29,0,0,0,.439,0l2.187-2.373a.352.352,0,0,0,0-.477A.289.289,0,0,0,59.505,237.549Z"
        transform="translate(-54.818 -232.6)" />
</svg>