<svg xmlns="http://www.w3.org/2000/svg" width="6.652" height="8" viewBox="0 0 6.652 8">
    <g id="down-arrow_down" transform="translate(-41.46)">
        <g id="Group_14679" data-name="Group 14679" transform="translate(41.46)">
            <path
                d="M47.984,4.366,47.722,4.1a.434.434,0,0,0-.309-.128.458.458,0,0,0-.319.128L45.4,5.788V.438A.421.421,0,0,0,44.981,
            0H44.61a.46.46,0,0,0-.462.438v5.37L42.458,
            4.1a.421.421,0,0,0-.3-.128.428.428,0,0,0-.306.128l-.261.262a.438.438,0,0,0,0,.619l2.887,2.887A.436.436,0,0,0,44.786,8h0a.435.435,
            0,0,0,.309-.128l2.887-2.887A.438.438,0,0,0,47.984,4.366Z"
                transform="translate(-41.46 0)" fill="#303030" />
        </g>
    </g>
</svg>