<svg xmlns="http://www.w3.org/2000/svg" width="15.106" height="7.333" viewBox="0 0 15.106 7.333">
  <g id="Group_38593" data-name="Group 38593" transform="translate(14312.819 -69)">
    <path id="Subtraction_30" data-name="Subtraction 30" d="M25.733,92.333a2.993,2.993,0,0,1-2.3-1.071L18.18,85H33.286l-5.255,6.262A2.993,2.993,0,0,1,25.733,92.333Z" transform="translate(-14331 -16)" fill="#fff"/>
    <path id="Subtraction_30_-_Outline" data-name="Subtraction 30 - Outline" d="M25.733,91.833a2.5,2.5,0,0,0,1.915-.893L32.62,85H18.849l4.969,5.941a2.5,2.5,0,0,0,1.915.893m0,.5a2.993,2.993,0,0,1-2.3-1.071L18.18,85H33.286l-5.255,6.262A2.993,2.993,0,0,1,25.733,92.333Z" transform="translate(-14331 -16)" fill="#0043e3"/>
  </g>
</svg>
