<svg xmlns="http://www.w3.org/2000/svg" width="12.695" height="14.382" viewBox="0 0 12.695 14.382">
    <path  fill="#9c9fa3" stroke="#9c9fa3" stroke-width="0.3px"
        d="M343.767,53.75V47.29a1.047,1.047,0,1,1,1.01.076V53.75a.511.511,0,0,1-.509.509A.5.5,0,0,1,343.767,53.75Zm3.116-5.271a.5.5,0,0,0,.7-.17,3.68,3.68,0,0,0,.535-2.088,3.75,3.75,0,0,0-3.888-3.582,3.743,3.743,0,0,0-3.566,3.888,3.749,3.749,0,0,0,.458,1.655.506.506,0,0,0,.7.2.513.513,0,0,0,.2-.7,2.819,2.819,0,0,1-.34-1.205,2.756,2.756,0,0,1,.713-1.952,2.728,2.728,0,0,1,4.72,1.74,2.664,2.664,0,0,1-.391,1.519A.509.509,0,0,0,346.883,48.479Zm1.494,1.961a.52.52,0,0,0,.722-.059,6.2,6.2,0,1,0-9.313.17.511.511,0,0,0,.374.17.482.482,0,0,0,.34-.136.518.518,0,0,0,.034-.722,5.178,5.178,0,1,1,7.785-.144A.5.5,0,0,0,348.377,50.44Z"
        transform="translate(-338.014 -40.027)" />
</svg>