<svg version="1.2" baseProfile="tiny-ps" xmlns="http://www.w3.org/2000/svg" viewBox="0 0 26 26" width="26" height="26">
	<title>web-svg</title>
	<style>
		tspan { white-space:pre }
		.s0 { fill: #006599;stroke: #efefef;stroke-width: .4 } 
	</style>
	<g id="Web">
		<path id="web-39" fill-rule="evenodd" class="s0" d="m13.01 1c0 0 0 0-0.01 0c0 0 0 0-0.01 0l0.01 0zm-0.01 0c1.57 0 3.13 0.31 4.59 0.91c1.46 0.6 2.78 1.49 3.9 2.6c1.12 1.11 2 2.44 2.6 3.89c0.6 1.46 0.92 3.02 0.92 4.59c0 4.85-2.92 9.23-7.41 11.09c-4.48 1.86-9.65 0.83-13.08-2.6c-3.43-3.43-4.46-8.59-2.6-13.08c1.86-4.48 6.23-7.41 11.08-7.41zm3.1 21.07c0 0 0 0 0 0c0 0 0 0 0 0h0zm0 0c0.54-0.19 1.06-0.42 1.56-0.7c0.5-0.28 0.98-0.6 1.42-0.97c0.44-0.36 0.85-0.77 1.22-1.2c0.37-0.44 0.7-0.91 0.99-1.4l-3.54 0c-0.09 0.37-0.2 0.74-0.32 1.1c-0.12 0.36-0.24 0.73-0.38 1.08c-0.14 0.36-0.29 0.71-0.45 1.06c-0.16 0.35-0.33 0.69-0.51 1.03zm-0.3-6.67c0.06-0.4 0.11-0.8 0.14-1.2c0.03-0.4 0.05-0.8 0.05-1.2c0-0.4-0.02-0.8-0.05-1.2c-0.03-0.4-0.08-0.8-0.14-1.2h-5.62c-0.06 0.4-0.11 0.8-0.14 1.2c-0.03 0.4-0.05 0.8-0.05 1.2c0 0.4 0.02 0.8 0.05 1.2c0.03 0.4 0.08 0.8 0.14 1.2h5.62zm-2.09 6.04c0.22-0.38 0.43-0.77 0.62-1.17c0.19-0.4 0.37-0.8 0.53-1.22c0.16-0.41 0.3-0.83 0.43-1.25h-4.58c0.12 0.42 0.27 0.84 0.43 1.25c0.16 0.41 0.33 0.82 0.53 1.22c0.19 0.4 0.4 0.79 0.62 1.17c0.22 0.38 0.46 0.75 0.72 1.11c0.25-0.36 0.49-0.73 0.72-1.11zm-5.51-13.24c0.1-0.37 0.21-0.74 0.33-1.1c0.12-0.36 0.25-0.72 0.39-1.08c0.14-0.36 0.29-0.71 0.45-1.06c0.16-0.35 0.33-0.69 0.51-1.03c-0.54 0.18-1.07 0.42-1.57 0.7c-0.5 0.28-0.97 0.6-1.42 0.97c-0.44 0.36-0.85 0.77-1.22 1.2c-0.37 0.44-0.7 0.91-0.98 1.4l3.5 0zm-3.5 9.6c0.29 0.5 0.62 0.96 0.99 1.4c0.37 0.44 0.78 0.84 1.22 1.2c0.44 0.36 0.91 0.69 1.41 0.97c0.5 0.28 1.02 0.51 1.56 0.7c-0.18-0.34-0.35-0.68-0.51-1.03c-0.16-0.35-0.31-0.7-0.45-1.06c-0.14-0.36-0.27-0.72-0.39-1.08c-0.12-0.36-0.23-0.73-0.33-1.1h-3.5zm3.07-2.4c-0.06-0.4-0.1-0.8-0.13-1.2c-0.03-0.4-0.04-0.8-0.04-1.2c0-0.4 0.01-0.8 0.04-1.2c0.03-0.4 0.07-0.8 0.13-1.2l-4.05 0c-0.1 0.39-0.18 0.79-0.23 1.19c-0.05 0.4-0.08 0.81-0.08 1.21c0 0.4 0.03 0.81 0.08 1.21c0.05 0.4 0.13 0.8 0.23 1.19l4.05 0zm5.23-11.96c0 0 0 0 0 0c0 0 0 0 0 0l0 0zm0 0c-0.25 0.36-0.49 0.73-0.72 1.12c-0.22 0.38-0.43 0.77-0.62 1.17c-0.19 0.4-0.37 0.81-0.53 1.22c-0.16 0.41-0.3 0.83-0.43 1.26l4.58 0c-0.12-0.42-0.27-0.84-0.43-1.26c-0.16-0.41-0.33-0.82-0.53-1.22c-0.19-0.4-0.4-0.79-0.62-1.17c-0.22-0.38-0.46-0.75-0.72-1.12zm8.31 4.76c-0.29-0.5-0.62-0.97-0.99-1.4c-0.37-0.44-0.78-0.84-1.22-1.2c-0.44-0.36-0.92-0.69-1.42-0.97c-0.5-0.28-1.03-0.51-1.57-0.7c0.18 0.34 0.35 0.68 0.51 1.03c0.16 0.35 0.31 0.7 0.45 1.06c0.14 0.36 0.27 0.72 0.38 1.08c0.12 0.36 0.22 0.73 0.32 1.1h3.54zm0.98 7.2c0.1-0.39 0.18-0.79 0.23-1.19c0.05-0.4 0.08-0.81 0.08-1.21c0-0.4-0.03-0.81-0.08-1.21c-0.05-0.4-0.13-0.8-0.23-1.19l-4.06 0c0.06 0.4 0.1 0.8 0.13 1.2c0.03 0.4 0.04 0.8 0.04 1.2c0 0.4-0.01 0.8-0.04 1.2c-0.03 0.4-0.07 0.8-0.13 1.2l4.06 0z" />
	</g>
</svg>