<svg xmlns="http://www.w3.org/2000/svg" width="14.16" height="14.16" viewBox="0 0 14.16 14.16">
  <g id="end_call" data-name="end call" transform="translate(-2.078 -2)">
    <g id="cancel" transform="translate(0 0)">
      <path id="Path_58754" data-name="Path 58754" d="M13.054,14.16a1.107,1.107,0,0,1-.783-.324L7.08,8.645,1.889,13.836A1.107,1.107,0,0,1,.324,12.271L5.515,7.08.324,1.889A1.107,1.107,0,0,1,1.889.324L7.08,5.515,12.268.324a1.107,1.107,0,0,1,1.565,1.565L8.645,7.08l5.188,5.188a1.106,1.106,0,0,1,0,1.565A1.089,1.089,0,0,1,13.054,14.16Z" transform="translate(2.078 2)" fill="currentColor"/>
    </g>
  </g>
</svg>
